<mxfile host="app.diagrams.net" modified="2023-04-27T12:24:48.047Z" agent="Mozilla/5.0 (Windows NT 10.0; Win64; x64) AppleWebKit/537.36 (KHTML, like Gecko) Chrome/112.0.0.0 Safari/537.36" etag="VsEWsfk1JtAcf5ckXYoE" version="21.2.3" type="github">
  <diagram id="pwUjs0pmR0LOsBvA_Kwn" name="Desconto/Carrinho">
    <mxGraphModel dx="1434" dy="806" grid="1" gridSize="10" guides="1" tooltips="1" connect="1" arrows="1" fold="1" page="1" pageScale="1" pageWidth="3300" pageHeight="4681" math="0" shadow="0">
      <root>
        <mxCell id="9RFhBGHadp-DHh5qUiH--0" />
        <mxCell id="9RFhBGHadp-DHh5qUiH--1" parent="9RFhBGHadp-DHh5qUiH--0" />
        <mxCell id="9RFhBGHadp-DHh5qUiH--2" value="Carrinho" style="rounded=0;whiteSpace=wrap;html=1;verticalAlign=middle;" parent="9RFhBGHadp-DHh5qUiH--1" vertex="1">
          <mxGeometry x="277.97999999999996" y="730" width="310.07" height="100" as="geometry" />
        </mxCell>
        <mxCell id="9RFhBGHadp-DHh5qUiH--6" value="comunicação desconto x carrinho" style="edgeStyle=orthogonalEdgeStyle;rounded=0;orthogonalLoop=1;jettySize=auto;html=1;entryX=0.5;entryY=0;entryDx=0;entryDy=0;exitX=0.5;exitY=1;exitDx=0;exitDy=0;startArrow=classic;startFill=1;fontSize=12;" parent="9RFhBGHadp-DHh5qUiH--1" source="9RFhBGHadp-DHh5qUiH--3" target="9RFhBGHadp-DHh5qUiH--2" edge="1">
          <mxGeometry relative="1" as="geometry">
            <mxPoint x="57.99000000000029" y="290" as="targetPoint" />
            <Array as="points">
              <mxPoint x="433.05" y="650" />
              <mxPoint x="433.05" y="650" />
            </Array>
          </mxGeometry>
        </mxCell>
        <mxCell id="9RFhBGHadp-DHh5qUiH--26" value="" style="edgeStyle=orthogonalEdgeStyle;rounded=0;orthogonalLoop=1;jettySize=auto;html=1;fontSize=14;startArrow=none;startFill=0;strokeWidth=3;fillColor=#d5e8d4;strokeColor=#82b366;exitX=1;exitY=0.5;exitDx=0;exitDy=0;entryX=0;entryY=0.5;entryDx=0;entryDy=0;" parent="9RFhBGHadp-DHh5qUiH--1" source="9RFhBGHadp-DHh5qUiH--3" target="9RFhBGHadp-DHh5qUiH--41" edge="1">
          <mxGeometry relative="1" as="geometry">
            <mxPoint x="748.05" y="570" as="targetPoint" />
            <mxPoint x="1088.05" y="710" as="sourcePoint" />
          </mxGeometry>
        </mxCell>
        <mxCell id="9RFhBGHadp-DHh5qUiH--3" value="" style="shape=image;verticalLabelPosition=bottom;labelBackgroundColor=#ffffff;verticalAlign=top;aspect=fixed;imageAspect=0;image=data:image/png,iVBORw0KGgoAAAANSUhEUgAAAd0AAACuCAYAAABz/Ne1AAAABHNCSVQICAgIfAhkiAAAIABJREFUeF7tnQ2QldWZ508j39DdIKjQoBLRCH6g4pYwFRyT2uAmkNTMRBN1s6kJ7JZudrcWXHWrkqwfaMxUje6AU/uls0B2nCrcVbayVRJHmGwmalaxSvC7dSIkAbobAwrdzXcDve/vXJ7r6dPv7b7ddN/3fvxP1a3u+77nPOd5fue85znPOeftrmtpaemeNGmSUxIBERABERABERg+AgcPHnQjhk+8JIuACIiACIiACIQERvKl89BhUREBERABERABERhmAt7p1tdPHOZqJF4EREAEREAEapvAwQMHnHe648eNq20Ssl4EREAEREAEhpkATld7usMMWeJFQAREQAREwAjI6aoviIAIiIAIiECJCMjplgi0qhEBERABERABOV31AREQAREQAREoEQE53RKBVjUiIAIiIAIiIKerPiACIiACIiACJSIgp1si0KpGBERABERABOR01QdEQAREQAREoEQE5HRLBFrViIAIiIAIiICcrvqACIiACIiACJSIgJxuiUCrGhEQAREQARGQ01UfEAEREAEREIESEZDTLRFoVSMCIiACIiACcrrqAyIgAiIgAiJQIgJyuiUCrWpEQAREQAREQE5XfUAEREAEREAESkRATrdEoFWNCIiACIiACMjpqg+IgAiIgAiIQIkIyOmWCLSqEQEREAEREAE5XfUBERABERABESgRATndEoFWNSIgAiIgAiIwMisE77//vtuzZ4+7+eabh0WFjo4Ot27dOjdz5kx36623DksdQyUUXeERp4aGBnfFFVfEl/VdBERABESgQglk5nTvuusu73Qfe+yxYXGKr732mnviiSd8s+C4ytl5Pfzww27jxo2pXQjHu3jxYrdy5Uo/gajGxKQDO5VEQAREoNoJZOZ0cbjDmczRMpiX+4BuLHCqCxYs8FhwRC0tLT4CxiFv3brVbdiwoeocL7YvXbrUt9GmTZvKvq2Gs89KtgiIQPUTyMzpDjdaHBiDeCUlHO7jjz/eQ2Wc0h133OFXBfj58ssvV5JJ/eqKXUww7FPuE6R+DVIGERABEeiDQFk5XZaEGYTZg2UQfu655/xPota0vV/yEwmSBye7cOHCHpEg5Um2p2sykUV+yvPhPt+5jzyTiQOwvH0wzN8KdR5o2ULy0YsleHO8mzdv7sXC7EAGDPjEKWRlqwDxcjX6I98i7zRZxeShPOzhCgeTGTMx1qar7fOjV6hbaF+hvhDbq+8iIAIiUI4Eysrpss/LoM6yKoeg+N0SDoDlVUtr1qzJ79mGYG2PmIH6vvvu87dwnAz4yGSfl8G9ubm5x+ElBnPyh3VSlvxPPvlkqiML603T55FHHnHLli1zDzzwQJh1wL9jO1EwS8yh0w2jYBOKvnGd2GUTEMsHD1jZZAYmts8eyrIVA/KTB+cfMqI+8oRL37BgSZw2oC3NiSN3/fr1+XZkWTlM1E+65ZZbfMSfZh/3qY82Ked9+h6G6YsIiIAInCFQVq8M2WDOoE2UxMBqUWoY7eB4bLAnDwP+8uXL/WCMM41T7Ei3bNniB3QG9/vvv9/XgUMhIcdkcoCJsjjPvhIOzQ5tceAJfXBoOCqcjN3rS0Z/9yzyw4lZsugXnVl2ZjkdR0Sd5mRhxe/mqIyVOVFkwcIcLuXRHQY4enOY5gDhgaPmPh/kcs8mOKEdTBK4jzw4Uyd50c+u0waWsIN8/CSZfegUtonpG7drWLd+FwEREIGyJJAM4t1ZpFmzZnXzefbZZ/PV27V77723h0rz5s3zedeuXeuv85PvS5YsKaj6q6++6vPw2b17t8+3evXqXtdCAe3t7T3kUc5kxPfCjOhBvlhvqw/9+0q33XabL3/PPfcUzMY98tx+++0+j9kXy7brls90sO9WQWiP8Vy0aFF3bKexW7Vqla+fPGF677338oyom2S6xnlNRqhLWjsh48UXX0xtK/SL+0MPhfRFBERABMqUAP62rJaXbVZiJ3jtOxESUY1FNiy3WqR24403+ojM9h8tIuxrhhPv/YZ5iQqJpPiEkRS/U2dasiiZyDhMRNBEuZRFXjG6pcnnWhzVEflbSpx9/nfLZxEqtqID+WNWZg/RMImIMrbRdDYb47ahjEW75An3k+Pl31h2XumUX6y+uK2QAWeWry1PSnFdEgEREIGyJFBWy8vFEmIwZynVDlwxALO8iVOJ9y6LlYnjueaaa7wclkXLLZlOsdOLHRnfWbK1JVqcFkvPMSuWbs3Zmq319fX9mt3Y2NhvnoHI609YPNnoL7/ui4AIiEA5EyjLSLcYYLYnyH4hEQ/7wOzVEtXZPnAxcixPuCe7YsUKfxm5yOwvWaRn0aXlDyOx2Dn2JzO8j23mfMw2i0C5Hr9mFMsuxIq9VTudjVNP2w83WUx0yBNHlxbFk+9sIvlYZ+MVMyWfXRvK+uL69V0EREAEhoNARUa6nEJmSdUGXxyCLWuejXMDcLJnmOdcbNRsh4FwYqYTP+0AFo6yGL1wYHZgjJ/Un+x/9jikZY7GTmRTJjyoxffwJHVfrGJHjkMNZVH/nXfe6R2+nXJGL2SSrC5+Ry/LkwdYxC+h4wwdrDGL7cM2i/oHM7kqQiVlEQEREIFhI5BZpIsTskF/oNYx8BOBsqyMHD42YA9m4Kd+HCdOB8fJoJ4WYRXSk6VcdKEMS9yhbTgVi5wLlTeHjE1pkTX3ORXNq0CWuMZJX5bDcUQ4wjQOxbBiwoINyEAWnzDRTuTBDpwykwlzztaG6DKYBB97HYolb75jJ/pQH3WZfci3+qr5z2IOhqPKiIAIVAaBc5KTpg8Vs5c31Obs37/fjRkzxg+u5nQ6Ozt7XbN6d+7c6d93Je/Xv/51PzgzAJ84ccJnYeD+3ve+l9/LJN/27dvdhRde2OPam2++6ctfd911PUziu8lEt2uvvdY99dRTDp2QZXukaRzMjlAnfv/2t7/tX5c577zz0orlr1F+3759vv7wg6MjmmP5ODygZAWJ8LmPjsePH/cfOFAvTgm5hVg9+uijPZbhb7rpprz9dXV13mZk/+hHP3KzZ8/2VdqhJuOOfA41xfox+YAhelhZyiMzjT/1GDvqvvLKK3378AntQwb2xbobD/0UAREQgXImwFhdxxHmpqamctZTuomACIiACIhAxRNobW11FbmnW/HkZYAIiIAIiEBNEpDTrclml9EiIAIiIAJZEJDTzYK66hQBERABEahJAnK6NdnsMloEREAERCALAnK6WVBXnSIgAiIgAjVJQE63JptdRouACIiACGRBQE43C+qqUwREQAREoCYJyOnWZLPLaBEQAREQgSwIyOlmQV11ioAIiIAI1CQBOd2abHYZLQIiIAIikAUBOd0sqKtOERABERCBmiQgp1uTzS6jRUAEREAEsiAgp5sFddUpAiIgAiJQkwTkdGuy2WW0CIiACIhAFgTkdLOgrjpFQAREQARqkoCcbk02u4wWAREQARHIgoCcbhbUVacIiIAIiEBNEpDTrclml9EiIAIiIAJZEJDTzYK66hQBERABEahJAnK6NdnsMloEREAERCALAnK6WVBXnSIgAiIgAjVJQE63JptdRouACIiACGRBQE43C+qqUwREQAREoCYJyOnWZLPLaBEQAREQgSwIjMyiUuo8fbrbHTp02B05ejQrFVSvCIhADRMYM3q0q6+f6EaOPGfYKRzq6HbPrDvofruty+15+viw16cKcgQmLx3pzrtslPsnd0x0198wtiyw1LW0tHQ3NTWVVJmTJ0+5/Z986k6dOuVG1NW5Eeco4C5pA1RBZadPnXanu7vVf6qgLbMygXGINHlSoxs/ftywqGHO9oW7D+bl17tRw1KXhPYmcMydcl3utL8B9z/bM81Nn5FZrOlaW1tdJrWbw21IZpnMNJVEYKAEjh8/4SduEyZOcPQjJREYKIETJ7p8H2rv6HTjxo11dUkAMJSpreWkW/W1j92+N0/4Af+r6xrc0lvr3cT6oa1nKHWuRlnbXj/u/nZDp3tjTaf7dzNb3D/bONUt/caEzEwteYhJRyfCZWYph5tZu6tiEah5AqNHj/Jj0OnTp93hI0O7zUWE+/2Zbd7h3vTQJPeT7pnutmUNcrgZ9Lr5N4xxP1g91f1w63TXndS/7pbfu22vH8tAk1yVJXe6OFwS+ylKIiACIpAlASJcUldX15CqsfYvDrhOd9ItWTPZ/dsHJw+pbAkbHIH5yZ7uquZpyZrDCPeXC/Y7JkZZpJI73e5kH05JBERABKqVAMvKL61q90vK/3zFpGo1syLtunzOGLd4dWMyIepyz6xvz8SGkjvdTKxUpSIgAiJQIgK/3HLE1/TNjYpwS4R8QNV8a3mDj3ZfWXloQOWGKrOc7lCRlBwREAERSAhs/V+HPYebvjxePMqQQH3DCDdv5QQf7ba15rY7S6mmnG4paasuERCBqidw4IWTfml5YoNOKZdrY19wce7FnbY9J0uuopxuyZGrQhEQAREQgSwJXHBhJm/LepPldLNsedUtAiIgAiJQUwTkdGuquWWsCIiACIhAlgTkdLOkr7pFQAREQARqioCcbk01t4wVAREQARHIkoCcbpb0VbcIiIAIiEBNEZDTranmlrEiIAIiIAJZEpDTzZK+6hYBERABEagpAnK6NdXcMlYEREAERCBLAnK6WdJX3SIgAiIgAjVFQE63pppbxoqACIiACGRJQE43S/qqWwREQAREoKYI1KzTbW/vcO+83VxTjS1jRUAEREAEsiVQs063rfVjt3Pnb92RI0ezbQHVLgIiIAIiUDMEsvtXC0OEuK3tY7f7dy3uxMmuHhIbGxpc46R6d9FFM3tc7+o66XZ89Bu3a3eLv75t29tJnhlu+vRpbtSo/nHs2rXH13f46FE3fvw4X7ZQHW17f+/raGyod3PmXubz95WIvnd89Fu3/5NPfd7p0y5wF108s5dexejQVz26V5gA/Wln0gYnTp707Xb1vCt68If9Bx985G6++YuFhaTc+aD51876w4Rx49xV8+b26g9MAGn/tr0fJ3WOKrrf7N//SaLz79zBjo6CfRKV0OGT/Z962wrpkKK6LpURgV9uOeJ++kS7+5MVje4PF/f+f71tLSfdf/7+p+7wpz3/T+yEc89xC/9ogvvaLRPy1pisf/X4FHfZnNGpVvaV5+//7oj7u78+5PY8fdyNvXaEm3r1qF51hEI3/KTdvf7cEVeovoHonqpshVzs38uUuSFErAxSIxOHyUBF6urq8oML6UjiHOdcflnu92RQe+WVre5o8pP84xLHhqPbvu1T98H4j9yXvrSol4MLzWfQ+vDDj3xZnCJ18Ok6cdLNvnRWPit1dCRyLd/uxMHvTRzwF7/0hV4DrRViwKXcyWRS0NBY7yPwd99t9rYtWrQgL7tYHUK99XtxBGD++tZtCf8GN3XK5GQl5He+/xh/7uNwB5reeft9L4v+MCmZDNKmfL6QtOvUqed6cdb+9E36JX2YfsMErK9+ySRg+7Z3vAz6jfXn9oOdyYRhbl7VYnQYqF3KX3oC62/+JPnn6yfdf910wv1h98W9FGhNnG7z04f9df6nr6Vd7pi//vy1o91/2z7DX/7Vz464XZuOuZe+fKSg07U8Hy7vyuc51NHt7r99r9v1wrF8Pcfe7HbNbx72dby9st79YPXUfN38gkN9cVmH1/2/uE/c6uen97jPlzdey+k4Kvnnd2PdOfn7pvtziT3/qX1Gxf+f4op3utYyV189t0fEySD2i1+84j5s/shddOFM7+y2v/G2d7iXz7nMzZlzab5RiS52nFlqbkwGrrSEPBwuAyKDMPLydSTXLSJlEMThTms63y244Xov6p13k0E3iUSIqkMHGtaDbjjcq5LIavYluYfpVy9vdfsTp45MomnTgXIMxIV0SNNf1/onwAoIaf78eY5+0NHe6fmzOsIqCBMe+s/iAUS5bW17vcOl35jz3JWslGzf/nbiwH+d7w8mO+yb25I8rKrs2Pmb/MQxtsImAUzoGpPJgvVJtk6mN13gnbqPhCMdsOtXySTvnXeaE72+EIvV9zIk8PzGQ95p4ZROuNPu+Y2He0Suoco43J90f7bK19Z60q1a+rHb9+YJ9/z/Tsp947OId6Cmrv2LA97hUscPm8/PO2PqWP/YQfcPaxJnvLqnVByq6Y6j3/b6MTf/hrGpVc9bMdH9YM2U/L1Q900bO91tyxpSy1XKxard07XlWRqCWT+JJWHS9OkX+J+WiFJZLizkcMnHwEWaet65+WiVOohciEoYXEkMkqTZl3zO/yQRaRPl+Kg4GcDjRHkiGiJ1c7jkueTSnPNta8stU5sO0xL9bana7Ax1iOXre3EErG1smwFHSYItzozI88KLZxRcrUirpa0113azL5mVX0W5KJGBbPoDcklEviS2KywxWSThpNMS/YFJwJTEseJwSfSHiy7Mydj/Sa7PshpECnXAGaMDE8T2ZHKhVP4Enl/V7pVc1ZxshSWO9+frO4pWenrTSPfFFbmAYuc7J4ouF2ckYn3pjB5/1jKtR4RMHUS4obO38s/desA76e9szDnTpx8+EIsu+B25X/sPjf7+jre6CuarlBtV63RpAAYU0qjRuYCefSwSEYYNdv5CEWn/vtxydWN9z1kWAx7pyOHc4Mm+GsmcIr/jTG3pO61elgRJLA+GqbEx19HsfvvBXD72GsNkdWnw7IFlwF/M2VpBnC2JtmN5lokTEyic85EjR4qSj1MkNU7q2W+sDXGc9AlWOagn7Dc2CTQZcYXWL8af6dd23+qyySYRe5oOU6fk+m57e24wj+Xre/kQeCOJDPclzvL6ZOn28jlj3LyVE/zSMBFjsWnnWzlnO6GxrtgivfJ92JyTcV6yTI0zLCZZhP75lWPd0m9MdBd9deyAdX/7lZydF8z6bNm5mLrLMU9x1MpR80gnokFzfNwiimjv6PSzeds34/AK+6Z7k8MyfHJ7d+cmnef8JM9nyxlp5uYH4DMOPM5jzpTBkxQOnnzH4TN4mpywfNq18L4NuhaJjZ/Q80CWfe86UfmzwJhrKb9Pb5rml2HZbmBFg/5DH2EVgz15ln53/W6P32Yg0bdYirb+laarra7YpMvyhN/NgePUw9QzT+7gXnifswSkuK/Zd+tXpkOaflwzOYXu63r2BP7moVxk+JU7chPur9wx0b2xptMRMc5P2R897k4ly8+H8orv3d3l85OWfGvioA3a8W7O6U695rP94v6EEeWSlt03yf/8zkOT3aMvtLm/3XAodYl51y+PubVrDubF7tx+3H3w10d8dH82uvenZ6nuV43TNUdq4BjALpk9K9m7zR2i4jpLcOyr7diRnBBOIgwiYT7sf12SLP+FB0/iBogHzfj+2XxPW3I+G3kqOzgCOM/Lk0j2ww9/7fsEDnfBgvl+opabvE1O9kFf9/v1RLxbk0NXHLxasvTL/VYYR9FhgeHsW/0qpgxlT4AlXdtDnX/DGK8v+6FhxBjvj7Lnu/7WfT1sw2l94yeTi45Q08BMmJRbHB0/qbiI06JcInSLjNF1ohvpJwGHVk3pdTCKfeefJR9L6H3RknHuX/7Hs9M9zZ4srlWN0yWK5RUbZvccWGJJjWXleLAjCuDQFYnolGVjf9ApOHjSV0MUigosusDZE+0iO4xA4leawjpsPy52vhap2N6i2RJG9N6OM0vbo0YXP/vsy8Zavjdn7qXJ612X5tvPDjhdd90831dI7NfTZtOnne8jY5b1C50HoM1YYI77g61ejBo5Or/1YKskafzjaJY8tm0Sb1nYd3Pm+VWWM5Gxybf+NX5871dP0nTQtWwIrH88F/WNvbbO/fju/b2USIt2RyeO6r6t0/J5JzaMcE0zRrqJ9YNfWkbYxPqc0yUaLSbZPvS+X3f10N20eGZ9u/sXK3IRsMmb+6cT3L/+8RTX2XHavfBMp99DnrVgtF9Wr4ZUNU531MjcazzJol8SnVyfP7k8dcqUgst/DGQcaiHq9a9n7PukYF7e+d29OzmUdWb/1Rrfvtv+KwerOBTFflq4zGf7amlLkZYvt/ycOymLfFt2NKdse3XxIJvXIalbaWgI0CZw5lQ7B9foJzhgkrWXObW+tgd4X5y2Zz8+bHtb8qVfIY/JGnLspDT12ME5Iu60ZH2O15rCFO/9c1aAPhnvQ7N8Toq3K9Lq0rVsCBDl2rIwESCfOKWdBh6TvHJjUXGc/2y+35S8G/w3iUNHD3SbnjjyQsn2obmPjrz6E6efr2x3ty9r7BHtEkVPb8p9Pv/Qua75/xx1Lz3Y7iY0jujloGN5lfC9Kg9SMYjZu7lEvQxkDGibNm1x25JXc0Kn5aPdZEAi2SCW1nD2BzDY27Py/OS7X3pM9gBJLD2SeM3DEnuEJE6+WmIAt+sM3hxqQUcrh87vvPOBz04E738mgz+Dc5oO3DcdfGalsyZAGxF92sqIRZZ2QMn6gU2K0irkVTISf4zFVjJ27PiN39/HmZoDtxPH5th9mTOnlu0UM/XRf+1ENE7cTsXzChCJPPZHOKxu9qpJ9lqc//2MDvTdQlG6L6SUKQGLcpdvPN9t7P5cr8831+fOorA/WopUn0TMf/Bgbl/5+zP3esdr6cMPjrsf/unH7rt1e/wl24cupPuS1ZP9q09Eu32luzfk3vnFQYf19VWmnO8VnqaUs9ZF6MZrQOzz4lBxZLnXJUb5iJaPLdnaMt+FyXuwHKgqlHCMV1011//Bii2b/94PmHY6evaln8svY8+e/bnkvdoWf5ALJ0856qA+mwgQmdphHN6lZOC1Q168V8ygSlSS+0MZDT7KIiELGaEOFr1wyMcG8EI26HrxBHBe8StCTLx4L5btCKJQXvMhCo63MMJacIxMtniVbPPmX+T7A85y/vyr81npQzhLtjmQywSM9qffWPvbigyTrulNuX1kDnKxr8w7t+S1cmF/CHXg3XXrk1ROeaXyJMDyqkW58xemL61yGvinyw7k90fNEpaii00/u/uA4xOm+D3f8N6KJPr8/W+6/OGmfzNztz/gNDb58B4u6R8l+7fhPvTSAu8Ef2t5g68XZxovMYf1sayMgybvn9+1L/UPaxRraznkq3inS5TBQJN2+vi66+f5P4jRWN/oBxrexeXP/DGosT+HM+SVHyIJG9j6ahQcOXJ279rj/+zktGRPj8EyXjLmD2AQpeD0yTc9OdA1O/mYU0RnyjJ4WrJDXh8kh3hYHiQvf5qScmGKdSBCTtOhLzt0r38C9I9wokQJ2p6DeLw+xIQLJxwe1CskdX6yHzz13Cm+37CsfGHyHi3tGEbItDf9hvY/euioO5E4ZWt/c+r0cfqrbVVQH6sf/GEMImSWmXkViXJxf07TgUg47ruFbND10hMgquQA0qV9vJ5Dnj9ZN9m9/Ytjfon288mfc7z4K+Pcwtv736fnBLTrTnfOl16XOx9yzY1j3eFPTrvrI6f/6P+4wG36o0Pu//30iDu677Q7sveU+/xNDe4r/3SiX9ZmwoAef3xv+tYINNF9aeJMTYXr/2Cs+79JmUVf7/3ncnHQO7edcNf84/Q/qFH61hl8jXUtLS3dTU1Ng5cwwJJEEAcOtrvJkxozjcwYpIg2+etCWUSI1M+S40D/hu8AcVdt9uPHT/hVjPr6ia4h+dRKYnk5CSocTlTp7AmcPHXKffzxPj8GMCYNRfpuXXL4w9Wl/pGIoZAvGWdPgFPVnO7+4damYdn7LqRha2trcm67RhPLul3JH37PwuGCnOXnQn8SskabRGb3QyB30KrL/xMGJREQgcokULNOl6W9q68uvPQx3M35hRsXDHcVkl9lBFjeXrDw+iqzSuaIQG0RqMrTy7XVhLJWBERABESgUgjI6VZKS0lPERABERCBiicgp1vxTSgDREAEREAEKoWAnG6ltJT0FAEREAERqHgCcroV34QyQAREQAREoFIIyOlWSktJTxEQAREQgYonIKdb8U0oA0RABERABCqFgJxupbSU9BQBERABEah4AnK6Fd+EMkAEREAERKBSCMjpVkpLSU8REAEREIGKJyCnW/FNKANEQAREQAQqhYCcbqW0lPQUAREQARGoeAJyuhXfhDJABERABERgIAQ+3n1yINmHNK+c7pDilDAREIFaJzDjO8k/cXdd7lBHd62jKFv7d2474XWbPvOckusop1ty5KpQBESgmglcMn+0N2/Txs5qNrNibevsOO12PH3U1btRbnpT6f+7rZxuxXYdKS4CIlCOBL61vCEZzke4F5Z3KNotwwb6n+vak3WI0+6bGydnop2cbibYVakIiEC1EqhvGOEWr270S8xr1xyoVjMr0q5/aD7uXrj7oI9yb1o8PhMbSu50R47MhfPHjh3PxGBVKgIiIAJG4Pjx3N7eqFGjhhQK0e551452Lz3Y7v77X8rxDincQQp74/Vj7oEr9vrS328+z02srxukpLMrVnKnO3r0KDdm9Gh39Ngx19Fx6Oy0V2kREAERGCQBHG5n5yE3oq7OjRs7ZpBS0osR7T646QI30Y10L6w46L5bt8c9v/GwlpvTcQ3rVZzt3Uva3I8XtPl6lm88310+Z2jbeyAG1LW0tHQ3NTUNpMxZ5z116pTbv/9TdzL5WZd0+BEjSu77z9oGCcieAP1I/Sf7dqhUDeg/pMmTGt348eOGzYx1aw66TXd/Fu3WJ45YqTQEjiV7t+zfki5aMs79+7+amsnhKbO2tbXVZeJ0UYAO35HMMru6ulx3t47Wl6YLqhYREAEjMDpZcZs4Ybwb6qXlNMJtrSfdtteOuZ//1SF3ZO8pd+xNjXlpnIb62thr69wVfzzeLfrqeDf/huyiW7MrU6c71HAlTwREQAREQATKmQBOV+u65dxC0k0EREAERKCqCMjpVlVzyhgREAEREIFyJiCnW86tI91EQAREQASqioCcblU1p4wRAREQAREoZwJyuuXcOtJNBERABESgqgjI6VZVc8oYERABERCBciYgp1vOrSMuV/BVAAAMSUlEQVTdREAEREAEqoqAnG5VNaeMEQEREAERKGcCcrrl3DrSTQREQAREoKoIyOlWVXPKGBEQAREQgXImIKdbzq0j3URABERABKqKgJxuVTWnjBEBERABEShnApk53Y6ODrdnzx7P5v333++XEXnjT7+FlGFQBGibYtpkUMLLsBC2YnMpU60x7o/tUPPYvHmze+211/qrVvdFoOQEMnO69957r7vvvvu8I126dGmfDwgP0I033tjrc8011zjkmPMuOb0hrLDUg35fqj/88MP9tklf5SvpHgMz/Y++WMpEv6XeWprc9MV3zZo1ngfP+tkm2vSuu+5yd9xxR8knU2eru8pXP4HM/pvyypUr/UPGw7Fw4UL/KZRsYJo5c6ZbsGCBz4aTam5udhs3bnRbtmxxGzZscFdccUUhEWV9HQ5MHF5++WXX0NCQua42iamGyUyxMEs96bH6Sl1vsTxKnW8oeTAOME5ceeWVZfE8lZql6itvApk4XaJWEg4Gh8pPotYVK1a45cuXFyTGg/T444/3uM8M+YknnvDOe9OmTRX5kDHg2KccnG7BBtANEagAAjxDzzzzTAVoKhVrkUAmTvf+++/3TsaW9JiZ3nLLLYOKVImYWU7aunWrX5q69dZbfTsiH4fMdR7CuXPnOvKaU+P+unXrfJRMsvtE05aQSx4iaq6jo8knD/eos6WlpeB9ZDzwwAP5upCzbNkyd/PNN3u9n3vuufwSGMu66Iee5CtGx7yyZ36Jy8yYMcPLC1cB+rPLZBpDVhPS7L/zzjv9dSZKsIbDY4895q9hl7FBBxiEbGO9+W5lCvEOyxCFw4sVkniihi7oTp3ko53oB1xLs6OQLuhTbNuiM5PGtBUb04G+ZvXHdaIb9dE2Zv/ixYt72RaWg+/69esdzxO/I5/+Qz+lf1n/tmth3437CRPa8PmgbNh3Q/us38IUe9CT+vi9GN7Wr/rigZ2hLL7Hz2jYB+jf6NzZ2elXvaxv0gdiWQPpB3E76bsInC2BTJwuDygDIw8pgxQDhg3WgzGIB44BgIHBHjD2c3goGYB4yBicuM8DSeI+UTb119fX+2VqPm+99ZYfuCyC5ncbTJgkIItBngEfmebQqYv7DNIMviTuc90cP3kZsPigB/WbMyB/qL/pSHnsC3WkbNrgThn0wg6zC/ksX7N0jR2hXQxipjdljI1XPkmsIJDIZ3qH9tmgyU/kmFO1OtCbsujA6kZfehfSi7L0jTjBknq5jzPhOwk90NsmGdhOm/Ed5292WN+L5fJ9IG1Lm1Gn1R/L4571RfJ0d3f7fhLnx/64Pz3yyCNetjmOWDb9B3uQTwrbyfpeeM1sDnXiWUSn+PkI+y780JefPKusKpFgiiz0RBdWoWLepmPI27ZTjAfl4xTqGPb/cCuJPHxHL5NhOnGdZOxivYrpB7FO+i4CQ0IgGUSTZ670ae3atd3JzLS7vb29Oxnkunfv3l1QidWrV3fPmjWr+5577knNE98nH/mRb8nyvPrqq74u7i9ZsiR/n2svvvii/273yRPq9eyzz/rvyODeokWLvP5WZt68ef66leE+35MBNV/Pbbfd5q9hvyXLF9ZlNoRl0Y+yt99+e75s/IvpZdeRid6mo90P64ID17GLZDqG9ZDf7DObKcOH9gs5WB12jZ+ULaS38YaD6UWZWK/YVtMzZGTczGaYvffee/mixtD6krWl6TbQtk0iqrztsX58Rw94kM8S+hg7Y279yvIYM7gVStanw35IPXEfsGvW5/p7PqjP+mRsn10Pn62QcX+8jUehZ8faLa3/oz+2xW3FNSuH7tafuG4Jvaw/ci3uB/mM+kUEhpEA/jaz08tEiyyzMttlecyipLOZSTQ2NvriFjEmD5lfsuNjiZk3dfHhd06R2n1m/SQ7QWlLZlaWiIpydp8o2iIWrrPMRmIWHSa7zjWLUJmd95XMhrAs+lAf8pnlpyX04B7La2aXLStiL4loIOSNHSSLDkwu7WOJ/ERNpNg+a0fuWR1ElXCyJWP0tnt5oWd+MZ6hXuQ322O9rDzLoSSWFUnYbUvhZrMxs35gOrAMmZbMtmLbllWNOGoN5VobGGPuYadF4pYXvlwLmXGvv35CnlBXa6OwPrtmsvp6PvpqW+t32Bv2DRibPYV4s0JCMvlhn8F2OyBpPKzNQzusTWMdqTtcOjcZ4U/0wv64H6Tl1TURGE4CmSwvD7VB9hCmDS6hc+IBNmfDUifLkAxyDNQk7rNEZoMTS7ppye7Hg619jx1inC9NZnytrzr6GojNLpjYwIXz6ssu049JSl+pkB2hAzfdGGTDwZFBtVB5qzPm3Z9eTGCQyxIz7WjO25b3kZtERf4+AzP9wwb/Qgyt7WJdh7Jt0Su2lYmDLecXw6qvdurvXuh84+cjbTIQy4vZhPcL8e5PRiwzrf+HecL2i8vGdfG9WL3SyuqaCAwlgYp3uuyFMagy8FsUSZTFYMJsutDeJ/nZK+RD9MM+G87Xolkg2wAdA2dgIm98P4wk4zID/W42YIc5NX63QTJ0dKFss4tr6MNeF84Xh2RlYr3NOcYyiYgs+keeRUh9DXImg5/xSfNCDGygj/UqhifRLnuaOCwGYuoNIyL6Bn3A9quxNY6UQr2Gum3RBx1ilrGt9Cf0t713dOJE/3AkJh/9PR9p9VrboiefuB/AtT/eVsb6ktUTf6cudKQP2DMc9v247jR97VoxevVVXvdEYCgJVJTT5cHEycYPE9/DJWoGXR5+HKkd0LJlO1uSZJDGKccze2ThaHBWPKz8JFLk4WdpimVx5FOe6ATniAzkm/MPHVUxjWUOFnnItuWy0AYGuXi5OJZtkwezi4HJIip+Z/BiMMMu9CeiooxF+vESndlHGeyzCUChiQz6xHXAznTn51NPPRWr7e2N9UJH9ELvvniG0S6Cw0NXNjBjoznw/v4IxlC3LfKwI41lLxDJBThjL/nDaC4t72CvoRMTsfj5oG76dyHetJGtLFCWfoaO6Eo7WLmQd3xIijwc0qIv4/ytb1n7mE3IpqzpSD22ElBIv0I8BtMPCsnSdRE4WwIV4XRthh0+zGY4D3v8qgaDCg6Ch9ROdpIfOeZkeYjjAZhy5lCIjDilyYDCh8TDS3l+MrgzKISDCvKffPLJPtskbYbOCUvqYjDiwwSCwS/NBvTjflqi/kJ22UCFXTAJJy/oFE5aTEfKhIyQH55wJl+aYwjrsHrIG7/aYzZwr5BexZxqt2gX/cKJA21FnbQfp1dJ2ARXszFuD74Ptm3T2sT6J33RWFo/DB0NfZj71qdsImLRXZrstGuxPeSJr8GA+vp6PtJkc43VC/pPuJyPfJssmtyQd2hnIR5cZ6JlutJurAbQduEzTD3W/2O7TGe7buNGX/2gkJ26LgLDRaAu6djdTU1NwyV/yOTGS4I8WDxUhR48KrblKRwDD545XFMKmTaopd0nn+WxgTKuL7xvDtvkI5tPeB1dKMO1UBbXGZzIz6Bo9/qzIQ3wQOyinlgX6jRmVj/1xPnQl3yx3THftDrS9A55D6SMlaONbKAN5cdthMMIbYm/x/ojM7YxrW0L2cR18qOHyQoZWzljje30R9hyLa7b8qf1pWKvmU7WhrGN/dlnTNPaqT/eYd38jn3W/+Mo1phYf4yf4b7azmQbr2L0srz6KQLDQaC1tdVVjNMdDgCSKQIiIAIiIAKlIoDTzeyVoVIZqXpEQAREQAREoFwIyOmWS0tIDxEQAREQgaonIKdb9U0sA0VABERABMqFgJxuubSE9BABERABEah6AnK6Vd/EMlAEREAERKBcCMjplktLSA8REAEREIGqJyCnW/VNLANFQAREQATKhYCcbrm0hPQQAREQARGoegJyulXfxDJQBERABESgXAjI6ZZLS0gPERABERCBqicgp1v1TSwDRUAEREAEyoWAnG65tIT0EAEREAERqHoCcrpV38QyUAREQAREoFwIyOmWS0tIDxEQAREQgaonIKdb9U0sA0VABERABMqFgJxuubSE9BABERABEah6AnK6Vd/EMlAEREAERKBcCMjplktLSA8REAEREIGqJyCnW/VNLANFQAREQATKhYCcbrm0hPQQAREQARGoegJyulXfxDJQBERABESgXAiMPHaqzn1vc3e56CM9REAEREAERKAqCdx/lXMjsey1d+uq0kAZJQIiIAIiIAJlQYB15cTp/n+fV5kuJQYsyAAAAABJRU5ErkJggg==;imageBorder=#B266FF;strokeWidth=2;" parent="9RFhBGHadp-DHh5qUiH--1" vertex="1">
          <mxGeometry x="199.99999999999994" y="420" width="466.03" height="170" as="geometry" />
        </mxCell>
        <mxCell id="9RFhBGHadp-DHh5qUiH--14" value="vv-viamais-carrinho-api" style="rounded=0;whiteSpace=wrap;html=1;verticalAlign=middle;fillColor=#f8cecc;strokeColor=#b85450;" parent="9RFhBGHadp-DHh5qUiH--1" vertex="1">
          <mxGeometry x="908.05" y="690" width="155.81" height="60" as="geometry" />
        </mxCell>
        <mxCell id="9RFhBGHadp-DHh5qUiH--17" value="persistir desconto" style="edgeStyle=orthogonalEdgeStyle;rounded=0;orthogonalLoop=1;jettySize=auto;html=1;startArrow=none;startFill=0;fillColor=default;exitX=0.5;exitY=1;exitDx=0;exitDy=0;fontSize=12;" parent="9RFhBGHadp-DHh5qUiH--1" source="9RFhBGHadp-DHh5qUiH--16" target="9RFhBGHadp-DHh5qUiH--14" edge="1">
          <mxGeometry relative="1" as="geometry">
            <Array as="points">
              <mxPoint x="688.05" y="720" />
            </Array>
          </mxGeometry>
        </mxCell>
        <mxCell id="9RFhBGHadp-DHh5qUiH--16" value="" style="ellipse;whiteSpace=wrap;html=1;aspect=fixed;" parent="9RFhBGHadp-DHh5qUiH--1" vertex="1">
          <mxGeometry x="678.05" y="770" width="20" height="20" as="geometry" />
        </mxCell>
        <mxCell id="9RFhBGHadp-DHh5qUiH--28" value="import&lt;br&gt;&lt;br&gt;remote component" style="edgeStyle=orthogonalEdgeStyle;rounded=0;orthogonalLoop=1;jettySize=auto;html=1;entryX=0.75;entryY=0;entryDx=0;entryDy=0;fontSize=12;startArrow=none;startFill=0;strokeWidth=1;fillColor=default;" parent="9RFhBGHadp-DHh5qUiH--1" source="9RFhBGHadp-DHh5qUiH--23" target="9RFhBGHadp-DHh5qUiH--3" edge="1">
          <mxGeometry relative="1" as="geometry" />
        </mxCell>
        <mxCell id="9RFhBGHadp-DHh5qUiH--23" value="&lt;span&gt;Negociação&lt;/span&gt;" style="ellipse;shape=cloud;whiteSpace=wrap;html=1;fillColor=#dae8fc;strokeColor=#6c8ebf;" parent="9RFhBGHadp-DHh5qUiH--1" vertex="1">
          <mxGeometry x="486.05" y="220" width="128" height="84" as="geometry" />
        </mxCell>
        <mxCell id="9RFhBGHadp-DHh5qUiH--32" value="v1.0 - Desconto/Carrinho" style="text;html=1;strokeColor=none;fillColor=none;align=center;verticalAlign=middle;whiteSpace=wrap;rounded=0;fontSize=22;fontStyle=1" parent="9RFhBGHadp-DHh5qUiH--1" vertex="1">
          <mxGeometry x="718.05" y="350" width="280" height="30" as="geometry" />
        </mxCell>
        <mxCell id="9RFhBGHadp-DHh5qUiH--35" value="vv-viamais-calculadora-pagamento-api" style="rounded=0;whiteSpace=wrap;html=1;verticalAlign=middle;" parent="9RFhBGHadp-DHh5qUiH--1" vertex="1">
          <mxGeometry x="908.05" y="790" width="155.81" height="60" as="geometry" />
        </mxCell>
        <mxCell id="9RFhBGHadp-DHh5qUiH--36" value="consultar resumo" style="edgeStyle=orthogonalEdgeStyle;rounded=0;orthogonalLoop=1;jettySize=auto;html=1;startArrow=none;startFill=0;fillColor=default;exitX=0.5;exitY=1;exitDx=0;exitDy=0;fontSize=12;entryX=0;entryY=0.5;entryDx=0;entryDy=0;" parent="9RFhBGHadp-DHh5qUiH--1" source="9RFhBGHadp-DHh5qUiH--16" target="9RFhBGHadp-DHh5qUiH--35" edge="1">
          <mxGeometry relative="1" as="geometry">
            <mxPoint x="660.9599999999998" y="829.97" as="sourcePoint" />
            <mxPoint x="880.96" y="820.0022580645161" as="targetPoint" />
            <Array as="points">
              <mxPoint x="688.05" y="820" />
            </Array>
          </mxGeometry>
        </mxCell>
        <mxCell id="9RFhBGHadp-DHh5qUiH--38" value="" style="edgeStyle=orthogonalEdgeStyle;rounded=0;orthogonalLoop=1;jettySize=auto;html=1;fontSize=14;startArrow=none;startFill=0;strokeWidth=3;fillColor=#d5e8d4;strokeColor=#82b366;exitX=1;exitY=0.5;exitDx=0;exitDy=0;entryX=0;entryY=0.5;entryDx=0;entryDy=0;" parent="9RFhBGHadp-DHh5qUiH--1" source="9RFhBGHadp-DHh5qUiH--2" target="9RFhBGHadp-DHh5qUiH--16" edge="1">
          <mxGeometry relative="1" as="geometry">
            <mxPoint x="550.0699999999999" y="750" as="targetPoint" />
            <mxPoint x="298.04999999999956" y="750" as="sourcePoint" />
          </mxGeometry>
        </mxCell>
        <mxCell id="9RFhBGHadp-DHh5qUiH--44" value="&lt;span style=&quot;font-size: 12px&quot;&gt;consultar alçada&lt;/span&gt;" style="edgeStyle=orthogonalEdgeStyle;rounded=0;orthogonalLoop=1;jettySize=auto;html=1;entryX=0;entryY=0.5;entryDx=0;entryDy=0;fontSize=14;startArrow=none;startFill=0;strokeWidth=1;fillColor=default;" parent="9RFhBGHadp-DHh5qUiH--1" source="9RFhBGHadp-DHh5qUiH--41" target="9RFhBGHadp-DHh5qUiH--43" edge="1">
          <mxGeometry relative="1" as="geometry" />
        </mxCell>
        <mxCell id="9RFhBGHadp-DHh5qUiH--41" value="" style="ellipse;whiteSpace=wrap;html=1;aspect=fixed;" parent="9RFhBGHadp-DHh5qUiH--1" vertex="1">
          <mxGeometry x="758.05" y="495" width="20" height="20" as="geometry" />
        </mxCell>
        <mxCell id="9RFhBGHadp-DHh5qUiH--43" value="vv-viamais-desconto-api" style="rounded=0;whiteSpace=wrap;html=1;verticalAlign=middle;" parent="9RFhBGHadp-DHh5qUiH--1" vertex="1">
          <mxGeometry x="928.05" y="475" width="155.81" height="60" as="geometry" />
        </mxCell>
        <mxCell id="9RFhBGHadp-DHh5qUiH--46" value="Carrinho - Simulador" style="rounded=0;whiteSpace=wrap;html=1;verticalAlign=middle;" parent="9RFhBGHadp-DHh5qUiH--1" vertex="1">
          <mxGeometry x="1727.98" y="720" width="310.07" height="100" as="geometry" />
        </mxCell>
        <mxCell id="9RFhBGHadp-DHh5qUiH--47" value="comunicação desconto x carrinho" style="edgeStyle=orthogonalEdgeStyle;rounded=0;orthogonalLoop=1;jettySize=auto;html=1;entryX=0.5;entryY=0;entryDx=0;entryDy=0;exitX=0.5;exitY=1;exitDx=0;exitDy=0;startArrow=classic;startFill=1;fontSize=12;" parent="9RFhBGHadp-DHh5qUiH--1" source="9RFhBGHadp-DHh5qUiH--49" target="9RFhBGHadp-DHh5qUiH--46" edge="1">
          <mxGeometry relative="1" as="geometry">
            <mxPoint x="1507.9900000000002" y="280" as="targetPoint" />
            <Array as="points">
              <mxPoint x="1883.0500000000002" y="640" />
              <mxPoint x="1883.0500000000002" y="640" />
            </Array>
          </mxGeometry>
        </mxCell>
        <mxCell id="9RFhBGHadp-DHh5qUiH--48" value="" style="edgeStyle=orthogonalEdgeStyle;rounded=0;orthogonalLoop=1;jettySize=auto;html=1;fontSize=14;startArrow=none;startFill=0;strokeWidth=3;fillColor=#d5e8d4;strokeColor=#82b366;exitX=1;exitY=0.5;exitDx=0;exitDy=0;entryX=0;entryY=0.5;entryDx=0;entryDy=0;" parent="9RFhBGHadp-DHh5qUiH--1" source="9RFhBGHadp-DHh5qUiH--49" target="9RFhBGHadp-DHh5qUiH--65" edge="1">
          <mxGeometry relative="1" as="geometry">
            <mxPoint x="2198.05" y="560" as="targetPoint" />
            <mxPoint x="2538.05" y="700" as="sourcePoint" />
          </mxGeometry>
        </mxCell>
        <mxCell id="9RFhBGHadp-DHh5qUiH--49" value="" style="shape=image;verticalLabelPosition=bottom;labelBackgroundColor=#ffffff;verticalAlign=top;aspect=fixed;imageAspect=0;image=data:image/png,iVBORw0KGgoAAAANSUhEUgAAAd0AAACuCAYAAABz/Ne1AAAABHNCSVQICAgIfAhkiAAAIABJREFUeF7tnQ2QldWZ508j39DdIKjQoBLRCH6g4pYwFRyT2uAmkNTMRBN1s6kJ7JZudrcWXHWrkqwfaMxUje6AU/uls0B2nCrcVbayVRJHmGwmalaxSvC7dSIkAbobAwrdzXcDve/vXJ7r6dPv7b7ddN/3fvxP1a3u+77nPOd5fue85znPOeftrmtpaemeNGmSUxIBERABERABERg+AgcPHnQjhk+8JIuACIiACIiACIQERvKl89BhUREBERABERABERhmAt7p1tdPHOZqJF4EREAEREAEapvAwQMHnHe648eNq20Ssl4EREAEREAEhpkATld7usMMWeJFQAREQAREwAjI6aoviIAIiIAIiECJCMjplgi0qhEBERABERABOV31AREQAREQAREoEQE53RKBVjUiIAIiIAIiIKerPiACIiACIiACJSIgp1si0KpGBERABERABOR01QdEQAREQAREoEQE5HRLBFrViIAIiIAIiICcrvqACIiACIiACJSIgJxuiUCrGhEQAREQARGQ01UfEAEREAEREIESEZDTLRFoVSMCIiACIiACcrrqAyIgAiIgAiJQIgJyuiUCrWpEQAREQAREQE5XfUAEREAEREAESkRATrdEoFWNCIiACIiACMjpqg+IgAiIgAiIQIkIyOmWCLSqEQEREAEREAE5XfUBERABERABESgRATndEoFWNSIgAiIgAiIwMisE77//vtuzZ4+7+eabh0WFjo4Ot27dOjdz5kx36623DksdQyUUXeERp4aGBnfFFVfEl/VdBERABESgQglk5nTvuusu73Qfe+yxYXGKr732mnviiSd8s+C4ytl5Pfzww27jxo2pXQjHu3jxYrdy5Uo/gajGxKQDO5VEQAREoNoJZOZ0cbjDmczRMpiX+4BuLHCqCxYs8FhwRC0tLT4CxiFv3brVbdiwoeocL7YvXbrUt9GmTZvKvq2Gs89KtgiIQPUTyMzpDjdaHBiDeCUlHO7jjz/eQ2Wc0h133OFXBfj58ssvV5JJ/eqKXUww7FPuE6R+DVIGERABEeiDQFk5XZaEGYTZg2UQfu655/xPota0vV/yEwmSBye7cOHCHpEg5Um2p2sykUV+yvPhPt+5jzyTiQOwvH0wzN8KdR5o2ULy0YsleHO8mzdv7sXC7EAGDPjEKWRlqwDxcjX6I98i7zRZxeShPOzhCgeTGTMx1qar7fOjV6hbaF+hvhDbq+8iIAIiUI4Eysrpss/LoM6yKoeg+N0SDoDlVUtr1qzJ79mGYG2PmIH6vvvu87dwnAz4yGSfl8G9ubm5x+ElBnPyh3VSlvxPPvlkqiML603T55FHHnHLli1zDzzwQJh1wL9jO1EwS8yh0w2jYBOKvnGd2GUTEMsHD1jZZAYmts8eyrIVA/KTB+cfMqI+8oRL37BgSZw2oC3NiSN3/fr1+XZkWTlM1E+65ZZbfMSfZh/3qY82Ked9+h6G6YsIiIAInCFQVq8M2WDOoE2UxMBqUWoY7eB4bLAnDwP+8uXL/WCMM41T7Ei3bNniB3QG9/vvv9/XgUMhIcdkcoCJsjjPvhIOzQ5tceAJfXBoOCqcjN3rS0Z/9yzyw4lZsugXnVl2ZjkdR0Sd5mRhxe/mqIyVOVFkwcIcLuXRHQY4enOY5gDhgaPmPh/kcs8mOKEdTBK4jzw4Uyd50c+u0waWsIN8/CSZfegUtonpG7drWLd+FwEREIGyJJAM4t1ZpFmzZnXzefbZZ/PV27V77723h0rz5s3zedeuXeuv85PvS5YsKaj6q6++6vPw2b17t8+3evXqXtdCAe3t7T3kUc5kxPfCjOhBvlhvqw/9+0q33XabL3/PPfcUzMY98tx+++0+j9kXy7brls90sO9WQWiP8Vy0aFF3bKexW7Vqla+fPGF677338oyom2S6xnlNRqhLWjsh48UXX0xtK/SL+0MPhfRFBERABMqUAP62rJaXbVZiJ3jtOxESUY1FNiy3WqR24403+ojM9h8tIuxrhhPv/YZ5iQqJpPiEkRS/U2dasiiZyDhMRNBEuZRFXjG6pcnnWhzVEflbSpx9/nfLZxEqtqID+WNWZg/RMImIMrbRdDYb47ahjEW75An3k+Pl31h2XumUX6y+uK2QAWeWry1PSnFdEgEREIGyJFBWy8vFEmIwZynVDlwxALO8iVOJ9y6LlYnjueaaa7wclkXLLZlOsdOLHRnfWbK1JVqcFkvPMSuWbs3Zmq319fX9mt3Y2NhvnoHI609YPNnoL7/ui4AIiEA5EyjLSLcYYLYnyH4hEQ/7wOzVEtXZPnAxcixPuCe7YsUKfxm5yOwvWaRn0aXlDyOx2Dn2JzO8j23mfMw2i0C5Hr9mFMsuxIq9VTudjVNP2w83WUx0yBNHlxbFk+9sIvlYZ+MVMyWfXRvK+uL69V0EREAEhoNARUa6nEJmSdUGXxyCLWuejXMDcLJnmOdcbNRsh4FwYqYTP+0AFo6yGL1wYHZgjJ/Un+x/9jikZY7GTmRTJjyoxffwJHVfrGJHjkMNZVH/nXfe6R2+nXJGL2SSrC5+Ry/LkwdYxC+h4wwdrDGL7cM2i/oHM7kqQiVlEQEREIFhI5BZpIsTskF/oNYx8BOBsqyMHD42YA9m4Kd+HCdOB8fJoJ4WYRXSk6VcdKEMS9yhbTgVi5wLlTeHjE1pkTX3ORXNq0CWuMZJX5bDcUQ4wjQOxbBiwoINyEAWnzDRTuTBDpwykwlzztaG6DKYBB97HYolb75jJ/pQH3WZfci3+qr5z2IOhqPKiIAIVAaBc5KTpg8Vs5c31Obs37/fjRkzxg+u5nQ6Ozt7XbN6d+7c6d93Je/Xv/51PzgzAJ84ccJnYeD+3ve+l9/LJN/27dvdhRde2OPam2++6ctfd911PUziu8lEt2uvvdY99dRTDp2QZXukaRzMjlAnfv/2t7/tX5c577zz0orlr1F+3759vv7wg6MjmmP5ODygZAWJ8LmPjsePH/cfOFAvTgm5hVg9+uijPZbhb7rpprz9dXV13mZk/+hHP3KzZ8/2VdqhJuOOfA41xfox+YAhelhZyiMzjT/1GDvqvvLKK3378AntQwb2xbobD/0UAREQgXImwFhdxxHmpqamctZTuomACIiACIhAxRNobW11FbmnW/HkZYAIiIAIiEBNEpDTrclml9EiIAIiIAJZEJDTzYK66hQBERABEahJAnK6NdnsMloEREAERCALAnK6WVBXnSIgAiIgAjVJQE63JptdRouACIiACGRBQE43C+qqUwREQAREoCYJyOnWZLPLaBEQAREQgSwIyOlmQV11ioAIiIAI1CQBOd2abHYZLQIiIAIikAUBOd0sqKtOERABERCBmiQgp1uTzS6jRUAEREAEsiAgp5sFddUpAiIgAiJQkwTkdGuy2WW0CIiACIhAFgTkdLOgrjpFQAREQARqkoCcbk02u4wWAREQARHIgoCcbhbUVacIiIAIiEBNEpDTrclml9EiIAIiIAJZEJDTzYK66hQBERABEahJAnK6NdnsMloEREAERCALAnK6WVBXnSIgAiIgAjVJQE63JptdRouACIiACGRBQE43C+qqUwREQAREoCYJyOnWZLPLaBEQAREQgSwIjMyiUuo8fbrbHTp02B05ejQrFVSvCIhADRMYM3q0q6+f6EaOPGfYKRzq6HbPrDvofruty+15+viw16cKcgQmLx3pzrtslPsnd0x0198wtiyw1LW0tHQ3NTWVVJmTJ0+5/Z986k6dOuVG1NW5Eeco4C5pA1RBZadPnXanu7vVf6qgLbMygXGINHlSoxs/ftywqGHO9oW7D+bl17tRw1KXhPYmcMydcl3utL8B9z/bM81Nn5FZrOlaW1tdJrWbw21IZpnMNJVEYKAEjh8/4SduEyZOcPQjJREYKIETJ7p8H2rv6HTjxo11dUkAMJSpreWkW/W1j92+N0/4Af+r6xrc0lvr3cT6oa1nKHWuRlnbXj/u/nZDp3tjTaf7dzNb3D/bONUt/caEzEwteYhJRyfCZWYph5tZu6tiEah5AqNHj/Jj0OnTp93hI0O7zUWE+/2Zbd7h3vTQJPeT7pnutmUNcrgZ9Lr5N4xxP1g91f1w63TXndS/7pbfu22vH8tAk1yVJXe6OFwS+ylKIiACIpAlASJcUldX15CqsfYvDrhOd9ItWTPZ/dsHJw+pbAkbHIH5yZ7uquZpyZrDCPeXC/Y7JkZZpJI73e5kH05JBERABKqVAMvKL61q90vK/3zFpGo1syLtunzOGLd4dWMyIepyz6xvz8SGkjvdTKxUpSIgAiJQIgK/3HLE1/TNjYpwS4R8QNV8a3mDj3ZfWXloQOWGKrOc7lCRlBwREAERSAhs/V+HPYebvjxePMqQQH3DCDdv5QQf7ba15rY7S6mmnG4paasuERCBqidw4IWTfml5YoNOKZdrY19wce7FnbY9J0uuopxuyZGrQhEQAREQgSwJXHBhJm/LepPldLNsedUtAiIgAiJQUwTkdGuquWWsCIiACIhAlgTkdLOkr7pFQAREQARqioCcbk01t4wVAREQARHIkoCcbpb0VbcIiIAIiEBNEZDTranmlrEiIAIiIAJZEpDTzZK+6hYBERABEagpAnK6NdXcMlYEREAERCBLAnK6WdJX3SIgAiIgAjVFQE63pppbxoqACIiACGRJQE43S/qqWwREQAREoKYI1KzTbW/vcO+83VxTjS1jRUAEREAEsiVQs063rfVjt3Pnb92RI0ezbQHVLgIiIAIiUDMEsvtXC0OEuK3tY7f7dy3uxMmuHhIbGxpc46R6d9FFM3tc7+o66XZ89Bu3a3eLv75t29tJnhlu+vRpbtSo/nHs2rXH13f46FE3fvw4X7ZQHW17f+/raGyod3PmXubz95WIvnd89Fu3/5NPfd7p0y5wF108s5dexejQVz26V5gA/Wln0gYnTp707Xb1vCt68If9Bx985G6++YuFhaTc+aD51876w4Rx49xV8+b26g9MAGn/tr0fJ3WOKrrf7N//SaLz79zBjo6CfRKV0OGT/Z962wrpkKK6LpURgV9uOeJ++kS7+5MVje4PF/f+f71tLSfdf/7+p+7wpz3/T+yEc89xC/9ogvvaLRPy1pisf/X4FHfZnNGpVvaV5+//7oj7u78+5PY8fdyNvXaEm3r1qF51hEI3/KTdvf7cEVeovoHonqpshVzs38uUuSFErAxSIxOHyUBF6urq8oML6UjiHOdcflnu92RQe+WVre5o8pP84xLHhqPbvu1T98H4j9yXvrSol4MLzWfQ+vDDj3xZnCJ18Ok6cdLNvnRWPit1dCRyLd/uxMHvTRzwF7/0hV4DrRViwKXcyWRS0NBY7yPwd99t9rYtWrQgL7tYHUK99XtxBGD++tZtCf8GN3XK5GQl5He+/xh/7uNwB5reeft9L4v+MCmZDNKmfL6QtOvUqed6cdb+9E36JX2YfsMErK9+ySRg+7Z3vAz6jfXn9oOdyYRhbl7VYnQYqF3KX3oC62/+JPnn6yfdf910wv1h98W9FGhNnG7z04f9df6nr6Vd7pi//vy1o91/2z7DX/7Vz464XZuOuZe+fKSg07U8Hy7vyuc51NHt7r99r9v1wrF8Pcfe7HbNbx72dby9st79YPXUfN38gkN9cVmH1/2/uE/c6uen97jPlzdey+k4Kvnnd2PdOfn7pvtziT3/qX1Gxf+f4op3utYyV189t0fEySD2i1+84j5s/shddOFM7+y2v/G2d7iXz7nMzZlzab5RiS52nFlqbkwGrrSEPBwuAyKDMPLydSTXLSJlEMThTms63y244Xov6p13k0E3iUSIqkMHGtaDbjjcq5LIavYluYfpVy9vdfsTp45MomnTgXIMxIV0SNNf1/onwAoIaf78eY5+0NHe6fmzOsIqCBMe+s/iAUS5bW17vcOl35jz3JWslGzf/nbiwH+d7w8mO+yb25I8rKrs2Pmb/MQxtsImAUzoGpPJgvVJtk6mN13gnbqPhCMdsOtXySTvnXeaE72+EIvV9zIk8PzGQ95p4ZROuNPu+Y2He0Suoco43J90f7bK19Z60q1a+rHb9+YJ9/z/Tsp947OId6Cmrv2LA97hUscPm8/PO2PqWP/YQfcPaxJnvLqnVByq6Y6j3/b6MTf/hrGpVc9bMdH9YM2U/L1Q900bO91tyxpSy1XKxard07XlWRqCWT+JJWHS9OkX+J+WiFJZLizkcMnHwEWaet65+WiVOohciEoYXEkMkqTZl3zO/yQRaRPl+Kg4GcDjRHkiGiJ1c7jkueTSnPNta8stU5sO0xL9bana7Ax1iOXre3EErG1smwFHSYItzozI88KLZxRcrUirpa0113azL5mVX0W5KJGBbPoDcklEviS2KywxWSThpNMS/YFJwJTEseJwSfSHiy7Mydj/Sa7PshpECnXAGaMDE8T2ZHKhVP4Enl/V7pVc1ZxshSWO9+frO4pWenrTSPfFFbmAYuc7J4ouF2ckYn3pjB5/1jKtR4RMHUS4obO38s/desA76e9szDnTpx8+EIsu+B25X/sPjf7+jre6CuarlBtV63RpAAYU0qjRuYCefSwSEYYNdv5CEWn/vtxydWN9z1kWAx7pyOHc4Mm+GsmcIr/jTG3pO61elgRJLA+GqbEx19HsfvvBXD72GsNkdWnw7IFlwF/M2VpBnC2JtmN5lokTEyic85EjR4qSj1MkNU7q2W+sDXGc9AlWOagn7Dc2CTQZcYXWL8af6dd23+qyySYRe5oOU6fk+m57e24wj+Xre/kQeCOJDPclzvL6ZOn28jlj3LyVE/zSMBFjsWnnWzlnO6GxrtgivfJ92JyTcV6yTI0zLCZZhP75lWPd0m9MdBd9deyAdX/7lZydF8z6bNm5mLrLMU9x1MpR80gnokFzfNwiimjv6PSzeds34/AK+6Z7k8MyfHJ7d+cmnef8JM9nyxlp5uYH4DMOPM5jzpTBkxQOnnzH4TN4mpywfNq18L4NuhaJjZ/Q80CWfe86UfmzwJhrKb9Pb5rml2HZbmBFg/5DH2EVgz15ln53/W6P32Yg0bdYirb+laarra7YpMvyhN/NgePUw9QzT+7gXnifswSkuK/Zd+tXpkOaflwzOYXu63r2BP7moVxk+JU7chPur9wx0b2xptMRMc5P2R897k4ly8+H8orv3d3l85OWfGvioA3a8W7O6U695rP94v6EEeWSlt03yf/8zkOT3aMvtLm/3XAodYl51y+PubVrDubF7tx+3H3w10d8dH82uvenZ6nuV43TNUdq4BjALpk9K9m7zR2i4jpLcOyr7diRnBBOIgwiYT7sf12SLP+FB0/iBogHzfj+2XxPW3I+G3kqOzgCOM/Lk0j2ww9/7fsEDnfBgvl+opabvE1O9kFf9/v1RLxbk0NXHLxasvTL/VYYR9FhgeHsW/0qpgxlT4AlXdtDnX/DGK8v+6FhxBjvj7Lnu/7WfT1sw2l94yeTi45Q08BMmJRbHB0/qbiI06JcInSLjNF1ohvpJwGHVk3pdTCKfeefJR9L6H3RknHuX/7Hs9M9zZ4srlWN0yWK5RUbZvccWGJJjWXleLAjCuDQFYnolGVjf9ApOHjSV0MUigosusDZE+0iO4xA4leawjpsPy52vhap2N6i2RJG9N6OM0vbo0YXP/vsy8Zavjdn7qXJ612X5tvPDjhdd90831dI7NfTZtOnne8jY5b1C50HoM1YYI77g61ejBo5Or/1YKskafzjaJY8tm0Sb1nYd3Pm+VWWM5Gxybf+NX5871dP0nTQtWwIrH88F/WNvbbO/fju/b2USIt2RyeO6r6t0/J5JzaMcE0zRrqJ9YNfWkbYxPqc0yUaLSbZPvS+X3f10N20eGZ9u/sXK3IRsMmb+6cT3L/+8RTX2XHavfBMp99DnrVgtF9Wr4ZUNU531MjcazzJol8SnVyfP7k8dcqUgst/DGQcaiHq9a9n7PukYF7e+d29OzmUdWb/1Rrfvtv+KwerOBTFflq4zGf7amlLkZYvt/ycOymLfFt2NKdse3XxIJvXIalbaWgI0CZw5lQ7B9foJzhgkrWXObW+tgd4X5y2Zz8+bHtb8qVfIY/JGnLspDT12ME5Iu60ZH2O15rCFO/9c1aAPhnvQ7N8Toq3K9Lq0rVsCBDl2rIwESCfOKWdBh6TvHJjUXGc/2y+35S8G/w3iUNHD3SbnjjyQsn2obmPjrz6E6efr2x3ty9r7BHtEkVPb8p9Pv/Qua75/xx1Lz3Y7iY0jujloGN5lfC9Kg9SMYjZu7lEvQxkDGibNm1x25JXc0Kn5aPdZEAi2SCW1nD2BzDY27Py/OS7X3pM9gBJLD2SeM3DEnuEJE6+WmIAt+sM3hxqQUcrh87vvPOBz04E738mgz+Dc5oO3DcdfGalsyZAGxF92sqIRZZ2QMn6gU2K0irkVTISf4zFVjJ27PiN39/HmZoDtxPH5th9mTOnlu0UM/XRf+1ENE7cTsXzChCJPPZHOKxu9qpJ9lqc//2MDvTdQlG6L6SUKQGLcpdvPN9t7P5cr8831+fOorA/WopUn0TMf/Bgbl/5+zP3esdr6cMPjrsf/unH7rt1e/wl24cupPuS1ZP9q09Eu32luzfk3vnFQYf19VWmnO8VnqaUs9ZF6MZrQOzz4lBxZLnXJUb5iJaPLdnaMt+FyXuwHKgqlHCMV1011//Bii2b/94PmHY6evaln8svY8+e/bnkvdoWf5ALJ0856qA+mwgQmdphHN6lZOC1Q168V8ygSlSS+0MZDT7KIiELGaEOFr1wyMcG8EI26HrxBHBe8StCTLx4L5btCKJQXvMhCo63MMJacIxMtniVbPPmX+T7A85y/vyr81npQzhLtjmQywSM9qffWPvbigyTrulNuX1kDnKxr8w7t+S1cmF/CHXg3XXrk1ROeaXyJMDyqkW58xemL61yGvinyw7k90fNEpaii00/u/uA4xOm+D3f8N6KJPr8/W+6/OGmfzNztz/gNDb58B4u6R8l+7fhPvTSAu8Ef2t5g68XZxovMYf1sayMgybvn9+1L/UPaxRraznkq3inS5TBQJN2+vi66+f5P4jRWN/oBxrexeXP/DGosT+HM+SVHyIJG9j6ahQcOXJ279rj/+zktGRPj8EyXjLmD2AQpeD0yTc9OdA1O/mYU0RnyjJ4WrJDXh8kh3hYHiQvf5qScmGKdSBCTtOhLzt0r38C9I9wokQJ2p6DeLw+xIQLJxwe1CskdX6yHzz13Cm+37CsfGHyHi3tGEbItDf9hvY/euioO5E4ZWt/c+r0cfqrbVVQH6sf/GEMImSWmXkViXJxf07TgUg47ruFbND10hMgquQA0qV9vJ5Dnj9ZN9m9/Ytjfon288mfc7z4K+Pcwtv736fnBLTrTnfOl16XOx9yzY1j3eFPTrvrI6f/6P+4wG36o0Pu//30iDu677Q7sveU+/xNDe4r/3SiX9ZmwoAef3xv+tYINNF9aeJMTYXr/2Cs+79JmUVf7/3ncnHQO7edcNf84/Q/qFH61hl8jXUtLS3dTU1Ng5cwwJJEEAcOtrvJkxozjcwYpIg2+etCWUSI1M+S40D/hu8AcVdt9uPHT/hVjPr6ia4h+dRKYnk5CSocTlTp7AmcPHXKffzxPj8GMCYNRfpuXXL4w9Wl/pGIoZAvGWdPgFPVnO7+4damYdn7LqRha2trcm67RhPLul3JH37PwuGCnOXnQn8SskabRGb3QyB30KrL/xMGJREQgcokULNOl6W9q68uvPQx3M35hRsXDHcVkl9lBFjeXrDw+iqzSuaIQG0RqMrTy7XVhLJWBERABESgUgjI6VZKS0lPERABERCBiicgp1vxTSgDREAEREAEKoWAnG6ltJT0FAEREAERqHgCcroV34QyQAREQAREoFIIyOlWSktJTxEQAREQgYonIKdb8U0oA0RABERABCqFgJxupbSU9BQBERABEah4AnK6Fd+EMkAEREAERKBSCMjpVkpLSU8REAEREIGKJyCnW/FNKANEQAREQAQqhYCcbqW0lPQUAREQARGoeAJyuhXfhDJABERABERgIAQ+3n1yINmHNK+c7pDilDAREIFaJzDjO8k/cXdd7lBHd62jKFv7d2474XWbPvOckusop1ty5KpQBESgmglcMn+0N2/Txs5qNrNibevsOO12PH3U1btRbnpT6f+7rZxuxXYdKS4CIlCOBL61vCEZzke4F5Z3KNotwwb6n+vak3WI0+6bGydnop2cbibYVakIiEC1EqhvGOEWr270S8xr1xyoVjMr0q5/aD7uXrj7oI9yb1o8PhMbSu50R47MhfPHjh3PxGBVKgIiIAJG4Pjx3N7eqFGjhhQK0e551452Lz3Y7v77X8rxDincQQp74/Vj7oEr9vrS328+z02srxukpLMrVnKnO3r0KDdm9Gh39Ngx19Fx6Oy0V2kREAERGCQBHG5n5yE3oq7OjRs7ZpBS0osR7T646QI30Y10L6w46L5bt8c9v/GwlpvTcQ3rVZzt3Uva3I8XtPl6lm88310+Z2jbeyAG1LW0tHQ3NTUNpMxZ5z116pTbv/9TdzL5WZd0+BEjSu77z9oGCcieAP1I/Sf7dqhUDeg/pMmTGt348eOGzYx1aw66TXd/Fu3WJ45YqTQEjiV7t+zfki5aMs79+7+amsnhKbO2tbXVZeJ0UYAO35HMMru6ulx3t47Wl6YLqhYREAEjMDpZcZs4Ybwb6qXlNMJtrSfdtteOuZ//1SF3ZO8pd+xNjXlpnIb62thr69wVfzzeLfrqeDf/huyiW7MrU6c71HAlTwREQAREQATKmQBOV+u65dxC0k0EREAERKCqCMjpVlVzyhgREAEREIFyJiCnW86tI91EQAREQASqioCcblU1p4wRAREQAREoZwJyuuXcOtJNBERABESgqgjI6VZVc8oYERABERCBciYgp1vOrSMuV/BVAAAMSUlEQVTdREAEREAEqoqAnG5VNaeMEQEREAERKGcCcrrl3DrSTQREQAREoKoIyOlWVXPKGBEQAREQgXImIKdbzq0j3URABERABKqKgJxuVTWnjBEBERABEShnApk53Y6ODrdnzx7P5v333++XEXnjT7+FlGFQBGibYtpkUMLLsBC2YnMpU60x7o/tUPPYvHmze+211/qrVvdFoOQEMnO69957r7vvvvu8I126dGmfDwgP0I033tjrc8011zjkmPMuOb0hrLDUg35fqj/88MP9tklf5SvpHgMz/Y++WMpEv6XeWprc9MV3zZo1ngfP+tkm2vSuu+5yd9xxR8knU2eru8pXP4HM/pvyypUr/UPGw7Fw4UL/KZRsYJo5c6ZbsGCBz4aTam5udhs3bnRbtmxxGzZscFdccUUhEWV9HQ5MHF5++WXX0NCQua42iamGyUyxMEs96bH6Sl1vsTxKnW8oeTAOME5ceeWVZfE8lZql6itvApk4XaJWEg4Gh8pPotYVK1a45cuXFyTGg/T444/3uM8M+YknnvDOe9OmTRX5kDHg2KccnG7BBtANEagAAjxDzzzzTAVoKhVrkUAmTvf+++/3TsaW9JiZ3nLLLYOKVImYWU7aunWrX5q69dZbfTsiH4fMdR7CuXPnOvKaU+P+unXrfJRMsvtE05aQSx4iaq6jo8knD/eos6WlpeB9ZDzwwAP5upCzbNkyd/PNN3u9n3vuufwSGMu66Iee5CtGx7yyZ36Jy8yYMcPLC1cB+rPLZBpDVhPS7L/zzjv9dSZKsIbDY4895q9hl7FBBxiEbGO9+W5lCvEOyxCFw4sVkniihi7oTp3ko53oB1xLs6OQLuhTbNuiM5PGtBUb04G+ZvXHdaIb9dE2Zv/ixYt72RaWg+/69esdzxO/I5/+Qz+lf1n/tmth3437CRPa8PmgbNh3Q/us38IUe9CT+vi9GN7Wr/rigZ2hLL7Hz2jYB+jf6NzZ2elXvaxv0gdiWQPpB3E76bsInC2BTJwuDygDIw8pgxQDhg3WgzGIB44BgIHBHjD2c3goGYB4yBicuM8DSeI+UTb119fX+2VqPm+99ZYfuCyC5ncbTJgkIItBngEfmebQqYv7DNIMviTuc90cP3kZsPigB/WbMyB/qL/pSHnsC3WkbNrgThn0wg6zC/ksX7N0jR2hXQxipjdljI1XPkmsIJDIZ3qH9tmgyU/kmFO1OtCbsujA6kZfehfSi7L0jTjBknq5jzPhOwk90NsmGdhOm/Ed5292WN+L5fJ9IG1Lm1Gn1R/L4571RfJ0d3f7fhLnx/64Pz3yyCNetjmOWDb9B3uQTwrbyfpeeM1sDnXiWUSn+PkI+y780JefPKusKpFgiiz0RBdWoWLepmPI27ZTjAfl4xTqGPb/cCuJPHxHL5NhOnGdZOxivYrpB7FO+i4CQ0IgGUSTZ670ae3atd3JzLS7vb29Oxnkunfv3l1QidWrV3fPmjWr+5577knNE98nH/mRb8nyvPrqq74u7i9ZsiR/n2svvvii/273yRPq9eyzz/rvyODeokWLvP5WZt68ef66leE+35MBNV/Pbbfd5q9hvyXLF9ZlNoRl0Y+yt99+e75s/IvpZdeRid6mo90P64ID17GLZDqG9ZDf7DObKcOH9gs5WB12jZ+ULaS38YaD6UWZWK/YVtMzZGTczGaYvffee/mixtD6krWl6TbQtk0iqrztsX58Rw94kM8S+hg7Y279yvIYM7gVStanw35IPXEfsGvW5/p7PqjP+mRsn10Pn62QcX+8jUehZ8faLa3/oz+2xW3FNSuH7tafuG4Jvaw/ci3uB/mM+kUEhpEA/jaz08tEiyyzMttlecyipLOZSTQ2NvriFjEmD5lfsuNjiZk3dfHhd06R2n1m/SQ7QWlLZlaWiIpydp8o2iIWrrPMRmIWHSa7zjWLUJmd95XMhrAs+lAf8pnlpyX04B7La2aXLStiL4loIOSNHSSLDkwu7WOJ/ERNpNg+a0fuWR1ElXCyJWP0tnt5oWd+MZ6hXuQ322O9rDzLoSSWFUnYbUvhZrMxs35gOrAMmZbMtmLbllWNOGoN5VobGGPuYadF4pYXvlwLmXGvv35CnlBXa6OwPrtmsvp6PvpqW+t32Bv2DRibPYV4s0JCMvlhn8F2OyBpPKzNQzusTWMdqTtcOjcZ4U/0wv64H6Tl1TURGE4CmSwvD7VB9hCmDS6hc+IBNmfDUifLkAxyDNQk7rNEZoMTS7ppye7Hg619jx1inC9NZnytrzr6GojNLpjYwIXz6ssu049JSl+pkB2hAzfdGGTDwZFBtVB5qzPm3Z9eTGCQyxIz7WjO25b3kZtERf4+AzP9wwb/Qgyt7WJdh7Jt0Su2lYmDLecXw6qvdurvXuh84+cjbTIQy4vZhPcL8e5PRiwzrf+HecL2i8vGdfG9WL3SyuqaCAwlgYp3uuyFMagy8FsUSZTFYMJsutDeJ/nZK+RD9MM+G87Xolkg2wAdA2dgIm98P4wk4zID/W42YIc5NX63QTJ0dKFss4tr6MNeF84Xh2RlYr3NOcYyiYgs+keeRUh9DXImg5/xSfNCDGygj/UqhifRLnuaOCwGYuoNIyL6Bn3A9quxNY6UQr2Gum3RBx1ilrGt9Cf0t713dOJE/3AkJh/9PR9p9VrboiefuB/AtT/eVsb6ktUTf6cudKQP2DMc9v247jR97VoxevVVXvdEYCgJVJTT5cHEycYPE9/DJWoGXR5+HKkd0LJlO1uSZJDGKccze2ThaHBWPKz8JFLk4WdpimVx5FOe6ATniAzkm/MPHVUxjWUOFnnItuWy0AYGuXi5OJZtkwezi4HJIip+Z/BiMMMu9CeiooxF+vESndlHGeyzCUChiQz6xHXAznTn51NPPRWr7e2N9UJH9ELvvniG0S6Cw0NXNjBjoznw/v4IxlC3LfKwI41lLxDJBThjL/nDaC4t72CvoRMTsfj5oG76dyHetJGtLFCWfoaO6Eo7WLmQd3xIijwc0qIv4/ytb1n7mE3IpqzpSD22ElBIv0I8BtMPCsnSdRE4WwIV4XRthh0+zGY4D3v8qgaDCg6Ch9ROdpIfOeZkeYjjAZhy5lCIjDilyYDCh8TDS3l+MrgzKISDCvKffPLJPtskbYbOCUvqYjDiwwSCwS/NBvTjflqi/kJ22UCFXTAJJy/oFE5aTEfKhIyQH55wJl+aYwjrsHrIG7/aYzZwr5BexZxqt2gX/cKJA21FnbQfp1dJ2ARXszFuD74Ptm3T2sT6J33RWFo/DB0NfZj71qdsImLRXZrstGuxPeSJr8GA+vp6PtJkc43VC/pPuJyPfJssmtyQd2hnIR5cZ6JlutJurAbQduEzTD3W/2O7TGe7buNGX/2gkJ26LgLDRaAu6djdTU1NwyV/yOTGS4I8WDxUhR48KrblKRwDD545XFMKmTaopd0nn+WxgTKuL7xvDtvkI5tPeB1dKMO1UBbXGZzIz6Bo9/qzIQ3wQOyinlgX6jRmVj/1xPnQl3yx3THftDrS9A55D6SMlaONbKAN5cdthMMIbYm/x/ojM7YxrW0L2cR18qOHyQoZWzljje30R9hyLa7b8qf1pWKvmU7WhrGN/dlnTNPaqT/eYd38jn3W/+Mo1phYf4yf4b7azmQbr2L0srz6KQLDQaC1tdVVjNMdDgCSKQIiIAIiIAKlIoDTzeyVoVIZqXpEQAREQAREoFwIyOmWS0tIDxEQAREQgaonIKdb9U0sA0VABERABMqFgJxuubSE9BABERABEah6AnK6Vd/EMlAEREAERKBcCMjplktLSA8REAEREIGqJyCnW/VNLANFQAREQATKhYCcbrm0hPQQAREQARGoegJyulXfxDJQBERABESgXAjI6ZZLS0gPERABERCBqicgp1v1TSwDRUAEREAEyoWAnG65tIT0EAEREAERqHoCcrpV38QyUAREQAREoFwIyOmWS0tIDxEQAREQgaonIKdb9U0sA0VABERABMqFgJxuubSE9BABERABEah6AnK6Vd/EMlAEREAERKBcCMjplktLSA8REAEREIGqJyCnW/VNLANFQAREQATKhYCcbrm0hPQQAREQARGoegJyulXfxDJQBERABESgXAiMPHaqzn1vc3e56CM9REAEREAERKAqCdx/lXMjsey1d+uq0kAZJQIiIAIiIAJlQYB15cTp/n+fV5kuJQYsyAAAAABJRU5ErkJggg==;imageBorder=#B266FF;strokeWidth=2;" parent="9RFhBGHadp-DHh5qUiH--1" vertex="1">
          <mxGeometry x="1650" y="410" width="466.03" height="170" as="geometry" />
        </mxCell>
        <mxCell id="9RFhBGHadp-DHh5qUiH--51" value="vv-viamais-carrinho-api" style="rounded=0;whiteSpace=wrap;html=1;verticalAlign=middle;fillColor=#f8cecc;strokeColor=#b85450;" parent="9RFhBGHadp-DHh5qUiH--1" vertex="1">
          <mxGeometry x="2390" y="680" width="155.81" height="60" as="geometry" />
        </mxCell>
        <mxCell id="9RFhBGHadp-DHh5qUiH--52" value="persistir desconto" style="edgeStyle=orthogonalEdgeStyle;rounded=0;orthogonalLoop=1;jettySize=auto;html=1;startArrow=none;startFill=0;fillColor=default;exitX=0.5;exitY=1;exitDx=0;exitDy=0;fontSize=12;" parent="9RFhBGHadp-DHh5qUiH--1" source="9RFhBGHadp-DHh5qUiH--53" target="9RFhBGHadp-DHh5qUiH--51" edge="1">
          <mxGeometry relative="1" as="geometry">
            <Array as="points">
              <mxPoint x="2138.05" y="710" />
            </Array>
          </mxGeometry>
        </mxCell>
        <mxCell id="9RFhBGHadp-DHh5qUiH--53" value="" style="ellipse;whiteSpace=wrap;html=1;aspect=fixed;" parent="9RFhBGHadp-DHh5qUiH--1" vertex="1">
          <mxGeometry x="2128.05" y="760" width="20" height="20" as="geometry" />
        </mxCell>
        <mxCell id="9RFhBGHadp-DHh5qUiH--55" value="import&lt;br&gt;&lt;br&gt;remote component" style="edgeStyle=orthogonalEdgeStyle;rounded=0;orthogonalLoop=1;jettySize=auto;html=1;entryX=0.75;entryY=0;entryDx=0;entryDy=0;fontSize=12;startArrow=none;startFill=0;strokeWidth=1;fillColor=default;" parent="9RFhBGHadp-DHh5qUiH--1" source="9RFhBGHadp-DHh5qUiH--56" target="9RFhBGHadp-DHh5qUiH--49" edge="1">
          <mxGeometry relative="1" as="geometry" />
        </mxCell>
        <mxCell id="9RFhBGHadp-DHh5qUiH--56" value="&lt;span&gt;Negociação&lt;/span&gt;" style="ellipse;shape=cloud;whiteSpace=wrap;html=1;fillColor=#dae8fc;strokeColor=#6c8ebf;" parent="9RFhBGHadp-DHh5qUiH--1" vertex="1">
          <mxGeometry x="1936.0500000000002" y="210" width="128" height="84" as="geometry" />
        </mxCell>
        <mxCell id="9RFhBGHadp-DHh5qUiH--60" value="v1.0 - Desconto/Simulador" style="text;html=1;strokeColor=none;fillColor=none;align=center;verticalAlign=middle;whiteSpace=wrap;rounded=0;fontSize=22;fontStyle=1" parent="9RFhBGHadp-DHh5qUiH--1" vertex="1">
          <mxGeometry x="2168.05" y="340" width="280" height="30" as="geometry" />
        </mxCell>
        <mxCell id="9RFhBGHadp-DHh5qUiH--61" value="vv-viamais-condicoes-pagamento-api" style="rounded=0;whiteSpace=wrap;html=1;verticalAlign=middle;" parent="9RFhBGHadp-DHh5qUiH--1" vertex="1">
          <mxGeometry x="2390" y="780" width="155.81" height="60" as="geometry" />
        </mxCell>
        <mxCell id="9RFhBGHadp-DHh5qUiH--62" value="consultar condições pagamento" style="edgeStyle=orthogonalEdgeStyle;rounded=0;orthogonalLoop=1;jettySize=auto;html=1;startArrow=none;startFill=0;fillColor=default;exitX=0.5;exitY=1;exitDx=0;exitDy=0;fontSize=12;entryX=0;entryY=0.5;entryDx=0;entryDy=0;" parent="9RFhBGHadp-DHh5qUiH--1" source="9RFhBGHadp-DHh5qUiH--53" target="9RFhBGHadp-DHh5qUiH--61" edge="1">
          <mxGeometry relative="1" as="geometry">
            <mxPoint x="2110.96" y="819.97" as="sourcePoint" />
            <mxPoint x="2330.96" y="810.0022580645161" as="targetPoint" />
            <Array as="points">
              <mxPoint x="2138.05" y="810" />
            </Array>
          </mxGeometry>
        </mxCell>
        <mxCell id="9RFhBGHadp-DHh5qUiH--63" value="" style="edgeStyle=orthogonalEdgeStyle;rounded=0;orthogonalLoop=1;jettySize=auto;html=1;fontSize=14;startArrow=none;startFill=0;strokeWidth=3;fillColor=#d5e8d4;strokeColor=#82b366;exitX=1;exitY=0.5;exitDx=0;exitDy=0;entryX=0;entryY=0.5;entryDx=0;entryDy=0;" parent="9RFhBGHadp-DHh5qUiH--1" source="9RFhBGHadp-DHh5qUiH--46" target="9RFhBGHadp-DHh5qUiH--53" edge="1">
          <mxGeometry relative="1" as="geometry">
            <mxPoint x="2000.0699999999997" y="740" as="targetPoint" />
            <mxPoint x="1748.0499999999993" y="740" as="sourcePoint" />
          </mxGeometry>
        </mxCell>
        <mxCell id="9RFhBGHadp-DHh5qUiH--64" value="&lt;span style=&quot;font-size: 12px&quot;&gt;consultar alçada&lt;/span&gt;" style="edgeStyle=orthogonalEdgeStyle;rounded=0;orthogonalLoop=1;jettySize=auto;html=1;entryX=0;entryY=0.5;entryDx=0;entryDy=0;fontSize=14;startArrow=none;startFill=0;strokeWidth=1;fillColor=default;" parent="9RFhBGHadp-DHh5qUiH--1" source="9RFhBGHadp-DHh5qUiH--65" target="9RFhBGHadp-DHh5qUiH--66" edge="1">
          <mxGeometry relative="1" as="geometry" />
        </mxCell>
        <mxCell id="9RFhBGHadp-DHh5qUiH--65" value="" style="ellipse;whiteSpace=wrap;html=1;aspect=fixed;" parent="9RFhBGHadp-DHh5qUiH--1" vertex="1">
          <mxGeometry x="2208.05" y="485" width="20" height="20" as="geometry" />
        </mxCell>
        <mxCell id="9RFhBGHadp-DHh5qUiH--66" value="vv-viamais-desconto-api" style="rounded=0;whiteSpace=wrap;html=1;verticalAlign=middle;" parent="9RFhBGHadp-DHh5qUiH--1" vertex="1">
          <mxGeometry x="2378.05" y="465" width="155.81" height="60" as="geometry" />
        </mxCell>
        <mxCell id="lmGHlfPtInGPxrxWDnL5-1" value="Pagamento" style="rounded=0;whiteSpace=wrap;html=1;verticalAlign=middle;fillColor=#fff2cc;strokeColor=#d6b656;" parent="9RFhBGHadp-DHh5qUiH--1" vertex="1">
          <mxGeometry x="302" y="1960" width="222.02" height="60" as="geometry" />
        </mxCell>
        <mxCell id="lmGHlfPtInGPxrxWDnL5-2" value="@Input produto {}&lt;br&gt;&lt;br&gt;@Output desconto {}" style="edgeStyle=orthogonalEdgeStyle;rounded=0;orthogonalLoop=1;jettySize=auto;html=1;entryX=0.5;entryY=0;entryDx=0;entryDy=0;exitX=0.5;exitY=1;exitDx=0;exitDy=0;startArrow=classic;startFill=1;fontSize=12;fontStyle=1" parent="9RFhBGHadp-DHh5qUiH--1" source="lmGHlfPtInGPxrxWDnL5-4" target="lmGHlfPtInGPxrxWDnL5-1" edge="1">
          <mxGeometry relative="1" as="geometry">
            <mxPoint x="37.99000000000024" y="1500" as="targetPoint" />
            <Array as="points">
              <mxPoint x="413.04999999999995" y="1860" />
              <mxPoint x="413.04999999999995" y="1860" />
            </Array>
          </mxGeometry>
        </mxCell>
        <mxCell id="lmGHlfPtInGPxrxWDnL5-3" value="" style="edgeStyle=orthogonalEdgeStyle;rounded=0;orthogonalLoop=1;jettySize=auto;html=1;fontSize=14;startArrow=none;startFill=0;strokeWidth=3;fillColor=#d5e8d4;strokeColor=#82b366;exitX=1;exitY=0.5;exitDx=0;exitDy=0;entryX=0;entryY=0.5;entryDx=0;entryDy=0;" parent="9RFhBGHadp-DHh5qUiH--1" source="lmGHlfPtInGPxrxWDnL5-4" target="lmGHlfPtInGPxrxWDnL5-16" edge="1">
          <mxGeometry relative="1" as="geometry">
            <mxPoint x="728.05" y="1780" as="targetPoint" />
            <mxPoint x="1068.05" y="1920" as="sourcePoint" />
          </mxGeometry>
        </mxCell>
        <mxCell id="lmGHlfPtInGPxrxWDnL5-4" value="" style="shape=image;verticalLabelPosition=bottom;labelBackgroundColor=#ffffff;verticalAlign=top;aspect=fixed;imageAspect=0;image=data:image/png,iVBORw0KGgoAAAANSUhEUgAAAd0AAACuCAYAAABz/Ne1AAAABHNCSVQICAgIfAhkiAAAIABJREFUeF7tnQ2QldWZ508j39DdIKjQoBLRCH6g4pYwFRyT2uAmkNTMRBN1s6kJ7JZudrcWXHWrkqwfaMxUje6AU/uls0B2nCrcVbayVRJHmGwmalaxSvC7dSIkAbobAwrdzXcDve/vXJ7r6dPv7b7ddN/3fvxP1a3u+77nPOd5fue85znPOeftrmtpaemeNGmSUxIBERABERABERg+AgcPHnQjhk+8JIuACIiACIiACIQERvKl89BhUREBERABERABERhmAt7p1tdPHOZqJF4EREAEREAEapvAwQMHnHe648eNq20Ssl4EREAEREAEhpkATld7usMMWeJFQAREQAREwAjI6aoviIAIiIAIiECJCMjplgi0qhEBERABERABOV31AREQAREQAREoEQE53RKBVjUiIAIiIAIiIKerPiACIiACIiACJSIgp1si0KpGBERABERABOR01QdEQAREQAREoEQE5HRLBFrViIAIiIAIiICcrvqACIiACIiACJSIgJxuiUCrGhEQAREQARGQ01UfEAEREAEREIESEZDTLRFoVSMCIiACIiACcrrqAyIgAiIgAiJQIgJyuiUCrWpEQAREQAREQE5XfUAEREAEREAESkRATrdEoFWNCIiACIiACMjpqg+IgAiIgAiIQIkIyOmWCLSqEQEREAEREAE5XfUBERABERABESgRATndEoFWNSIgAiIgAiIwMisE77//vtuzZ4+7+eabh0WFjo4Ot27dOjdz5kx36623DksdQyUUXeERp4aGBnfFFVfEl/VdBERABESgQglk5nTvuusu73Qfe+yxYXGKr732mnviiSd8s+C4ytl5Pfzww27jxo2pXQjHu3jxYrdy5Uo/gajGxKQDO5VEQAREoNoJZOZ0cbjDmczRMpiX+4BuLHCqCxYs8FhwRC0tLT4CxiFv3brVbdiwoeocL7YvXbrUt9GmTZvKvq2Gs89KtgiIQPUTyMzpDjdaHBiDeCUlHO7jjz/eQ2Wc0h133OFXBfj58ssvV5JJ/eqKXUww7FPuE6R+DVIGERABEeiDQFk5XZaEGYTZg2UQfu655/xPota0vV/yEwmSBye7cOHCHpEg5Um2p2sykUV+yvPhPt+5jzyTiQOwvH0wzN8KdR5o2ULy0YsleHO8mzdv7sXC7EAGDPjEKWRlqwDxcjX6I98i7zRZxeShPOzhCgeTGTMx1qar7fOjV6hbaF+hvhDbq+8iIAIiUI4Eysrpss/LoM6yKoeg+N0SDoDlVUtr1qzJ79mGYG2PmIH6vvvu87dwnAz4yGSfl8G9ubm5x+ElBnPyh3VSlvxPPvlkqiML603T55FHHnHLli1zDzzwQJh1wL9jO1EwS8yh0w2jYBOKvnGd2GUTEMsHD1jZZAYmts8eyrIVA/KTB+cfMqI+8oRL37BgSZw2oC3NiSN3/fr1+XZkWTlM1E+65ZZbfMSfZh/3qY82Ked9+h6G6YsIiIAInCFQVq8M2WDOoE2UxMBqUWoY7eB4bLAnDwP+8uXL/WCMM41T7Ei3bNniB3QG9/vvv9/XgUMhIcdkcoCJsjjPvhIOzQ5tceAJfXBoOCqcjN3rS0Z/9yzyw4lZsugXnVl2ZjkdR0Sd5mRhxe/mqIyVOVFkwcIcLuXRHQY4enOY5gDhgaPmPh/kcs8mOKEdTBK4jzw4Uyd50c+u0waWsIN8/CSZfegUtonpG7drWLd+FwEREIGyJJAM4t1ZpFmzZnXzefbZZ/PV27V77723h0rz5s3zedeuXeuv85PvS5YsKaj6q6++6vPw2b17t8+3evXqXtdCAe3t7T3kUc5kxPfCjOhBvlhvqw/9+0q33XabL3/PPfcUzMY98tx+++0+j9kXy7brls90sO9WQWiP8Vy0aFF3bKexW7Vqla+fPGF677338oyom2S6xnlNRqhLWjsh48UXX0xtK/SL+0MPhfRFBERABMqUAP62rJaXbVZiJ3jtOxESUY1FNiy3WqR24403+ojM9h8tIuxrhhPv/YZ5iQqJpPiEkRS/U2dasiiZyDhMRNBEuZRFXjG6pcnnWhzVEflbSpx9/nfLZxEqtqID+WNWZg/RMImIMrbRdDYb47ahjEW75An3k+Pl31h2XumUX6y+uK2QAWeWry1PSnFdEgEREIGyJFBWy8vFEmIwZynVDlwxALO8iVOJ9y6LlYnjueaaa7wclkXLLZlOsdOLHRnfWbK1JVqcFkvPMSuWbs3Zmq319fX9mt3Y2NhvnoHI609YPNnoL7/ui4AIiEA5EyjLSLcYYLYnyH4hEQ/7wOzVEtXZPnAxcixPuCe7YsUKfxm5yOwvWaRn0aXlDyOx2Dn2JzO8j23mfMw2i0C5Hr9mFMsuxIq9VTudjVNP2w83WUx0yBNHlxbFk+9sIvlYZ+MVMyWfXRvK+uL69V0EREAEhoNARUa6nEJmSdUGXxyCLWuejXMDcLJnmOdcbNRsh4FwYqYTP+0AFo6yGL1wYHZgjJ/Un+x/9jikZY7GTmRTJjyoxffwJHVfrGJHjkMNZVH/nXfe6R2+nXJGL2SSrC5+Ry/LkwdYxC+h4wwdrDGL7cM2i/oHM7kqQiVlEQEREIFhI5BZpIsTskF/oNYx8BOBsqyMHD42YA9m4Kd+HCdOB8fJoJ4WYRXSk6VcdKEMS9yhbTgVi5wLlTeHjE1pkTX3ORXNq0CWuMZJX5bDcUQ4wjQOxbBiwoINyEAWnzDRTuTBDpwykwlzztaG6DKYBB97HYolb75jJ/pQH3WZfci3+qr5z2IOhqPKiIAIVAaBc5KTpg8Vs5c31Obs37/fjRkzxg+u5nQ6Ozt7XbN6d+7c6d93Je/Xv/51PzgzAJ84ccJnYeD+3ve+l9/LJN/27dvdhRde2OPam2++6ctfd911PUziu8lEt2uvvdY99dRTDp2QZXukaRzMjlAnfv/2t7/tX5c577zz0orlr1F+3759vv7wg6MjmmP5ODygZAWJ8LmPjsePH/cfOFAvTgm5hVg9+uijPZbhb7rpprz9dXV13mZk/+hHP3KzZ8/2VdqhJuOOfA41xfox+YAhelhZyiMzjT/1GDvqvvLKK3378AntQwb2xbobD/0UAREQgXImwFhdxxHmpqamctZTuomACIiACIhAxRNobW11FbmnW/HkZYAIiIAIiEBNEpDTrclml9EiIAIiIAJZEJDTzYK66hQBERABEahJAnK6NdnsMloEREAERCALAnK6WVBXnSIgAiIgAjVJQE63JptdRouACIiACGRBQE43C+qqUwREQAREoCYJyOnWZLPLaBEQAREQgSwIyOlmQV11ioAIiIAI1CQBOd2abHYZLQIiIAIikAUBOd0sqKtOERABERCBmiQgp1uTzS6jRUAEREAEsiAgp5sFddUpAiIgAiJQkwTkdGuy2WW0CIiACIhAFgTkdLOgrjpFQAREQARqkoCcbk02u4wWAREQARHIgoCcbhbUVacIiIAIiEBNEpDTrclml9EiIAIiIAJZEJDTzYK66hQBERABEahJAnK6NdnsMloEREAERCALAnK6WVBXnSIgAiIgAjVJQE63JptdRouACIiACGRBQE43C+qqUwREQAREoCYJyOnWZLPLaBEQAREQgSwIjMyiUuo8fbrbHTp02B05ejQrFVSvCIhADRMYM3q0q6+f6EaOPGfYKRzq6HbPrDvofruty+15+viw16cKcgQmLx3pzrtslPsnd0x0198wtiyw1LW0tHQ3NTWVVJmTJ0+5/Z986k6dOuVG1NW5Eeco4C5pA1RBZadPnXanu7vVf6qgLbMygXGINHlSoxs/ftywqGHO9oW7D+bl17tRw1KXhPYmcMydcl3utL8B9z/bM81Nn5FZrOlaW1tdJrWbw21IZpnMNJVEYKAEjh8/4SduEyZOcPQjJREYKIETJ7p8H2rv6HTjxo11dUkAMJSpreWkW/W1j92+N0/4Af+r6xrc0lvr3cT6oa1nKHWuRlnbXj/u/nZDp3tjTaf7dzNb3D/bONUt/caEzEwteYhJRyfCZWYph5tZu6tiEah5AqNHj/Jj0OnTp93hI0O7zUWE+/2Zbd7h3vTQJPeT7pnutmUNcrgZ9Lr5N4xxP1g91f1w63TXndS/7pbfu22vH8tAk1yVJXe6OFwS+ylKIiACIpAlASJcUldX15CqsfYvDrhOd9ItWTPZ/dsHJw+pbAkbHIH5yZ7uquZpyZrDCPeXC/Y7JkZZpJI73e5kH05JBERABKqVAMvKL61q90vK/3zFpGo1syLtunzOGLd4dWMyIepyz6xvz8SGkjvdTKxUpSIgAiJQIgK/3HLE1/TNjYpwS4R8QNV8a3mDj3ZfWXloQOWGKrOc7lCRlBwREAERSAhs/V+HPYebvjxePMqQQH3DCDdv5QQf7ba15rY7S6mmnG4paasuERCBqidw4IWTfml5YoNOKZdrY19wce7FnbY9J0uuopxuyZGrQhEQAREQgSwJXHBhJm/LepPldLNsedUtAiIgAiJQUwTkdGuquWWsCIiACIhAlgTkdLOkr7pFQAREQARqioCcbk01t4wVAREQARHIkoCcbpb0VbcIiIAIiEBNEZDTranmlrEiIAIiIAJZEpDTzZK+6hYBERABEagpAnK6NdXcMlYEREAERCBLAnK6WdJX3SIgAiIgAjVFQE63pppbxoqACIiACGRJQE43S/qqWwREQAREoKYI1KzTbW/vcO+83VxTjS1jRUAEREAEsiVQs063rfVjt3Pnb92RI0ezbQHVLgIiIAIiUDMEsvtXC0OEuK3tY7f7dy3uxMmuHhIbGxpc46R6d9FFM3tc7+o66XZ89Bu3a3eLv75t29tJnhlu+vRpbtSo/nHs2rXH13f46FE3fvw4X7ZQHW17f+/raGyod3PmXubz95WIvnd89Fu3/5NPfd7p0y5wF108s5dexejQVz26V5gA/Wln0gYnTp707Xb1vCt68If9Bx985G6++YuFhaTc+aD51876w4Rx49xV8+b26g9MAGn/tr0fJ3WOKrrf7N//SaLz79zBjo6CfRKV0OGT/Z962wrpkKK6LpURgV9uOeJ++kS7+5MVje4PF/f+f71tLSfdf/7+p+7wpz3/T+yEc89xC/9ogvvaLRPy1pisf/X4FHfZnNGpVvaV5+//7oj7u78+5PY8fdyNvXaEm3r1qF51hEI3/KTdvf7cEVeovoHonqpshVzs38uUuSFErAxSIxOHyUBF6urq8oML6UjiHOdcflnu92RQe+WVre5o8pP84xLHhqPbvu1T98H4j9yXvrSol4MLzWfQ+vDDj3xZnCJ18Ok6cdLNvnRWPit1dCRyLd/uxMHvTRzwF7/0hV4DrRViwKXcyWRS0NBY7yPwd99t9rYtWrQgL7tYHUK99XtxBGD++tZtCf8GN3XK5GQl5He+/xh/7uNwB5reeft9L4v+MCmZDNKmfL6QtOvUqed6cdb+9E36JX2YfsMErK9+ySRg+7Z3vAz6jfXn9oOdyYRhbl7VYnQYqF3KX3oC62/+JPnn6yfdf910wv1h98W9FGhNnG7z04f9df6nr6Vd7pi//vy1o91/2z7DX/7Vz464XZuOuZe+fKSg07U8Hy7vyuc51NHt7r99r9v1wrF8Pcfe7HbNbx72dby9st79YPXUfN38gkN9cVmH1/2/uE/c6uen97jPlzdey+k4Kvnnd2PdOfn7pvtziT3/qX1Gxf+f4op3utYyV189t0fEySD2i1+84j5s/shddOFM7+y2v/G2d7iXz7nMzZlzab5RiS52nFlqbkwGrrSEPBwuAyKDMPLydSTXLSJlEMThTms63y244Xov6p13k0E3iUSIqkMHGtaDbjjcq5LIavYluYfpVy9vdfsTp45MomnTgXIMxIV0SNNf1/onwAoIaf78eY5+0NHe6fmzOsIqCBMe+s/iAUS5bW17vcOl35jz3JWslGzf/nbiwH+d7w8mO+yb25I8rKrs2Pmb/MQxtsImAUzoGpPJgvVJtk6mN13gnbqPhCMdsOtXySTvnXeaE72+EIvV9zIk8PzGQ95p4ZROuNPu+Y2He0Suoco43J90f7bK19Z60q1a+rHb9+YJ9/z/Tsp947OId6Cmrv2LA97hUscPm8/PO2PqWP/YQfcPaxJnvLqnVByq6Y6j3/b6MTf/hrGpVc9bMdH9YM2U/L1Q900bO91tyxpSy1XKxard07XlWRqCWT+JJWHS9OkX+J+WiFJZLizkcMnHwEWaet65+WiVOohciEoYXEkMkqTZl3zO/yQRaRPl+Kg4GcDjRHkiGiJ1c7jkueTSnPNta8stU5sO0xL9bana7Ax1iOXre3EErG1smwFHSYItzozI88KLZxRcrUirpa0113azL5mVX0W5KJGBbPoDcklEviS2KywxWSThpNMS/YFJwJTEseJwSfSHiy7Mydj/Sa7PshpECnXAGaMDE8T2ZHKhVP4Enl/V7pVc1ZxshSWO9+frO4pWenrTSPfFFbmAYuc7J4ouF2ckYn3pjB5/1jKtR4RMHUS4obO38s/desA76e9szDnTpx8+EIsu+B25X/sPjf7+jre6CuarlBtV63RpAAYU0qjRuYCefSwSEYYNdv5CEWn/vtxydWN9z1kWAx7pyOHc4Mm+GsmcIr/jTG3pO61elgRJLA+GqbEx19HsfvvBXD72GsNkdWnw7IFlwF/M2VpBnC2JtmN5lokTEyic85EjR4qSj1MkNU7q2W+sDXGc9AlWOagn7Dc2CTQZcYXWL8af6dd23+qyySYRe5oOU6fk+m57e24wj+Xre/kQeCOJDPclzvL6ZOn28jlj3LyVE/zSMBFjsWnnWzlnO6GxrtgivfJ92JyTcV6yTI0zLCZZhP75lWPd0m9MdBd9deyAdX/7lZydF8z6bNm5mLrLMU9x1MpR80gnokFzfNwiimjv6PSzeds34/AK+6Z7k8MyfHJ7d+cmnef8JM9nyxlp5uYH4DMOPM5jzpTBkxQOnnzH4TN4mpywfNq18L4NuhaJjZ/Q80CWfe86UfmzwJhrKb9Pb5rml2HZbmBFg/5DH2EVgz15ln53/W6P32Yg0bdYirb+laarra7YpMvyhN/NgePUw9QzT+7gXnifswSkuK/Zd+tXpkOaflwzOYXu63r2BP7moVxk+JU7chPur9wx0b2xptMRMc5P2R897k4ly8+H8orv3d3l85OWfGvioA3a8W7O6U695rP94v6EEeWSlt03yf/8zkOT3aMvtLm/3XAodYl51y+PubVrDubF7tx+3H3w10d8dH82uvenZ6nuV43TNUdq4BjALpk9K9m7zR2i4jpLcOyr7diRnBBOIgwiYT7sf12SLP+FB0/iBogHzfj+2XxPW3I+G3kqOzgCOM/Lk0j2ww9/7fsEDnfBgvl+opabvE1O9kFf9/v1RLxbk0NXHLxasvTL/VYYR9FhgeHsW/0qpgxlT4AlXdtDnX/DGK8v+6FhxBjvj7Lnu/7WfT1sw2l94yeTi45Q08BMmJRbHB0/qbiI06JcInSLjNF1ohvpJwGHVk3pdTCKfeefJR9L6H3RknHuX/7Hs9M9zZ4srlWN0yWK5RUbZvccWGJJjWXleLAjCuDQFYnolGVjf9ApOHjSV0MUigosusDZE+0iO4xA4leawjpsPy52vhap2N6i2RJG9N6OM0vbo0YXP/vsy8Zavjdn7qXJ612X5tvPDjhdd90831dI7NfTZtOnne8jY5b1C50HoM1YYI77g61ejBo5Or/1YKskafzjaJY8tm0Sb1nYd3Pm+VWWM5Gxybf+NX5871dP0nTQtWwIrH88F/WNvbbO/fju/b2USIt2RyeO6r6t0/J5JzaMcE0zRrqJ9YNfWkbYxPqc0yUaLSbZPvS+X3f10N20eGZ9u/sXK3IRsMmb+6cT3L/+8RTX2XHavfBMp99DnrVgtF9Wr4ZUNU531MjcazzJol8SnVyfP7k8dcqUgst/DGQcaiHq9a9n7PukYF7e+d29OzmUdWb/1Rrfvtv+KwerOBTFflq4zGf7amlLkZYvt/ycOymLfFt2NKdse3XxIJvXIalbaWgI0CZw5lQ7B9foJzhgkrWXObW+tgd4X5y2Zz8+bHtb8qVfIY/JGnLspDT12ME5Iu60ZH2O15rCFO/9c1aAPhnvQ7N8Toq3K9Lq0rVsCBDl2rIwESCfOKWdBh6TvHJjUXGc/2y+35S8G/w3iUNHD3SbnjjyQsn2obmPjrz6E6efr2x3ty9r7BHtEkVPb8p9Pv/Qua75/xx1Lz3Y7iY0jujloGN5lfC9Kg9SMYjZu7lEvQxkDGibNm1x25JXc0Kn5aPdZEAi2SCW1nD2BzDY27Py/OS7X3pM9gBJLD2SeM3DEnuEJE6+WmIAt+sM3hxqQUcrh87vvPOBz04E738mgz+Dc5oO3DcdfGalsyZAGxF92sqIRZZ2QMn6gU2K0irkVTISf4zFVjJ27PiN39/HmZoDtxPH5th9mTOnlu0UM/XRf+1ENE7cTsXzChCJPPZHOKxu9qpJ9lqc//2MDvTdQlG6L6SUKQGLcpdvPN9t7P5cr8831+fOorA/WopUn0TMf/Bgbl/5+zP3esdr6cMPjrsf/unH7rt1e/wl24cupPuS1ZP9q09Eu32luzfk3vnFQYf19VWmnO8VnqaUs9ZF6MZrQOzz4lBxZLnXJUb5iJaPLdnaMt+FyXuwHKgqlHCMV1011//Bii2b/94PmHY6evaln8svY8+e/bnkvdoWf5ALJ0856qA+mwgQmdphHN6lZOC1Q168V8ygSlSS+0MZDT7KIiELGaEOFr1wyMcG8EI26HrxBHBe8StCTLx4L5btCKJQXvMhCo63MMJacIxMtniVbPPmX+T7A85y/vyr81npQzhLtjmQywSM9qffWPvbigyTrulNuX1kDnKxr8w7t+S1cmF/CHXg3XXrk1ROeaXyJMDyqkW58xemL61yGvinyw7k90fNEpaii00/u/uA4xOm+D3f8N6KJPr8/W+6/OGmfzNztz/gNDb58B4u6R8l+7fhPvTSAu8Ef2t5g68XZxovMYf1sayMgybvn9+1L/UPaxRraznkq3inS5TBQJN2+vi66+f5P4jRWN/oBxrexeXP/DGosT+HM+SVHyIJG9j6ahQcOXJ279rj/+zktGRPj8EyXjLmD2AQpeD0yTc9OdA1O/mYU0RnyjJ4WrJDXh8kh3hYHiQvf5qScmGKdSBCTtOhLzt0r38C9I9wokQJ2p6DeLw+xIQLJxwe1CskdX6yHzz13Cm+37CsfGHyHi3tGEbItDf9hvY/euioO5E4ZWt/c+r0cfqrbVVQH6sf/GEMImSWmXkViXJxf07TgUg47ruFbND10hMgquQA0qV9vJ5Dnj9ZN9m9/Ytjfon288mfc7z4K+Pcwtv736fnBLTrTnfOl16XOx9yzY1j3eFPTrvrI6f/6P+4wG36o0Pu//30iDu677Q7sveU+/xNDe4r/3SiX9ZmwoAef3xv+tYINNF9aeJMTYXr/2Cs+79JmUVf7/3ncnHQO7edcNf84/Q/qFH61hl8jXUtLS3dTU1Ng5cwwJJEEAcOtrvJkxozjcwYpIg2+etCWUSI1M+S40D/hu8AcVdt9uPHT/hVjPr6ia4h+dRKYnk5CSocTlTp7AmcPHXKffzxPj8GMCYNRfpuXXL4w9Wl/pGIoZAvGWdPgFPVnO7+4damYdn7LqRha2trcm67RhPLul3JH37PwuGCnOXnQn8SskabRGb3QyB30KrL/xMGJREQgcokULNOl6W9q68uvPQx3M35hRsXDHcVkl9lBFjeXrDw+iqzSuaIQG0RqMrTy7XVhLJWBERABESgUgjI6VZKS0lPERABERCBiicgp1vxTSgDREAEREAEKoWAnG6ltJT0FAEREAERqHgCcroV34QyQAREQAREoFIIyOlWSktJTxEQAREQgYonIKdb8U0oA0RABERABCqFgJxupbSU9BQBERABEah4AnK6Fd+EMkAEREAERKBSCMjpVkpLSU8REAEREIGKJyCnW/FNKANEQAREQAQqhYCcbqW0lPQUAREQARGoeAJyuhXfhDJABERABERgIAQ+3n1yINmHNK+c7pDilDAREIFaJzDjO8k/cXdd7lBHd62jKFv7d2474XWbPvOckusop1ty5KpQBESgmglcMn+0N2/Txs5qNrNibevsOO12PH3U1btRbnpT6f+7rZxuxXYdKS4CIlCOBL61vCEZzke4F5Z3KNotwwb6n+vak3WI0+6bGydnop2cbibYVakIiEC1EqhvGOEWr270S8xr1xyoVjMr0q5/aD7uXrj7oI9yb1o8PhMbSu50R47MhfPHjh3PxGBVKgIiIAJG4Pjx3N7eqFGjhhQK0e551452Lz3Y7v77X8rxDincQQp74/Vj7oEr9vrS328+z02srxukpLMrVnKnO3r0KDdm9Gh39Ngx19Fx6Oy0V2kREAERGCQBHG5n5yE3oq7OjRs7ZpBS0osR7T646QI30Y10L6w46L5bt8c9v/GwlpvTcQ3rVZzt3Uva3I8XtPl6lm88310+Z2jbeyAG1LW0tHQ3NTUNpMxZ5z116pTbv/9TdzL5WZd0+BEjSu77z9oGCcieAP1I/Sf7dqhUDeg/pMmTGt348eOGzYx1aw66TXd/Fu3WJ45YqTQEjiV7t+zfki5aMs79+7+amsnhKbO2tbXVZeJ0UYAO35HMMru6ulx3t47Wl6YLqhYREAEjMDpZcZs4Ybwb6qXlNMJtrSfdtteOuZ//1SF3ZO8pd+xNjXlpnIb62thr69wVfzzeLfrqeDf/huyiW7MrU6c71HAlTwREQAREQATKmQBOV+u65dxC0k0EREAERKCqCMjpVlVzyhgREAEREIFyJiCnW86tI91EQAREQASqioCcblU1p4wRAREQAREoZwJyuuXcOtJNBERABESgqgjI6VZVc8oYERABERCBciYgp1vOrSMuV/BVAAAMSUlEQVTdREAEREAEqoqAnG5VNaeMEQEREAERKGcCcrrl3DrSTQREQAREoKoIyOlWVXPKGBEQAREQgXImIKdbzq0j3URABERABKqKgJxuVTWnjBEBERABEShnApk53Y6ODrdnzx7P5v333++XEXnjT7+FlGFQBGibYtpkUMLLsBC2YnMpU60x7o/tUPPYvHmze+211/qrVvdFoOQEMnO69957r7vvvvu8I126dGmfDwgP0I033tjrc8011zjkmPMuOb0hrLDUg35fqj/88MP9tklf5SvpHgMz/Y++WMpEv6XeWprc9MV3zZo1ngfP+tkm2vSuu+5yd9xxR8knU2eru8pXP4HM/pvyypUr/UPGw7Fw4UL/KZRsYJo5c6ZbsGCBz4aTam5udhs3bnRbtmxxGzZscFdccUUhEWV9HQ5MHF5++WXX0NCQua42iamGyUyxMEs96bH6Sl1vsTxKnW8oeTAOME5ceeWVZfE8lZql6itvApk4XaJWEg4Gh8pPotYVK1a45cuXFyTGg/T444/3uM8M+YknnvDOe9OmTRX5kDHg2KccnG7BBtANEagAAjxDzzzzTAVoKhVrkUAmTvf+++/3TsaW9JiZ3nLLLYOKVImYWU7aunWrX5q69dZbfTsiH4fMdR7CuXPnOvKaU+P+unXrfJRMsvtE05aQSx4iaq6jo8knD/eos6WlpeB9ZDzwwAP5upCzbNkyd/PNN3u9n3vuufwSGMu66Iee5CtGx7yyZ36Jy8yYMcPLC1cB+rPLZBpDVhPS7L/zzjv9dSZKsIbDY4895q9hl7FBBxiEbGO9+W5lCvEOyxCFw4sVkniihi7oTp3ko53oB1xLs6OQLuhTbNuiM5PGtBUb04G+ZvXHdaIb9dE2Zv/ixYt72RaWg+/69esdzxO/I5/+Qz+lf1n/tmth3437CRPa8PmgbNh3Q/us38IUe9CT+vi9GN7Wr/rigZ2hLL7Hz2jYB+jf6NzZ2elXvaxv0gdiWQPpB3E76bsInC2BTJwuDygDIw8pgxQDhg3WgzGIB44BgIHBHjD2c3goGYB4yBicuM8DSeI+UTb119fX+2VqPm+99ZYfuCyC5ncbTJgkIItBngEfmebQqYv7DNIMviTuc90cP3kZsPigB/WbMyB/qL/pSHnsC3WkbNrgThn0wg6zC/ksX7N0jR2hXQxipjdljI1XPkmsIJDIZ3qH9tmgyU/kmFO1OtCbsujA6kZfehfSi7L0jTjBknq5jzPhOwk90NsmGdhOm/Ed5292WN+L5fJ9IG1Lm1Gn1R/L4571RfJ0d3f7fhLnx/64Pz3yyCNetjmOWDb9B3uQTwrbyfpeeM1sDnXiWUSn+PkI+y780JefPKusKpFgiiz0RBdWoWLepmPI27ZTjAfl4xTqGPb/cCuJPHxHL5NhOnGdZOxivYrpB7FO+i4CQ0IgGUSTZ670ae3atd3JzLS7vb29Oxnkunfv3l1QidWrV3fPmjWr+5577knNE98nH/mRb8nyvPrqq74u7i9ZsiR/n2svvvii/273yRPq9eyzz/rvyODeokWLvP5WZt68ef66leE+35MBNV/Pbbfd5q9hvyXLF9ZlNoRl0Y+yt99+e75s/IvpZdeRid6mo90P64ID17GLZDqG9ZDf7DObKcOH9gs5WB12jZ+ULaS38YaD6UWZWK/YVtMzZGTczGaYvffee/mixtD6krWl6TbQtk0iqrztsX58Rw94kM8S+hg7Y279yvIYM7gVStanw35IPXEfsGvW5/p7PqjP+mRsn10Pn62QcX+8jUehZ8faLa3/oz+2xW3FNSuH7tafuG4Jvaw/ci3uB/mM+kUEhpEA/jaz08tEiyyzMttlecyipLOZSTQ2NvriFjEmD5lfsuNjiZk3dfHhd06R2n1m/SQ7QWlLZlaWiIpydp8o2iIWrrPMRmIWHSa7zjWLUJmd95XMhrAs+lAf8pnlpyX04B7La2aXLStiL4loIOSNHSSLDkwu7WOJ/ERNpNg+a0fuWR1ElXCyJWP0tnt5oWd+MZ6hXuQ322O9rDzLoSSWFUnYbUvhZrMxs35gOrAMmZbMtmLbllWNOGoN5VobGGPuYadF4pYXvlwLmXGvv35CnlBXa6OwPrtmsvp6PvpqW+t32Bv2DRibPYV4s0JCMvlhn8F2OyBpPKzNQzusTWMdqTtcOjcZ4U/0wv64H6Tl1TURGE4CmSwvD7VB9hCmDS6hc+IBNmfDUifLkAxyDNQk7rNEZoMTS7ppye7Hg619jx1inC9NZnytrzr6GojNLpjYwIXz6ssu049JSl+pkB2hAzfdGGTDwZFBtVB5qzPm3Z9eTGCQyxIz7WjO25b3kZtERf4+AzP9wwb/Qgyt7WJdh7Jt0Su2lYmDLecXw6qvdurvXuh84+cjbTIQy4vZhPcL8e5PRiwzrf+HecL2i8vGdfG9WL3SyuqaCAwlgYp3uuyFMagy8FsUSZTFYMJsutDeJ/nZK+RD9MM+G87Xolkg2wAdA2dgIm98P4wk4zID/W42YIc5NX63QTJ0dKFss4tr6MNeF84Xh2RlYr3NOcYyiYgs+keeRUh9DXImg5/xSfNCDGygj/UqhifRLnuaOCwGYuoNIyL6Bn3A9quxNY6UQr2Gum3RBx1ilrGt9Cf0t713dOJE/3AkJh/9PR9p9VrboiefuB/AtT/eVsb6ktUTf6cudKQP2DMc9v247jR97VoxevVVXvdEYCgJVJTT5cHEycYPE9/DJWoGXR5+HKkd0LJlO1uSZJDGKccze2ThaHBWPKz8JFLk4WdpimVx5FOe6ATniAzkm/MPHVUxjWUOFnnItuWy0AYGuXi5OJZtkwezi4HJIip+Z/BiMMMu9CeiooxF+vESndlHGeyzCUChiQz6xHXAznTn51NPPRWr7e2N9UJH9ELvvniG0S6Cw0NXNjBjoznw/v4IxlC3LfKwI41lLxDJBThjL/nDaC4t72CvoRMTsfj5oG76dyHetJGtLFCWfoaO6Eo7WLmQd3xIijwc0qIv4/ytb1n7mE3IpqzpSD22ElBIv0I8BtMPCsnSdRE4WwIV4XRthh0+zGY4D3v8qgaDCg6Ch9ROdpIfOeZkeYjjAZhy5lCIjDilyYDCh8TDS3l+MrgzKISDCvKffPLJPtskbYbOCUvqYjDiwwSCwS/NBvTjflqi/kJ22UCFXTAJJy/oFE5aTEfKhIyQH55wJl+aYwjrsHrIG7/aYzZwr5BexZxqt2gX/cKJA21FnbQfp1dJ2ARXszFuD74Ptm3T2sT6J33RWFo/DB0NfZj71qdsImLRXZrstGuxPeSJr8GA+vp6PtJkc43VC/pPuJyPfJssmtyQd2hnIR5cZ6JlutJurAbQduEzTD3W/2O7TGe7buNGX/2gkJ26LgLDRaAu6djdTU1NwyV/yOTGS4I8WDxUhR48KrblKRwDD545XFMKmTaopd0nn+WxgTKuL7xvDtvkI5tPeB1dKMO1UBbXGZzIz6Bo9/qzIQ3wQOyinlgX6jRmVj/1xPnQl3yx3THftDrS9A55D6SMlaONbKAN5cdthMMIbYm/x/ojM7YxrW0L2cR18qOHyQoZWzljje30R9hyLa7b8qf1pWKvmU7WhrGN/dlnTNPaqT/eYd38jn3W/+Mo1phYf4yf4b7azmQbr2L0srz6KQLDQaC1tdVVjNMdDgCSKQIiIAIiIAKlIoDTzeyVoVIZqXpEQAREQAREoFwIyOmWS0tIDxEQAREQgaonIKdb9U0sA0VABERABMqFgJxuubSE9BABERABEah6AnK6Vd/EMlAEREAERKBcCMjplktLSA8REAEREIGqJyCnW/VNLANFQAREQATKhYCcbrm0hPQQAREQARGoegJyulXfxDJQBERABESgXAjI6ZZLS0gPERABERCBqicgp1v1TSwDRUAEREAEyoWAnG65tIT0EAEREAERqHoCcrpV38QyUAREQAREoFwIyOmWS0tIDxEQAREQgaonIKdb9U0sA0VABERABMqFgJxuubSE9BABERABEah6AnK6Vd/EMlAEREAERKBcCMjplktLSA8REAEREIGqJyCnW/VNLANFQAREQATKhYCcbrm0hPQQAREQARGoegJyulXfxDJQBERABESgXAiMPHaqzn1vc3e56CM9REAEREAERKAqCdx/lXMjsey1d+uq0kAZJQIiIAIiIAJlQYB15cTp/n+fV5kuJQYsyAAAAABJRU5ErkJggg==;imageBorder=#B266FF;strokeWidth=2;" parent="9RFhBGHadp-DHh5qUiH--1" vertex="1">
          <mxGeometry x="180" y="1630" width="466.03" height="170" as="geometry" />
        </mxCell>
        <mxCell id="lmGHlfPtInGPxrxWDnL5-21" style="edgeStyle=orthogonalEdgeStyle;rounded=0;orthogonalLoop=1;jettySize=auto;html=1;entryX=0;entryY=0.5;entryDx=0;entryDy=0;" parent="9RFhBGHadp-DHh5qUiH--1" source="lmGHlfPtInGPxrxWDnL5-6" target="lmGHlfPtInGPxrxWDnL5-20" edge="1">
          <mxGeometry relative="1" as="geometry" />
        </mxCell>
        <mxCell id="lmGHlfPtInGPxrxWDnL5-6" value="vv-bff-negociacao" style="rounded=0;whiteSpace=wrap;html=1;verticalAlign=middle;fillColor=#d5e8d4;strokeColor=#82b366;" parent="9RFhBGHadp-DHh5qUiH--1" vertex="1">
          <mxGeometry x="860.05" y="1900" width="155.81" height="60" as="geometry" />
        </mxCell>
        <mxCell id="lmGHlfPtInGPxrxWDnL5-7" value="persistir desconto" style="edgeStyle=orthogonalEdgeStyle;rounded=0;orthogonalLoop=1;jettySize=auto;html=1;startArrow=none;startFill=0;fillColor=default;exitX=0.5;exitY=1;exitDx=0;exitDy=0;fontSize=12;" parent="9RFhBGHadp-DHh5qUiH--1" source="lmGHlfPtInGPxrxWDnL5-8" target="lmGHlfPtInGPxrxWDnL5-6" edge="1">
          <mxGeometry relative="1" as="geometry">
            <Array as="points">
              <mxPoint x="668.05" y="1930" />
            </Array>
          </mxGeometry>
        </mxCell>
        <mxCell id="lmGHlfPtInGPxrxWDnL5-8" value="" style="ellipse;whiteSpace=wrap;html=1;aspect=fixed;" parent="9RFhBGHadp-DHh5qUiH--1" vertex="1">
          <mxGeometry x="658.05" y="1980" width="20" height="20" as="geometry" />
        </mxCell>
        <mxCell id="lmGHlfPtInGPxrxWDnL5-9" value="import&lt;br&gt;&lt;br&gt;remote component" style="edgeStyle=orthogonalEdgeStyle;rounded=0;orthogonalLoop=1;jettySize=auto;html=1;entryX=0.75;entryY=0;entryDx=0;entryDy=0;fontSize=12;startArrow=none;startFill=0;strokeWidth=1;fillColor=default;" parent="9RFhBGHadp-DHh5qUiH--1" source="lmGHlfPtInGPxrxWDnL5-10" target="lmGHlfPtInGPxrxWDnL5-4" edge="1">
          <mxGeometry relative="1" as="geometry" />
        </mxCell>
        <mxCell id="lmGHlfPtInGPxrxWDnL5-10" value="&lt;span&gt;Negociação&lt;/span&gt;" style="ellipse;shape=cloud;whiteSpace=wrap;html=1;fillColor=#dae8fc;strokeColor=#6c8ebf;" parent="9RFhBGHadp-DHh5qUiH--1" vertex="1">
          <mxGeometry x="466.04999999999995" y="1430" width="128" height="84" as="geometry" />
        </mxCell>
        <mxCell id="lmGHlfPtInGPxrxWDnL5-11" value="v1.0 - Desconto/Negociação" style="text;html=1;strokeColor=none;fillColor=none;align=center;verticalAlign=middle;whiteSpace=wrap;rounded=0;fontSize=22;fontStyle=1" parent="9RFhBGHadp-DHh5qUiH--1" vertex="1">
          <mxGeometry x="698.05" y="1560" width="321.95" height="30" as="geometry" />
        </mxCell>
        <mxCell id="lmGHlfPtInGPxrxWDnL5-12" value="vv-viamais-calculadora-pagamento-api" style="rounded=0;whiteSpace=wrap;html=1;verticalAlign=middle;" parent="9RFhBGHadp-DHh5qUiH--1" vertex="1">
          <mxGeometry x="860.05" y="2000" width="239.95" height="60" as="geometry" />
        </mxCell>
        <mxCell id="lmGHlfPtInGPxrxWDnL5-13" value="consultar resumo" style="edgeStyle=orthogonalEdgeStyle;rounded=0;orthogonalLoop=1;jettySize=auto;html=1;startArrow=none;startFill=0;fillColor=default;exitX=0.5;exitY=1;exitDx=0;exitDy=0;fontSize=12;entryX=0;entryY=0.5;entryDx=0;entryDy=0;" parent="9RFhBGHadp-DHh5qUiH--1" source="lmGHlfPtInGPxrxWDnL5-8" target="lmGHlfPtInGPxrxWDnL5-12" edge="1">
          <mxGeometry relative="1" as="geometry">
            <mxPoint x="640.9599999999998" y="2039.97" as="sourcePoint" />
            <mxPoint x="860.96" y="2030.0022580645161" as="targetPoint" />
            <Array as="points">
              <mxPoint x="668.05" y="2030" />
            </Array>
          </mxGeometry>
        </mxCell>
        <mxCell id="lmGHlfPtInGPxrxWDnL5-14" value="" style="edgeStyle=orthogonalEdgeStyle;rounded=0;orthogonalLoop=1;jettySize=auto;html=1;fontSize=14;startArrow=none;startFill=0;strokeWidth=3;fillColor=#d5e8d4;strokeColor=#82b366;exitX=1;exitY=0.5;exitDx=0;exitDy=0;entryX=0;entryY=0.5;entryDx=0;entryDy=0;" parent="9RFhBGHadp-DHh5qUiH--1" source="lmGHlfPtInGPxrxWDnL5-1" target="lmGHlfPtInGPxrxWDnL5-8" edge="1">
          <mxGeometry relative="1" as="geometry">
            <mxPoint x="530.0699999999999" y="1960" as="targetPoint" />
            <mxPoint x="278.0499999999995" y="1960" as="sourcePoint" />
          </mxGeometry>
        </mxCell>
        <mxCell id="lmGHlfPtInGPxrxWDnL5-15" value="&lt;span style=&quot;font-size: 12px&quot;&gt;consultar alçada&lt;/span&gt;" style="edgeStyle=orthogonalEdgeStyle;rounded=0;orthogonalLoop=1;jettySize=auto;html=1;entryX=0;entryY=0.5;entryDx=0;entryDy=0;fontSize=14;startArrow=none;startFill=0;strokeWidth=1;fillColor=default;" parent="9RFhBGHadp-DHh5qUiH--1" source="lmGHlfPtInGPxrxWDnL5-16" target="lmGHlfPtInGPxrxWDnL5-17" edge="1">
          <mxGeometry relative="1" as="geometry" />
        </mxCell>
        <mxCell id="lmGHlfPtInGPxrxWDnL5-16" value="" style="ellipse;whiteSpace=wrap;html=1;aspect=fixed;" parent="9RFhBGHadp-DHh5qUiH--1" vertex="1">
          <mxGeometry x="738.05" y="1705" width="20" height="20" as="geometry" />
        </mxCell>
        <mxCell id="lmGHlfPtInGPxrxWDnL5-17" value="vv-viamais-desconto-api" style="rounded=0;whiteSpace=wrap;html=1;verticalAlign=middle;" parent="9RFhBGHadp-DHh5qUiH--1" vertex="1">
          <mxGeometry x="908.05" y="1685" width="155.81" height="60" as="geometry" />
        </mxCell>
        <mxCell id="lmGHlfPtInGPxrxWDnL5-18" value="Consultar informações do produto" style="shape=note;whiteSpace=wrap;html=1;backgroundOutline=1;darkOpacity=0.05;size=14;fillColor=#f8cecc;strokeColor=#b85450;fontStyle=1" parent="9RFhBGHadp-DHh5qUiH--1" vertex="1">
          <mxGeometry x="190" y="1940" width="130" height="100" as="geometry" />
        </mxCell>
        <mxCell id="lmGHlfPtInGPxrxWDnL5-19" value="" style="shape=cylinder3;whiteSpace=wrap;html=1;boundedLbl=1;backgroundOutline=1;size=15;fillColor=#d5e8d4;strokeColor=#82b366;" parent="9RFhBGHadp-DHh5qUiH--1" vertex="1">
          <mxGeometry x="1222" y="1883" width="60" height="80" as="geometry" />
        </mxCell>
        <mxCell id="lmGHlfPtInGPxrxWDnL5-22" style="edgeStyle=orthogonalEdgeStyle;rounded=0;orthogonalLoop=1;jettySize=auto;html=1;entryX=0.01;entryY=0.578;entryDx=0;entryDy=0;entryPerimeter=0;" parent="9RFhBGHadp-DHh5qUiH--1" source="lmGHlfPtInGPxrxWDnL5-20" target="lmGHlfPtInGPxrxWDnL5-19" edge="1">
          <mxGeometry relative="1" as="geometry" />
        </mxCell>
        <mxCell id="lmGHlfPtInGPxrxWDnL5-20" value="vv-negociacao" style="rounded=0;whiteSpace=wrap;html=1;verticalAlign=middle;fillColor=#d5e8d4;strokeColor=#82b366;" parent="9RFhBGHadp-DHh5qUiH--1" vertex="1">
          <mxGeometry x="1062" y="1900" width="120" height="60" as="geometry" />
        </mxCell>
        <mxCell id="lmGHlfPtInGPxrxWDnL5-24" value="&lt;span style=&quot;font-weight: 700&quot;&gt;@Input ?&lt;/span&gt;&lt;br style=&quot;font-weight: 700&quot;&gt;&lt;br style=&quot;font-weight: 700&quot;&gt;&lt;span style=&quot;font-weight: 700&quot;&gt;@Output desconto {}&lt;/span&gt;" style="edgeStyle=orthogonalEdgeStyle;rounded=0;orthogonalLoop=1;jettySize=auto;html=1;entryX=0.5;entryY=0;entryDx=0;entryDy=0;exitX=0.5;exitY=1;exitDx=0;exitDy=0;startArrow=classic;startFill=1;fontSize=12;" parent="9RFhBGHadp-DHh5qUiH--1" source="lmGHlfPtInGPxrxWDnL5-26" target="lmGHlfPtInGPxrxWDnL5-62" edge="1">
          <mxGeometry relative="1" as="geometry">
            <mxPoint x="1387.9900000000002" y="1510" as="targetPoint" />
            <Array as="points">
              <mxPoint x="1762.95" y="1903" />
            </Array>
          </mxGeometry>
        </mxCell>
        <mxCell id="lmGHlfPtInGPxrxWDnL5-25" value="" style="edgeStyle=orthogonalEdgeStyle;rounded=0;orthogonalLoop=1;jettySize=auto;html=1;fontSize=14;startArrow=none;startFill=0;strokeWidth=3;fillColor=#d5e8d4;strokeColor=#82b366;exitX=1;exitY=0.5;exitDx=0;exitDy=0;entryX=0;entryY=0.5;entryDx=0;entryDy=0;" parent="9RFhBGHadp-DHh5qUiH--1" source="lmGHlfPtInGPxrxWDnL5-26" target="lmGHlfPtInGPxrxWDnL5-38" edge="1">
          <mxGeometry relative="1" as="geometry">
            <mxPoint x="2078.05" y="1790" as="targetPoint" />
            <mxPoint x="2418.05" y="1930" as="sourcePoint" />
          </mxGeometry>
        </mxCell>
        <mxCell id="lmGHlfPtInGPxrxWDnL5-26" value="" style="shape=image;verticalLabelPosition=bottom;labelBackgroundColor=#ffffff;verticalAlign=top;aspect=fixed;imageAspect=0;image=data:image/png,iVBORw0KGgoAAAANSUhEUgAAAd0AAACuCAYAAABz/Ne1AAAABHNCSVQICAgIfAhkiAAAIABJREFUeF7tnQ2QldWZ508j39DdIKjQoBLRCH6g4pYwFRyT2uAmkNTMRBN1s6kJ7JZudrcWXHWrkqwfaMxUje6AU/uls0B2nCrcVbayVRJHmGwmalaxSvC7dSIkAbobAwrdzXcDve/vXJ7r6dPv7b7ddN/3fvxP1a3u+77nPOd5fue85znPOeftrmtpaemeNGmSUxIBERABERABERg+AgcPHnQjhk+8JIuACIiACIiACIQERvKl89BhUREBERABERABERhmAt7p1tdPHOZqJF4EREAEREAEapvAwQMHnHe648eNq20Ssl4EREAEREAEhpkATld7usMMWeJFQAREQAREwAjI6aoviIAIiIAIiECJCMjplgi0qhEBERABERABOV31AREQAREQAREoEQE53RKBVjUiIAIiIAIiIKerPiACIiACIiACJSIgp1si0KpGBERABERABOR01QdEQAREQAREoEQE5HRLBFrViIAIiIAIiICcrvqACIiACIiACJSIgJxuiUCrGhEQAREQARGQ01UfEAEREAEREIESEZDTLRFoVSMCIiACIiACcrrqAyIgAiIgAiJQIgJyuiUCrWpEQAREQAREQE5XfUAEREAEREAESkRATrdEoFWNCIiACIiACMjpqg+IgAiIgAiIQIkIyOmWCLSqEQEREAEREAE5XfUBERABERABESgRATndEoFWNSIgAiIgAiIwMisE77//vtuzZ4+7+eabh0WFjo4Ot27dOjdz5kx36623DksdQyUUXeERp4aGBnfFFVfEl/VdBERABESgQglk5nTvuusu73Qfe+yxYXGKr732mnviiSd8s+C4ytl5Pfzww27jxo2pXQjHu3jxYrdy5Uo/gajGxKQDO5VEQAREoNoJZOZ0cbjDmczRMpiX+4BuLHCqCxYs8FhwRC0tLT4CxiFv3brVbdiwoeocL7YvXbrUt9GmTZvKvq2Gs89KtgiIQPUTyMzpDjdaHBiDeCUlHO7jjz/eQ2Wc0h133OFXBfj58ssvV5JJ/eqKXUww7FPuE6R+DVIGERABEeiDQFk5XZaEGYTZg2UQfu655/xPota0vV/yEwmSBye7cOHCHpEg5Um2p2sykUV+yvPhPt+5jzyTiQOwvH0wzN8KdR5o2ULy0YsleHO8mzdv7sXC7EAGDPjEKWRlqwDxcjX6I98i7zRZxeShPOzhCgeTGTMx1qar7fOjV6hbaF+hvhDbq+8iIAIiUI4Eysrpss/LoM6yKoeg+N0SDoDlVUtr1qzJ79mGYG2PmIH6vvvu87dwnAz4yGSfl8G9ubm5x+ElBnPyh3VSlvxPPvlkqiML603T55FHHnHLli1zDzzwQJh1wL9jO1EwS8yh0w2jYBOKvnGd2GUTEMsHD1jZZAYmts8eyrIVA/KTB+cfMqI+8oRL37BgSZw2oC3NiSN3/fr1+XZkWTlM1E+65ZZbfMSfZh/3qY82Ked9+h6G6YsIiIAInCFQVq8M2WDOoE2UxMBqUWoY7eB4bLAnDwP+8uXL/WCMM41T7Ei3bNniB3QG9/vvv9/XgUMhIcdkcoCJsjjPvhIOzQ5tceAJfXBoOCqcjN3rS0Z/9yzyw4lZsugXnVl2ZjkdR0Sd5mRhxe/mqIyVOVFkwcIcLuXRHQY4enOY5gDhgaPmPh/kcs8mOKEdTBK4jzw4Uyd50c+u0waWsIN8/CSZfegUtonpG7drWLd+FwEREIGyJJAM4t1ZpFmzZnXzefbZZ/PV27V77723h0rz5s3zedeuXeuv85PvS5YsKaj6q6++6vPw2b17t8+3evXqXtdCAe3t7T3kUc5kxPfCjOhBvlhvqw/9+0q33XabL3/PPfcUzMY98tx+++0+j9kXy7brls90sO9WQWiP8Vy0aFF3bKexW7Vqla+fPGF677338oyom2S6xnlNRqhLWjsh48UXX0xtK/SL+0MPhfRFBERABMqUAP62rJaXbVZiJ3jtOxESUY1FNiy3WqR24403+ojM9h8tIuxrhhPv/YZ5iQqJpPiEkRS/U2dasiiZyDhMRNBEuZRFXjG6pcnnWhzVEflbSpx9/nfLZxEqtqID+WNWZg/RMImIMrbRdDYb47ahjEW75An3k+Pl31h2XumUX6y+uK2QAWeWry1PSnFdEgEREIGyJFBWy8vFEmIwZynVDlwxALO8iVOJ9y6LlYnjueaaa7wclkXLLZlOsdOLHRnfWbK1JVqcFkvPMSuWbs3Zmq319fX9mt3Y2NhvnoHI609YPNnoL7/ui4AIiEA5EyjLSLcYYLYnyH4hEQ/7wOzVEtXZPnAxcixPuCe7YsUKfxm5yOwvWaRn0aXlDyOx2Dn2JzO8j23mfMw2i0C5Hr9mFMsuxIq9VTudjVNP2w83WUx0yBNHlxbFk+9sIvlYZ+MVMyWfXRvK+uL69V0EREAEhoNARUa6nEJmSdUGXxyCLWuejXMDcLJnmOdcbNRsh4FwYqYTP+0AFo6yGL1wYHZgjJ/Un+x/9jikZY7GTmRTJjyoxffwJHVfrGJHjkMNZVH/nXfe6R2+nXJGL2SSrC5+Ry/LkwdYxC+h4wwdrDGL7cM2i/oHM7kqQiVlEQEREIFhI5BZpIsTskF/oNYx8BOBsqyMHD42YA9m4Kd+HCdOB8fJoJ4WYRXSk6VcdKEMS9yhbTgVi5wLlTeHjE1pkTX3ORXNq0CWuMZJX5bDcUQ4wjQOxbBiwoINyEAWnzDRTuTBDpwykwlzztaG6DKYBB97HYolb75jJ/pQH3WZfci3+qr5z2IOhqPKiIAIVAaBc5KTpg8Vs5c31Obs37/fjRkzxg+u5nQ6Ozt7XbN6d+7c6d93Je/Xv/51PzgzAJ84ccJnYeD+3ve+l9/LJN/27dvdhRde2OPam2++6ctfd911PUziu8lEt2uvvdY99dRTDp2QZXukaRzMjlAnfv/2t7/tX5c577zz0orlr1F+3759vv7wg6MjmmP5ODygZAWJ8LmPjsePH/cfOFAvTgm5hVg9+uijPZbhb7rpprz9dXV13mZk/+hHP3KzZ8/2VdqhJuOOfA41xfox+YAhelhZyiMzjT/1GDvqvvLKK3378AntQwb2xbobD/0UAREQgXImwFhdxxHmpqamctZTuomACIiACIhAxRNobW11FbmnW/HkZYAIiIAIiEBNEpDTrclml9EiIAIiIAJZEJDTzYK66hQBERABEahJAnK6NdnsMloEREAERCALAnK6WVBXnSIgAiIgAjVJQE63JptdRouACIiACGRBQE43C+qqUwREQAREoCYJyOnWZLPLaBEQAREQgSwIyOlmQV11ioAIiIAI1CQBOd2abHYZLQIiIAIikAUBOd0sqKtOERABERCBmiQgp1uTzS6jRUAEREAEsiAgp5sFddUpAiIgAiJQkwTkdGuy2WW0CIiACIhAFgTkdLOgrjpFQAREQARqkoCcbk02u4wWAREQARHIgoCcbhbUVacIiIAIiEBNEpDTrclml9EiIAIiIAJZEJDTzYK66hQBERABEahJAnK6NdnsMloEREAERCALAnK6WVBXnSIgAiIgAjVJQE63JptdRouACIiACGRBQE43C+qqUwREQAREoCYJyOnWZLPLaBEQAREQgSwIjMyiUuo8fbrbHTp02B05ejQrFVSvCIhADRMYM3q0q6+f6EaOPGfYKRzq6HbPrDvofruty+15+viw16cKcgQmLx3pzrtslPsnd0x0198wtiyw1LW0tHQ3NTWVVJmTJ0+5/Z986k6dOuVG1NW5Eeco4C5pA1RBZadPnXanu7vVf6qgLbMygXGINHlSoxs/ftywqGHO9oW7D+bl17tRw1KXhPYmcMydcl3utL8B9z/bM81Nn5FZrOlaW1tdJrWbw21IZpnMNJVEYKAEjh8/4SduEyZOcPQjJREYKIETJ7p8H2rv6HTjxo11dUkAMJSpreWkW/W1j92+N0/4Af+r6xrc0lvr3cT6oa1nKHWuRlnbXj/u/nZDp3tjTaf7dzNb3D/bONUt/caEzEwteYhJRyfCZWYph5tZu6tiEah5AqNHj/Jj0OnTp93hI0O7zUWE+/2Zbd7h3vTQJPeT7pnutmUNcrgZ9Lr5N4xxP1g91f1w63TXndS/7pbfu22vH8tAk1yVJXe6OFwS+ylKIiACIpAlASJcUldX15CqsfYvDrhOd9ItWTPZ/dsHJw+pbAkbHIH5yZ7uquZpyZrDCPeXC/Y7JkZZpJI73e5kH05JBERABKqVAMvKL61q90vK/3zFpGo1syLtunzOGLd4dWMyIepyz6xvz8SGkjvdTKxUpSIgAiJQIgK/3HLE1/TNjYpwS4R8QNV8a3mDj3ZfWXloQOWGKrOc7lCRlBwREAERSAhs/V+HPYebvjxePMqQQH3DCDdv5QQf7ba15rY7S6mmnG4paasuERCBqidw4IWTfml5YoNOKZdrY19wce7FnbY9J0uuopxuyZGrQhEQAREQgSwJXHBhJm/LepPldLNsedUtAiIgAiJQUwTkdGuquWWsCIiACIhAlgTkdLOkr7pFQAREQARqioCcbk01t4wVAREQARHIkoCcbpb0VbcIiIAIiEBNEZDTranmlrEiIAIiIAJZEpDTzZK+6hYBERABEagpAnK6NdXcMlYEREAERCBLAnK6WdJX3SIgAiIgAjVFQE63pppbxoqACIiACGRJQE43S/qqWwREQAREoKYI1KzTbW/vcO+83VxTjS1jRUAEREAEsiVQs063rfVjt3Pnb92RI0ezbQHVLgIiIAIiUDMEsvtXC0OEuK3tY7f7dy3uxMmuHhIbGxpc46R6d9FFM3tc7+o66XZ89Bu3a3eLv75t29tJnhlu+vRpbtSo/nHs2rXH13f46FE3fvw4X7ZQHW17f+/raGyod3PmXubz95WIvnd89Fu3/5NPfd7p0y5wF108s5dexejQVz26V5gA/Wln0gYnTp707Xb1vCt68If9Bx985G6++YuFhaTc+aD51876w4Rx49xV8+b26g9MAGn/tr0fJ3WOKrrf7N//SaLz79zBjo6CfRKV0OGT/Z962wrpkKK6LpURgV9uOeJ++kS7+5MVje4PF/f+f71tLSfdf/7+p+7wpz3/T+yEc89xC/9ogvvaLRPy1pisf/X4FHfZnNGpVvaV5+//7oj7u78+5PY8fdyNvXaEm3r1qF51hEI3/KTdvf7cEVeovoHonqpshVzs38uUuSFErAxSIxOHyUBF6urq8oML6UjiHOdcflnu92RQe+WVre5o8pP84xLHhqPbvu1T98H4j9yXvrSol4MLzWfQ+vDDj3xZnCJ18Ok6cdLNvnRWPit1dCRyLd/uxMHvTRzwF7/0hV4DrRViwKXcyWRS0NBY7yPwd99t9rYtWrQgL7tYHUK99XtxBGD++tZtCf8GN3XK5GQl5He+/xh/7uNwB5reeft9L4v+MCmZDNKmfL6QtOvUqed6cdb+9E36JX2YfsMErK9+ySRg+7Z3vAz6jfXn9oOdyYRhbl7VYnQYqF3KX3oC62/+JPnn6yfdf910wv1h98W9FGhNnG7z04f9df6nr6Vd7pi//vy1o91/2z7DX/7Vz464XZuOuZe+fKSg07U8Hy7vyuc51NHt7r99r9v1wrF8Pcfe7HbNbx72dby9st79YPXUfN38gkN9cVmH1/2/uE/c6uen97jPlzdey+k4Kvnnd2PdOfn7pvtziT3/qX1Gxf+f4op3utYyV189t0fEySD2i1+84j5s/shddOFM7+y2v/G2d7iXz7nMzZlzab5RiS52nFlqbkwGrrSEPBwuAyKDMPLydSTXLSJlEMThTms63y244Xov6p13k0E3iUSIqkMHGtaDbjjcq5LIavYluYfpVy9vdfsTp45MomnTgXIMxIV0SNNf1/onwAoIaf78eY5+0NHe6fmzOsIqCBMe+s/iAUS5bW17vcOl35jz3JWslGzf/nbiwH+d7w8mO+yb25I8rKrs2Pmb/MQxtsImAUzoGpPJgvVJtk6mN13gnbqPhCMdsOtXySTvnXeaE72+EIvV9zIk8PzGQ95p4ZROuNPu+Y2He0Suoco43J90f7bK19Z60q1a+rHb9+YJ9/z/Tsp947OId6Cmrv2LA97hUscPm8/PO2PqWP/YQfcPaxJnvLqnVByq6Y6j3/b6MTf/hrGpVc9bMdH9YM2U/L1Q900bO91tyxpSy1XKxard07XlWRqCWT+JJWHS9OkX+J+WiFJZLizkcMnHwEWaet65+WiVOohciEoYXEkMkqTZl3zO/yQRaRPl+Kg4GcDjRHkiGiJ1c7jkueTSnPNta8stU5sO0xL9bana7Ax1iOXre3EErG1smwFHSYItzozI88KLZxRcrUirpa0113azL5mVX0W5KJGBbPoDcklEviS2KywxWSThpNMS/YFJwJTEseJwSfSHiy7Mydj/Sa7PshpECnXAGaMDE8T2ZHKhVP4Enl/V7pVc1ZxshSWO9+frO4pWenrTSPfFFbmAYuc7J4ouF2ckYn3pjB5/1jKtR4RMHUS4obO38s/desA76e9szDnTpx8+EIsu+B25X/sPjf7+jre6CuarlBtV63RpAAYU0qjRuYCefSwSEYYNdv5CEWn/vtxydWN9z1kWAx7pyOHc4Mm+GsmcIr/jTG3pO61elgRJLA+GqbEx19HsfvvBXD72GsNkdWnw7IFlwF/M2VpBnC2JtmN5lokTEyic85EjR4qSj1MkNU7q2W+sDXGc9AlWOagn7Dc2CTQZcYXWL8af6dd23+qyySYRe5oOU6fk+m57e24wj+Xre/kQeCOJDPclzvL6ZOn28jlj3LyVE/zSMBFjsWnnWzlnO6GxrtgivfJ92JyTcV6yTI0zLCZZhP75lWPd0m9MdBd9deyAdX/7lZydF8z6bNm5mLrLMU9x1MpR80gnokFzfNwiimjv6PSzeds34/AK+6Z7k8MyfHJ7d+cmnef8JM9nyxlp5uYH4DMOPM5jzpTBkxQOnnzH4TN4mpywfNq18L4NuhaJjZ/Q80CWfe86UfmzwJhrKb9Pb5rml2HZbmBFg/5DH2EVgz15ln53/W6P32Yg0bdYirb+laarra7YpMvyhN/NgePUw9QzT+7gXnifswSkuK/Zd+tXpkOaflwzOYXu63r2BP7moVxk+JU7chPur9wx0b2xptMRMc5P2R897k4ly8+H8orv3d3l85OWfGvioA3a8W7O6U695rP94v6EEeWSlt03yf/8zkOT3aMvtLm/3XAodYl51y+PubVrDubF7tx+3H3w10d8dH82uvenZ6nuV43TNUdq4BjALpk9K9m7zR2i4jpLcOyr7diRnBBOIgwiYT7sf12SLP+FB0/iBogHzfj+2XxPW3I+G3kqOzgCOM/Lk0j2ww9/7fsEDnfBgvl+opabvE1O9kFf9/v1RLxbk0NXHLxasvTL/VYYR9FhgeHsW/0qpgxlT4AlXdtDnX/DGK8v+6FhxBjvj7Lnu/7WfT1sw2l94yeTi45Q08BMmJRbHB0/qbiI06JcInSLjNF1ohvpJwGHVk3pdTCKfeefJR9L6H3RknHuX/7Hs9M9zZ4srlWN0yWK5RUbZvccWGJJjWXleLAjCuDQFYnolGVjf9ApOHjSV0MUigosusDZE+0iO4xA4leawjpsPy52vhap2N6i2RJG9N6OM0vbo0YXP/vsy8Zavjdn7qXJ612X5tvPDjhdd90831dI7NfTZtOnne8jY5b1C50HoM1YYI77g61ejBo5Or/1YKskafzjaJY8tm0Sb1nYd3Pm+VWWM5Gxybf+NX5871dP0nTQtWwIrH88F/WNvbbO/fju/b2USIt2RyeO6r6t0/J5JzaMcE0zRrqJ9YNfWkbYxPqc0yUaLSbZPvS+X3f10N20eGZ9u/sXK3IRsMmb+6cT3L/+8RTX2XHavfBMp99DnrVgtF9Wr4ZUNU531MjcazzJol8SnVyfP7k8dcqUgst/DGQcaiHq9a9n7PukYF7e+d29OzmUdWb/1Rrfvtv+KwerOBTFflq4zGf7amlLkZYvt/ycOymLfFt2NKdse3XxIJvXIalbaWgI0CZw5lQ7B9foJzhgkrWXObW+tgd4X5y2Zz8+bHtb8qVfIY/JGnLspDT12ME5Iu60ZH2O15rCFO/9c1aAPhnvQ7N8Toq3K9Lq0rVsCBDl2rIwESCfOKWdBh6TvHJjUXGc/2y+35S8G/w3iUNHD3SbnjjyQsn2obmPjrz6E6efr2x3ty9r7BHtEkVPb8p9Pv/Qua75/xx1Lz3Y7iY0jujloGN5lfC9Kg9SMYjZu7lEvQxkDGibNm1x25JXc0Kn5aPdZEAi2SCW1nD2BzDY27Py/OS7X3pM9gBJLD2SeM3DEnuEJE6+WmIAt+sM3hxqQUcrh87vvPOBz04E738mgz+Dc5oO3DcdfGalsyZAGxF92sqIRZZ2QMn6gU2K0irkVTISf4zFVjJ27PiN39/HmZoDtxPH5th9mTOnlu0UM/XRf+1ENE7cTsXzChCJPPZHOKxu9qpJ9lqc//2MDvTdQlG6L6SUKQGLcpdvPN9t7P5cr8831+fOorA/WopUn0TMf/Bgbl/5+zP3esdr6cMPjrsf/unH7rt1e/wl24cupPuS1ZP9q09Eu32luzfk3vnFQYf19VWmnO8VnqaUs9ZF6MZrQOzz4lBxZLnXJUb5iJaPLdnaMt+FyXuwHKgqlHCMV1011//Bii2b/94PmHY6evaln8svY8+e/bnkvdoWf5ALJ0856qA+mwgQmdphHN6lZOC1Q168V8ygSlSS+0MZDT7KIiELGaEOFr1wyMcG8EI26HrxBHBe8StCTLx4L5btCKJQXvMhCo63MMJacIxMtniVbPPmX+T7A85y/vyr81npQzhLtjmQywSM9qffWPvbigyTrulNuX1kDnKxr8w7t+S1cmF/CHXg3XXrk1ROeaXyJMDyqkW58xemL61yGvinyw7k90fNEpaii00/u/uA4xOm+D3f8N6KJPr8/W+6/OGmfzNztz/gNDb58B4u6R8l+7fhPvTSAu8Ef2t5g68XZxovMYf1sayMgybvn9+1L/UPaxRraznkq3inS5TBQJN2+vi66+f5P4jRWN/oBxrexeXP/DGosT+HM+SVHyIJG9j6ahQcOXJ279rj/+zktGRPj8EyXjLmD2AQpeD0yTc9OdA1O/mYU0RnyjJ4WrJDXh8kh3hYHiQvf5qScmGKdSBCTtOhLzt0r38C9I9wokQJ2p6DeLw+xIQLJxwe1CskdX6yHzz13Cm+37CsfGHyHi3tGEbItDf9hvY/euioO5E4ZWt/c+r0cfqrbVVQH6sf/GEMImSWmXkViXJxf07TgUg47ruFbND10hMgquQA0qV9vJ5Dnj9ZN9m9/Ytjfon288mfc7z4K+Pcwtv736fnBLTrTnfOl16XOx9yzY1j3eFPTrvrI6f/6P+4wG36o0Pu//30iDu677Q7sveU+/xNDe4r/3SiX9ZmwoAef3xv+tYINNF9aeJMTYXr/2Cs+79JmUVf7/3ncnHQO7edcNf84/Q/qFH61hl8jXUtLS3dTU1Ng5cwwJJEEAcOtrvJkxozjcwYpIg2+etCWUSI1M+S40D/hu8AcVdt9uPHT/hVjPr6ia4h+dRKYnk5CSocTlTp7AmcPHXKffzxPj8GMCYNRfpuXXL4w9Wl/pGIoZAvGWdPgFPVnO7+4damYdn7LqRha2trcm67RhPLul3JH37PwuGCnOXnQn8SskabRGb3QyB30KrL/xMGJREQgcokULNOl6W9q68uvPQx3M35hRsXDHcVkl9lBFjeXrDw+iqzSuaIQG0RqMrTy7XVhLJWBERABESgUgjI6VZKS0lPERABERCBiicgp1vxTSgDREAEREAEKoWAnG6ltJT0FAEREAERqHgCcroV34QyQAREQAREoFIIyOlWSktJTxEQAREQgYonIKdb8U0oA0RABERABCqFgJxupbSU9BQBERABEah4AnK6Fd+EMkAEREAERKBSCMjpVkpLSU8REAEREIGKJyCnW/FNKANEQAREQAQqhYCcbqW0lPQUAREQARGoeAJyuhXfhDJABERABERgIAQ+3n1yINmHNK+c7pDilDAREIFaJzDjO8k/cXdd7lBHd62jKFv7d2474XWbPvOckusop1ty5KpQBESgmglcMn+0N2/Txs5qNrNibevsOO12PH3U1btRbnpT6f+7rZxuxXYdKS4CIlCOBL61vCEZzke4F5Z3KNotwwb6n+vak3WI0+6bGydnop2cbibYVakIiEC1EqhvGOEWr270S8xr1xyoVjMr0q5/aD7uXrj7oI9yb1o8PhMbSu50R47MhfPHjh3PxGBVKgIiIAJG4Pjx3N7eqFGjhhQK0e551452Lz3Y7v77X8rxDincQQp74/Vj7oEr9vrS328+z02srxukpLMrVnKnO3r0KDdm9Gh39Ngx19Fx6Oy0V2kREAERGCQBHG5n5yE3oq7OjRs7ZpBS0osR7T646QI30Y10L6w46L5bt8c9v/GwlpvTcQ3rVZzt3Uva3I8XtPl6lm88310+Z2jbeyAG1LW0tHQ3NTUNpMxZ5z116pTbv/9TdzL5WZd0+BEjSu77z9oGCcieAP1I/Sf7dqhUDeg/pMmTGt348eOGzYx1aw66TXd/Fu3WJ45YqTQEjiV7t+zfki5aMs79+7+amsnhKbO2tbXVZeJ0UYAO35HMMru6ulx3t47Wl6YLqhYREAEjMDpZcZs4Ybwb6qXlNMJtrSfdtteOuZ//1SF3ZO8pd+xNjXlpnIb62thr69wVfzzeLfrqeDf/huyiW7MrU6c71HAlTwREQAREQATKmQBOV+u65dxC0k0EREAERKCqCMjpVlVzyhgREAEREIFyJiCnW86tI91EQAREQASqioCcblU1p4wRAREQAREoZwJyuuXcOtJNBERABESgqgjI6VZVc8oYERABERCBciYgp1vOrSMuV/BVAAAMSUlEQVTdREAEREAEqoqAnG5VNaeMEQEREAERKGcCcrrl3DrSTQREQAREoKoIyOlWVXPKGBEQAREQgXImIKdbzq0j3URABERABKqKgJxuVTWnjBEBERABEShnApk53Y6ODrdnzx7P5v333++XEXnjT7+FlGFQBGibYtpkUMLLsBC2YnMpU60x7o/tUPPYvHmze+211/qrVvdFoOQEMnO69957r7vvvvu8I126dGmfDwgP0I033tjrc8011zjkmPMuOb0hrLDUg35fqj/88MP9tklf5SvpHgMz/Y++WMpEv6XeWprc9MV3zZo1ngfP+tkm2vSuu+5yd9xxR8knU2eru8pXP4HM/pvyypUr/UPGw7Fw4UL/KZRsYJo5c6ZbsGCBz4aTam5udhs3bnRbtmxxGzZscFdccUUhEWV9HQ5MHF5++WXX0NCQua42iamGyUyxMEs96bH6Sl1vsTxKnW8oeTAOME5ceeWVZfE8lZql6itvApk4XaJWEg4Gh8pPotYVK1a45cuXFyTGg/T444/3uM8M+YknnvDOe9OmTRX5kDHg2KccnG7BBtANEagAAjxDzzzzTAVoKhVrkUAmTvf+++/3TsaW9JiZ3nLLLYOKVImYWU7aunWrX5q69dZbfTsiH4fMdR7CuXPnOvKaU+P+unXrfJRMsvtE05aQSx4iaq6jo8knD/eos6WlpeB9ZDzwwAP5upCzbNkyd/PNN3u9n3vuufwSGMu66Iee5CtGx7yyZ36Jy8yYMcPLC1cB+rPLZBpDVhPS7L/zzjv9dSZKsIbDY4895q9hl7FBBxiEbGO9+W5lCvEOyxCFw4sVkniihi7oTp3ko53oB1xLs6OQLuhTbNuiM5PGtBUb04G+ZvXHdaIb9dE2Zv/ixYt72RaWg+/69esdzxO/I5/+Qz+lf1n/tmth3437CRPa8PmgbNh3Q/us38IUe9CT+vi9GN7Wr/rigZ2hLL7Hz2jYB+jf6NzZ2elXvaxv0gdiWQPpB3E76bsInC2BTJwuDygDIw8pgxQDhg3WgzGIB44BgIHBHjD2c3goGYB4yBicuM8DSeI+UTb119fX+2VqPm+99ZYfuCyC5ncbTJgkIItBngEfmebQqYv7DNIMviTuc90cP3kZsPigB/WbMyB/qL/pSHnsC3WkbNrgThn0wg6zC/ksX7N0jR2hXQxipjdljI1XPkmsIJDIZ3qH9tmgyU/kmFO1OtCbsujA6kZfehfSi7L0jTjBknq5jzPhOwk90NsmGdhOm/Ed5292WN+L5fJ9IG1Lm1Gn1R/L4571RfJ0d3f7fhLnx/64Pz3yyCNetjmOWDb9B3uQTwrbyfpeeM1sDnXiWUSn+PkI+y780JefPKusKpFgiiz0RBdWoWLepmPI27ZTjAfl4xTqGPb/cCuJPHxHL5NhOnGdZOxivYrpB7FO+i4CQ0IgGUSTZ670ae3atd3JzLS7vb29Oxnkunfv3l1QidWrV3fPmjWr+5577knNE98nH/mRb8nyvPrqq74u7i9ZsiR/n2svvvii/273yRPq9eyzz/rvyODeokWLvP5WZt68ef66leE+35MBNV/Pbbfd5q9hvyXLF9ZlNoRl0Y+yt99+e75s/IvpZdeRid6mo90P64ID17GLZDqG9ZDf7DObKcOH9gs5WB12jZ+ULaS38YaD6UWZWK/YVtMzZGTczGaYvffee/mixtD6krWl6TbQtk0iqrztsX58Rw94kM8S+hg7Y279yvIYM7gVStanw35IPXEfsGvW5/p7PqjP+mRsn10Pn62QcX+8jUehZ8faLa3/oz+2xW3FNSuH7tafuG4Jvaw/ci3uB/mM+kUEhpEA/jaz08tEiyyzMttlecyipLOZSTQ2NvriFjEmD5lfsuNjiZk3dfHhd06R2n1m/SQ7QWlLZlaWiIpydp8o2iIWrrPMRmIWHSa7zjWLUJmd95XMhrAs+lAf8pnlpyX04B7La2aXLStiL4loIOSNHSSLDkwu7WOJ/ERNpNg+a0fuWR1ElXCyJWP0tnt5oWd+MZ6hXuQ322O9rDzLoSSWFUnYbUvhZrMxs35gOrAMmZbMtmLbllWNOGoN5VobGGPuYadF4pYXvlwLmXGvv35CnlBXa6OwPrtmsvp6PvpqW+t32Bv2DRibPYV4s0JCMvlhn8F2OyBpPKzNQzusTWMdqTtcOjcZ4U/0wv64H6Tl1TURGE4CmSwvD7VB9hCmDS6hc+IBNmfDUifLkAxyDNQk7rNEZoMTS7ppye7Hg619jx1inC9NZnytrzr6GojNLpjYwIXz6ssu049JSl+pkB2hAzfdGGTDwZFBtVB5qzPm3Z9eTGCQyxIz7WjO25b3kZtERf4+AzP9wwb/Qgyt7WJdh7Jt0Su2lYmDLecXw6qvdurvXuh84+cjbTIQy4vZhPcL8e5PRiwzrf+HecL2i8vGdfG9WL3SyuqaCAwlgYp3uuyFMagy8FsUSZTFYMJsutDeJ/nZK+RD9MM+G87Xolkg2wAdA2dgIm98P4wk4zID/W42YIc5NX63QTJ0dKFss4tr6MNeF84Xh2RlYr3NOcYyiYgs+keeRUh9DXImg5/xSfNCDGygj/UqhifRLnuaOCwGYuoNIyL6Bn3A9quxNY6UQr2Gum3RBx1ilrGt9Cf0t713dOJE/3AkJh/9PR9p9VrboiefuB/AtT/eVsb6ktUTf6cudKQP2DMc9v247jR97VoxevVVXvdEYCgJVJTT5cHEycYPE9/DJWoGXR5+HKkd0LJlO1uSZJDGKccze2ThaHBWPKz8JFLk4WdpimVx5FOe6ATniAzkm/MPHVUxjWUOFnnItuWy0AYGuXi5OJZtkwezi4HJIip+Z/BiMMMu9CeiooxF+vESndlHGeyzCUChiQz6xHXAznTn51NPPRWr7e2N9UJH9ELvvniG0S6Cw0NXNjBjoznw/v4IxlC3LfKwI41lLxDJBThjL/nDaC4t72CvoRMTsfj5oG76dyHetJGtLFCWfoaO6Eo7WLmQd3xIijwc0qIv4/ytb1n7mE3IpqzpSD22ElBIv0I8BtMPCsnSdRE4WwIV4XRthh0+zGY4D3v8qgaDCg6Ch9ROdpIfOeZkeYjjAZhy5lCIjDilyYDCh8TDS3l+MrgzKISDCvKffPLJPtskbYbOCUvqYjDiwwSCwS/NBvTjflqi/kJ22UCFXTAJJy/oFE5aTEfKhIyQH55wJl+aYwjrsHrIG7/aYzZwr5BexZxqt2gX/cKJA21FnbQfp1dJ2ARXszFuD74Ptm3T2sT6J33RWFo/DB0NfZj71qdsImLRXZrstGuxPeSJr8GA+vp6PtJkc43VC/pPuJyPfJssmtyQd2hnIR5cZ6JlutJurAbQduEzTD3W/2O7TGe7buNGX/2gkJ26LgLDRaAu6djdTU1NwyV/yOTGS4I8WDxUhR48KrblKRwDD545XFMKmTaopd0nn+WxgTKuL7xvDtvkI5tPeB1dKMO1UBbXGZzIz6Bo9/qzIQ3wQOyinlgX6jRmVj/1xPnQl3yx3THftDrS9A55D6SMlaONbKAN5cdthMMIbYm/x/ojM7YxrW0L2cR18qOHyQoZWzljje30R9hyLa7b8qf1pWKvmU7WhrGN/dlnTNPaqT/eYd38jn3W/+Mo1phYf4yf4b7azmQbr2L0srz6KQLDQaC1tdVVjNMdDgCSKQIiIAIiIAKlIoDTzeyVoVIZqXpEQAREQAREoFwIyOmWS0tIDxEQAREQgaonIKdb9U0sA0VABERABMqFgJxuubSE9BABERABEah6AnK6Vd/EMlAEREAERKBcCMjplktLSA8REAEREIGqJyCnW/VNLANFQAREQATKhYCcbrm0hPQQAREQARGoegJyulXfxDJQBERABESgXAjI6ZZLS0gPERABERCBqicgp1v1TSwDRUAEREAEyoWAnG65tIT0EAEREAERqHoCcrpV38QyUAREQAREoFwIyOmWS0tIDxEQAREQgaonIKdb9U0sA0VABERABMqFgJxuubSE9BABERABEah6AnK6Vd/EMlAEREAERKBcCMjplktLSA8REAEREIGqJyCnW/VNLANFQAREQATKhYCcbrm0hPQQAREQARGoegJyulXfxDJQBERABESgXAiMPHaqzn1vc3e56CM9REAEREAERKAqCdx/lXMjsey1d+uq0kAZJQIiIAIiIAJlQYB15cTp/n+fV5kuJQYsyAAAAABJRU5ErkJggg==;imageBorder=#B266FF;strokeWidth=2;" parent="9RFhBGHadp-DHh5qUiH--1" vertex="1">
          <mxGeometry x="1530" y="1640" width="466.03" height="170" as="geometry" />
        </mxCell>
        <mxCell id="lmGHlfPtInGPxrxWDnL5-27" style="edgeStyle=orthogonalEdgeStyle;rounded=0;orthogonalLoop=1;jettySize=auto;html=1;entryX=0;entryY=0.5;entryDx=0;entryDy=0;" parent="9RFhBGHadp-DHh5qUiH--1" source="lmGHlfPtInGPxrxWDnL5-28" target="lmGHlfPtInGPxrxWDnL5-39" edge="1">
          <mxGeometry relative="1" as="geometry">
            <mxPoint x="2474.9000000000005" y="1917" as="targetPoint" />
          </mxGeometry>
        </mxCell>
        <mxCell id="lmGHlfPtInGPxrxWDnL5-28" value="vv-bff-negociacao&lt;br&gt;&lt;br&gt;ou&lt;br&gt;&lt;br&gt;vv-bff-desconto" style="rounded=0;whiteSpace=wrap;html=1;verticalAlign=middle;fillColor=#fff2cc;strokeColor=#d6b656;" parent="9RFhBGHadp-DHh5qUiH--1" vertex="1">
          <mxGeometry x="2302.96" y="1677.5" width="155.81" height="95" as="geometry" />
        </mxCell>
        <mxCell id="lmGHlfPtInGPxrxWDnL5-61" value="&lt;span style=&quot;font-size: 12px&quot;&gt;persistir desconto&lt;/span&gt;" style="edgeStyle=orthogonalEdgeStyle;rounded=0;orthogonalLoop=1;jettySize=auto;html=1;entryX=0;entryY=0.5;entryDx=0;entryDy=0;fontSize=14;exitX=0.5;exitY=0;exitDx=0;exitDy=0;" parent="9RFhBGHadp-DHh5qUiH--1" source="lmGHlfPtInGPxrxWDnL5-30" target="lmGHlfPtInGPxrxWDnL5-57" edge="1">
          <mxGeometry relative="1" as="geometry" />
        </mxCell>
        <mxCell id="lmGHlfPtInGPxrxWDnL5-30" value="" style="ellipse;whiteSpace=wrap;html=1;aspect=fixed;" parent="9RFhBGHadp-DHh5qUiH--1" vertex="1">
          <mxGeometry x="2008.0500000000004" y="1990" width="20" height="20" as="geometry" />
        </mxCell>
        <mxCell id="lmGHlfPtInGPxrxWDnL5-31" value="import&lt;br&gt;&lt;br&gt;remote component" style="edgeStyle=orthogonalEdgeStyle;rounded=0;orthogonalLoop=1;jettySize=auto;html=1;entryX=0.75;entryY=0;entryDx=0;entryDy=0;fontSize=12;startArrow=none;startFill=0;strokeWidth=1;fillColor=default;" parent="9RFhBGHadp-DHh5qUiH--1" source="lmGHlfPtInGPxrxWDnL5-32" target="lmGHlfPtInGPxrxWDnL5-26" edge="1">
          <mxGeometry relative="1" as="geometry" />
        </mxCell>
        <mxCell id="lmGHlfPtInGPxrxWDnL5-32" value="&lt;span&gt;Negociação&lt;/span&gt;" style="ellipse;shape=cloud;whiteSpace=wrap;html=1;fillColor=#dae8fc;strokeColor=#6c8ebf;" parent="9RFhBGHadp-DHh5qUiH--1" vertex="1">
          <mxGeometry x="1816.0500000000002" y="1440" width="128" height="84" as="geometry" />
        </mxCell>
        <mxCell id="lmGHlfPtInGPxrxWDnL5-33" value="v1.0 - Desconto/Negociação" style="text;html=1;strokeColor=none;fillColor=none;align=center;verticalAlign=middle;whiteSpace=wrap;rounded=0;fontSize=22;fontStyle=1" parent="9RFhBGHadp-DHh5qUiH--1" vertex="1">
          <mxGeometry x="2056.05" y="1479" width="321.95" height="30" as="geometry" />
        </mxCell>
        <mxCell id="lmGHlfPtInGPxrxWDnL5-34" value="vv-viamais-calculadora-pagamento-api" style="rounded=0;whiteSpace=wrap;html=1;verticalAlign=middle;" parent="9RFhBGHadp-DHh5qUiH--1" vertex="1">
          <mxGeometry x="2210.0499999999997" y="2020" width="242.9" height="60" as="geometry" />
        </mxCell>
        <mxCell id="lmGHlfPtInGPxrxWDnL5-35" value="consultar resumo" style="edgeStyle=orthogonalEdgeStyle;rounded=0;orthogonalLoop=1;jettySize=auto;html=1;startArrow=none;startFill=0;fillColor=default;exitX=0.5;exitY=1;exitDx=0;exitDy=0;fontSize=12;entryX=0;entryY=0.5;entryDx=0;entryDy=0;" parent="9RFhBGHadp-DHh5qUiH--1" source="lmGHlfPtInGPxrxWDnL5-30" target="lmGHlfPtInGPxrxWDnL5-34" edge="1">
          <mxGeometry relative="1" as="geometry">
            <mxPoint x="1990.9600000000003" y="2049.9700000000003" as="sourcePoint" />
            <mxPoint x="2210.96" y="2040.0022580645164" as="targetPoint" />
            <Array as="points">
              <mxPoint x="2017.95" y="2050" />
            </Array>
          </mxGeometry>
        </mxCell>
        <mxCell id="lmGHlfPtInGPxrxWDnL5-36" value="" style="edgeStyle=orthogonalEdgeStyle;rounded=0;orthogonalLoop=1;jettySize=auto;html=1;fontSize=14;startArrow=none;startFill=0;strokeWidth=3;fillColor=#d5e8d4;strokeColor=#82b366;exitX=1;exitY=0.5;exitDx=0;exitDy=0;entryX=0;entryY=0.5;entryDx=0;entryDy=0;" parent="9RFhBGHadp-DHh5qUiH--1" source="lmGHlfPtInGPxrxWDnL5-62" target="lmGHlfPtInGPxrxWDnL5-30" edge="1">
          <mxGeometry relative="1" as="geometry">
            <mxPoint x="1880.0699999999997" y="1970" as="targetPoint" />
            <mxPoint x="1918.0499999999995" y="2000" as="sourcePoint" />
          </mxGeometry>
        </mxCell>
        <mxCell id="lmGHlfPtInGPxrxWDnL5-37" value="&lt;span style=&quot;font-size: 12px&quot;&gt;consultar alçada&lt;/span&gt;" style="edgeStyle=orthogonalEdgeStyle;rounded=0;orthogonalLoop=1;jettySize=auto;html=1;entryX=0;entryY=0.5;entryDx=0;entryDy=0;fontSize=14;startArrow=none;startFill=0;strokeWidth=1;fillColor=default;" parent="9RFhBGHadp-DHh5qUiH--1" source="lmGHlfPtInGPxrxWDnL5-38" target="lmGHlfPtInGPxrxWDnL5-28" edge="1">
          <mxGeometry relative="1" as="geometry" />
        </mxCell>
        <mxCell id="lmGHlfPtInGPxrxWDnL5-38" value="" style="ellipse;whiteSpace=wrap;html=1;aspect=fixed;" parent="9RFhBGHadp-DHh5qUiH--1" vertex="1">
          <mxGeometry x="2112.9500000000003" y="1715" width="20" height="20" as="geometry" />
        </mxCell>
        <mxCell id="lmGHlfPtInGPxrxWDnL5-39" value="vv-viamais-desconto-api" style="rounded=0;whiteSpace=wrap;html=1;verticalAlign=middle;" parent="9RFhBGHadp-DHh5qUiH--1" vertex="1">
          <mxGeometry x="2542.9500000000003" y="1695" width="155.81" height="60" as="geometry" />
        </mxCell>
        <mxCell id="lmGHlfPtInGPxrxWDnL5-40" value="Consultar informações do produto/preço" style="shape=note;whiteSpace=wrap;html=1;backgroundOutline=1;darkOpacity=0.05;size=14;fillColor=#f8cecc;strokeColor=#b85450;fontStyle=1" parent="9RFhBGHadp-DHh5qUiH--1" vertex="1">
          <mxGeometry x="2315.8599999999997" y="1585" width="130" height="100" as="geometry" />
        </mxCell>
        <mxCell id="lmGHlfPtInGPxrxWDnL5-44" value="1" style="ellipse;whiteSpace=wrap;html=1;fillColor=#fff2cc;strokeColor=#d6b656;fontStyle=1;fontSize=14;" parent="9RFhBGHadp-DHh5qUiH--1" vertex="1">
          <mxGeometry x="860" y="1509" width="40" height="40" as="geometry" />
        </mxCell>
        <mxCell id="lmGHlfPtInGPxrxWDnL5-46" value="2" style="ellipse;whiteSpace=wrap;html=1;fillColor=#fff2cc;strokeColor=#d6b656;fontStyle=1;fontSize=14;" parent="9RFhBGHadp-DHh5qUiH--1" vertex="1">
          <mxGeometry x="2200" y="1439" width="40" height="40" as="geometry" />
        </mxCell>
        <mxCell id="lmGHlfPtInGPxrxWDnL5-56" style="edgeStyle=orthogonalEdgeStyle;rounded=0;orthogonalLoop=1;jettySize=auto;html=1;entryX=0;entryY=0.5;entryDx=0;entryDy=0;" parent="9RFhBGHadp-DHh5qUiH--1" source="lmGHlfPtInGPxrxWDnL5-57" target="lmGHlfPtInGPxrxWDnL5-60" edge="1">
          <mxGeometry relative="1" as="geometry" />
        </mxCell>
        <mxCell id="lmGHlfPtInGPxrxWDnL5-57" value="vv-bff-negociacao" style="rounded=0;whiteSpace=wrap;html=1;verticalAlign=middle;fillColor=#d5e8d4;strokeColor=#82b366;" parent="9RFhBGHadp-DHh5qUiH--1" vertex="1">
          <mxGeometry x="2210.0499999999997" y="1917" width="155.81" height="60" as="geometry" />
        </mxCell>
        <mxCell id="lmGHlfPtInGPxrxWDnL5-58" value="" style="shape=cylinder3;whiteSpace=wrap;html=1;boundedLbl=1;backgroundOutline=1;size=15;fillColor=#d5e8d4;strokeColor=#82b366;" parent="9RFhBGHadp-DHh5qUiH--1" vertex="1">
          <mxGeometry x="2571.9999999999995" y="1900" width="60" height="80" as="geometry" />
        </mxCell>
        <mxCell id="lmGHlfPtInGPxrxWDnL5-59" style="edgeStyle=orthogonalEdgeStyle;rounded=0;orthogonalLoop=1;jettySize=auto;html=1;entryX=0.01;entryY=0.578;entryDx=0;entryDy=0;entryPerimeter=0;" parent="9RFhBGHadp-DHh5qUiH--1" source="lmGHlfPtInGPxrxWDnL5-60" target="lmGHlfPtInGPxrxWDnL5-58" edge="1">
          <mxGeometry relative="1" as="geometry" />
        </mxCell>
        <mxCell id="lmGHlfPtInGPxrxWDnL5-60" value="vv-negociacao" style="rounded=0;whiteSpace=wrap;html=1;verticalAlign=middle;fillColor=#d5e8d4;strokeColor=#82b366;" parent="9RFhBGHadp-DHh5qUiH--1" vertex="1">
          <mxGeometry x="2411.9999999999995" y="1917" width="120" height="60" as="geometry" />
        </mxCell>
        <mxCell id="lmGHlfPtInGPxrxWDnL5-62" value="Pagamento" style="rounded=0;whiteSpace=wrap;html=1;verticalAlign=middle;" parent="9RFhBGHadp-DHh5qUiH--1" vertex="1">
          <mxGeometry x="1652.01" y="1970" width="222.02" height="60" as="geometry" />
        </mxCell>
        <mxCell id="lmGHlfPtInGPxrxWDnL5-63" value="&lt;span style=&quot;font-weight: 700&quot;&gt;@Input ?&lt;/span&gt;&lt;br style=&quot;font-weight: 700&quot;&gt;&lt;br style=&quot;font-weight: 700&quot;&gt;&lt;span style=&quot;font-weight: 700&quot;&gt;@Output desconto {}&lt;/span&gt;" style="edgeStyle=orthogonalEdgeStyle;rounded=0;orthogonalLoop=1;jettySize=auto;html=1;entryX=0.5;entryY=0;entryDx=0;entryDy=0;exitX=0.5;exitY=1;exitDx=0;exitDy=0;startArrow=classic;startFill=1;fontSize=12;" parent="9RFhBGHadp-DHh5qUiH--1" source="lmGHlfPtInGPxrxWDnL5-65" target="lmGHlfPtInGPxrxWDnL5-86" edge="1">
          <mxGeometry relative="1" as="geometry">
            <mxPoint x="2877.9900000000002" y="1540" as="targetPoint" />
            <Array as="points">
              <mxPoint x="3252.95" y="1933" />
            </Array>
          </mxGeometry>
        </mxCell>
        <mxCell id="lmGHlfPtInGPxrxWDnL5-64" value="" style="edgeStyle=orthogonalEdgeStyle;rounded=0;orthogonalLoop=1;jettySize=auto;html=1;fontSize=14;startArrow=none;startFill=0;strokeWidth=3;fillColor=#d5e8d4;strokeColor=#82b366;exitX=1;exitY=0.5;exitDx=0;exitDy=0;entryX=0;entryY=0.5;entryDx=0;entryDy=0;" parent="9RFhBGHadp-DHh5qUiH--1" source="lmGHlfPtInGPxrxWDnL5-65" target="lmGHlfPtInGPxrxWDnL5-77" edge="1">
          <mxGeometry relative="1" as="geometry">
            <mxPoint x="3568.05" y="1820" as="targetPoint" />
            <mxPoint x="3908.05" y="1960" as="sourcePoint" />
          </mxGeometry>
        </mxCell>
        <mxCell id="lmGHlfPtInGPxrxWDnL5-65" value="" style="shape=image;verticalLabelPosition=bottom;labelBackgroundColor=#ffffff;verticalAlign=top;aspect=fixed;imageAspect=0;image=data:image/png,iVBORw0KGgoAAAANSUhEUgAAAd0AAACuCAYAAABz/Ne1AAAABHNCSVQICAgIfAhkiAAAIABJREFUeF7tnQ2QldWZ508j39DdIKjQoBLRCH6g4pYwFRyT2uAmkNTMRBN1s6kJ7JZudrcWXHWrkqwfaMxUje6AU/uls0B2nCrcVbayVRJHmGwmalaxSvC7dSIkAbobAwrdzXcDve/vXJ7r6dPv7b7ddN/3fvxP1a3u+77nPOd5fue85znPOeftrmtpaemeNGmSUxIBERABERABERg+AgcPHnQjhk+8JIuACIiACIiACIQERvKl89BhUREBERABERABERhmAt7p1tdPHOZqJF4EREAEREAEapvAwQMHnHe648eNq20Ssl4EREAEREAEhpkATld7usMMWeJFQAREQAREwAjI6aoviIAIiIAIiECJCMjplgi0qhEBERABERABOV31AREQAREQAREoEQE53RKBVjUiIAIiIAIiIKerPiACIiACIiACJSIgp1si0KpGBERABERABOR01QdEQAREQAREoEQE5HRLBFrViIAIiIAIiICcrvqACIiACIiACJSIgJxuiUCrGhEQAREQARGQ01UfEAEREAEREIESEZDTLRFoVSMCIiACIiACcrrqAyIgAiIgAiJQIgJyuiUCrWpEQAREQAREQE5XfUAEREAEREAESkRATrdEoFWNCIiACIiACMjpqg+IgAiIgAiIQIkIyOmWCLSqEQEREAEREAE5XfUBERABERABESgRATndEoFWNSIgAiIgAiIwMisE77//vtuzZ4+7+eabh0WFjo4Ot27dOjdz5kx36623DksdQyUUXeERp4aGBnfFFVfEl/VdBERABESgQglk5nTvuusu73Qfe+yxYXGKr732mnviiSd8s+C4ytl5Pfzww27jxo2pXQjHu3jxYrdy5Uo/gajGxKQDO5VEQAREoNoJZOZ0cbjDmczRMpiX+4BuLHCqCxYs8FhwRC0tLT4CxiFv3brVbdiwoeocL7YvXbrUt9GmTZvKvq2Gs89KtgiIQPUTyMzpDjdaHBiDeCUlHO7jjz/eQ2Wc0h133OFXBfj58ssvV5JJ/eqKXUww7FPuE6R+DVIGERABEeiDQFk5XZaEGYTZg2UQfu655/xPota0vV/yEwmSBye7cOHCHpEg5Um2p2sykUV+yvPhPt+5jzyTiQOwvH0wzN8KdR5o2ULy0YsleHO8mzdv7sXC7EAGDPjEKWRlqwDxcjX6I98i7zRZxeShPOzhCgeTGTMx1qar7fOjV6hbaF+hvhDbq+8iIAIiUI4Eysrpss/LoM6yKoeg+N0SDoDlVUtr1qzJ79mGYG2PmIH6vvvu87dwnAz4yGSfl8G9ubm5x+ElBnPyh3VSlvxPPvlkqiML603T55FHHnHLli1zDzzwQJh1wL9jO1EwS8yh0w2jYBOKvnGd2GUTEMsHD1jZZAYmts8eyrIVA/KTB+cfMqI+8oRL37BgSZw2oC3NiSN3/fr1+XZkWTlM1E+65ZZbfMSfZh/3qY82Ked9+h6G6YsIiIAInCFQVq8M2WDOoE2UxMBqUWoY7eB4bLAnDwP+8uXL/WCMM41T7Ei3bNniB3QG9/vvv9/XgUMhIcdkcoCJsjjPvhIOzQ5tceAJfXBoOCqcjN3rS0Z/9yzyw4lZsugXnVl2ZjkdR0Sd5mRhxe/mqIyVOVFkwcIcLuXRHQY4enOY5gDhgaPmPh/kcs8mOKEdTBK4jzw4Uyd50c+u0waWsIN8/CSZfegUtonpG7drWLd+FwEREIGyJJAM4t1ZpFmzZnXzefbZZ/PV27V77723h0rz5s3zedeuXeuv85PvS5YsKaj6q6++6vPw2b17t8+3evXqXtdCAe3t7T3kUc5kxPfCjOhBvlhvqw/9+0q33XabL3/PPfcUzMY98tx+++0+j9kXy7brls90sO9WQWiP8Vy0aFF3bKexW7Vqla+fPGF677338oyom2S6xnlNRqhLWjsh48UXX0xtK/SL+0MPhfRFBERABMqUAP62rJaXbVZiJ3jtOxESUY1FNiy3WqR24403+ojM9h8tIuxrhhPv/YZ5iQqJpPiEkRS/U2dasiiZyDhMRNBEuZRFXjG6pcnnWhzVEflbSpx9/nfLZxEqtqID+WNWZg/RMImIMrbRdDYb47ahjEW75An3k+Pl31h2XumUX6y+uK2QAWeWry1PSnFdEgEREIGyJFBWy8vFEmIwZynVDlwxALO8iVOJ9y6LlYnjueaaa7wclkXLLZlOsdOLHRnfWbK1JVqcFkvPMSuWbs3Zmq319fX9mt3Y2NhvnoHI609YPNnoL7/ui4AIiEA5EyjLSLcYYLYnyH4hEQ/7wOzVEtXZPnAxcixPuCe7YsUKfxm5yOwvWaRn0aXlDyOx2Dn2JzO8j23mfMw2i0C5Hr9mFMsuxIq9VTudjVNP2w83WUx0yBNHlxbFk+9sIvlYZ+MVMyWfXRvK+uL69V0EREAEhoNARUa6nEJmSdUGXxyCLWuejXMDcLJnmOdcbNRsh4FwYqYTP+0AFo6yGL1wYHZgjJ/Un+x/9jikZY7GTmRTJjyoxffwJHVfrGJHjkMNZVH/nXfe6R2+nXJGL2SSrC5+Ry/LkwdYxC+h4wwdrDGL7cM2i/oHM7kqQiVlEQEREIFhI5BZpIsTskF/oNYx8BOBsqyMHD42YA9m4Kd+HCdOB8fJoJ4WYRXSk6VcdKEMS9yhbTgVi5wLlTeHjE1pkTX3ORXNq0CWuMZJX5bDcUQ4wjQOxbBiwoINyEAWnzDRTuTBDpwykwlzztaG6DKYBB97HYolb75jJ/pQH3WZfci3+qr5z2IOhqPKiIAIVAaBc5KTpg8Vs5c31Obs37/fjRkzxg+u5nQ6Ozt7XbN6d+7c6d93Je/Xv/51PzgzAJ84ccJnYeD+3ve+l9/LJN/27dvdhRde2OPam2++6ctfd911PUziu8lEt2uvvdY99dRTDp2QZXukaRzMjlAnfv/2t7/tX5c577zz0orlr1F+3759vv7wg6MjmmP5ODygZAWJ8LmPjsePH/cfOFAvTgm5hVg9+uijPZbhb7rpprz9dXV13mZk/+hHP3KzZ8/2VdqhJuOOfA41xfox+YAhelhZyiMzjT/1GDvqvvLKK3378AntQwb2xbobD/0UAREQgXImwFhdxxHmpqamctZTuomACIiACIhAxRNobW11FbmnW/HkZYAIiIAIiEBNEpDTrclml9EiIAIiIAJZEJDTzYK66hQBERABEahJAnK6NdnsMloEREAERCALAnK6WVBXnSIgAiIgAjVJQE63JptdRouACIiACGRBQE43C+qqUwREQAREoCYJyOnWZLPLaBEQAREQgSwIyOlmQV11ioAIiIAI1CQBOd2abHYZLQIiIAIikAUBOd0sqKtOERABERCBmiQgp1uTzS6jRUAEREAEsiAgp5sFddUpAiIgAiJQkwTkdGuy2WW0CIiACIhAFgTkdLOgrjpFQAREQARqkoCcbk02u4wWAREQARHIgoCcbhbUVacIiIAIiEBNEpDTrclml9EiIAIiIAJZEJDTzYK66hQBERABEahJAnK6NdnsMloEREAERCALAnK6WVBXnSIgAiIgAjVJQE63JptdRouACIiACGRBQE43C+qqUwREQAREoCYJyOnWZLPLaBEQAREQgSwIjMyiUuo8fbrbHTp02B05ejQrFVSvCIhADRMYM3q0q6+f6EaOPGfYKRzq6HbPrDvofruty+15+viw16cKcgQmLx3pzrtslPsnd0x0198wtiyw1LW0tHQ3NTWVVJmTJ0+5/Z986k6dOuVG1NW5Eeco4C5pA1RBZadPnXanu7vVf6qgLbMygXGINHlSoxs/ftywqGHO9oW7D+bl17tRw1KXhPYmcMydcl3utL8B9z/bM81Nn5FZrOlaW1tdJrWbw21IZpnMNJVEYKAEjh8/4SduEyZOcPQjJREYKIETJ7p8H2rv6HTjxo11dUkAMJSpreWkW/W1j92+N0/4Af+r6xrc0lvr3cT6oa1nKHWuRlnbXj/u/nZDp3tjTaf7dzNb3D/bONUt/caEzEwteYhJRyfCZWYph5tZu6tiEah5AqNHj/Jj0OnTp93hI0O7zUWE+/2Zbd7h3vTQJPeT7pnutmUNcrgZ9Lr5N4xxP1g91f1w63TXndS/7pbfu22vH8tAk1yVJXe6OFwS+ylKIiACIpAlASJcUldX15CqsfYvDrhOd9ItWTPZ/dsHJw+pbAkbHIH5yZ7uquZpyZrDCPeXC/Y7JkZZpJI73e5kH05JBERABKqVAMvKL61q90vK/3zFpGo1syLtunzOGLd4dWMyIepyz6xvz8SGkjvdTKxUpSIgAiJQIgK/3HLE1/TNjYpwS4R8QNV8a3mDj3ZfWXloQOWGKrOc7lCRlBwREAERSAhs/V+HPYebvjxePMqQQH3DCDdv5QQf7ba15rY7S6mmnG4paasuERCBqidw4IWTfml5YoNOKZdrY19wce7FnbY9J0uuopxuyZGrQhEQAREQgSwJXHBhJm/LepPldLNsedUtAiIgAiJQUwTkdGuquWWsCIiACIhAlgTkdLOkr7pFQAREQARqioCcbk01t4wVAREQARHIkoCcbpb0VbcIiIAIiEBNEZDTranmlrEiIAIiIAJZEpDTzZK+6hYBERABEagpAnK6NdXcMlYEREAERCBLAnK6WdJX3SIgAiIgAjVFQE63pppbxoqACIiACGRJQE43S/qqWwREQAREoKYI1KzTbW/vcO+83VxTjS1jRUAEREAEsiVQs063rfVjt3Pnb92RI0ezbQHVLgIiIAIiUDMEsvtXC0OEuK3tY7f7dy3uxMmuHhIbGxpc46R6d9FFM3tc7+o66XZ89Bu3a3eLv75t29tJnhlu+vRpbtSo/nHs2rXH13f46FE3fvw4X7ZQHW17f+/raGyod3PmXubz95WIvnd89Fu3/5NPfd7p0y5wF108s5dexejQVz26V5gA/Wln0gYnTp707Xb1vCt68If9Bx985G6++YuFhaTc+aD51876w4Rx49xV8+b26g9MAGn/tr0fJ3WOKrrf7N//SaLz79zBjo6CfRKV0OGT/Z962wrpkKK6LpURgV9uOeJ++kS7+5MVje4PF/f+f71tLSfdf/7+p+7wpz3/T+yEc89xC/9ogvvaLRPy1pisf/X4FHfZnNGpVvaV5+//7oj7u78+5PY8fdyNvXaEm3r1qF51hEI3/KTdvf7cEVeovoHonqpshVzs38uUuSFErAxSIxOHyUBF6urq8oML6UjiHOdcflnu92RQe+WVre5o8pP84xLHhqPbvu1T98H4j9yXvrSol4MLzWfQ+vDDj3xZnCJ18Ok6cdLNvnRWPit1dCRyLd/uxMHvTRzwF7/0hV4DrRViwKXcyWRS0NBY7yPwd99t9rYtWrQgL7tYHUK99XtxBGD++tZtCf8GN3XK5GQl5He+/xh/7uNwB5reeft9L4v+MCmZDNKmfL6QtOvUqed6cdb+9E36JX2YfsMErK9+ySRg+7Z3vAz6jfXn9oOdyYRhbl7VYnQYqF3KX3oC62/+JPnn6yfdf910wv1h98W9FGhNnG7z04f9df6nr6Vd7pi//vy1o91/2z7DX/7Vz464XZuOuZe+fKSg07U8Hy7vyuc51NHt7r99r9v1wrF8Pcfe7HbNbx72dby9st79YPXUfN38gkN9cVmH1/2/uE/c6uen97jPlzdey+k4Kvnnd2PdOfn7pvtziT3/qX1Gxf+f4op3utYyV189t0fEySD2i1+84j5s/shddOFM7+y2v/G2d7iXz7nMzZlzab5RiS52nFlqbkwGrrSEPBwuAyKDMPLydSTXLSJlEMThTms63y244Xov6p13k0E3iUSIqkMHGtaDbjjcq5LIavYluYfpVy9vdfsTp45MomnTgXIMxIV0SNNf1/onwAoIaf78eY5+0NHe6fmzOsIqCBMe+s/iAUS5bW17vcOl35jz3JWslGzf/nbiwH+d7w8mO+yb25I8rKrs2Pmb/MQxtsImAUzoGpPJgvVJtk6mN13gnbqPhCMdsOtXySTvnXeaE72+EIvV9zIk8PzGQ95p4ZROuNPu+Y2He0Suoco43J90f7bK19Z60q1a+rHb9+YJ9/z/Tsp947OId6Cmrv2LA97hUscPm8/PO2PqWP/YQfcPaxJnvLqnVByq6Y6j3/b6MTf/hrGpVc9bMdH9YM2U/L1Q900bO91tyxpSy1XKxard07XlWRqCWT+JJWHS9OkX+J+WiFJZLizkcMnHwEWaet65+WiVOohciEoYXEkMkqTZl3zO/yQRaRPl+Kg4GcDjRHkiGiJ1c7jkueTSnPNta8stU5sO0xL9bana7Ax1iOXre3EErG1smwFHSYItzozI88KLZxRcrUirpa0113azL5mVX0W5KJGBbPoDcklEviS2KywxWSThpNMS/YFJwJTEseJwSfSHiy7Mydj/Sa7PshpECnXAGaMDE8T2ZHKhVP4Enl/V7pVc1ZxshSWO9+frO4pWenrTSPfFFbmAYuc7J4ouF2ckYn3pjB5/1jKtR4RMHUS4obO38s/desA76e9szDnTpx8+EIsu+B25X/sPjf7+jre6CuarlBtV63RpAAYU0qjRuYCefSwSEYYNdv5CEWn/vtxydWN9z1kWAx7pyOHc4Mm+GsmcIr/jTG3pO61elgRJLA+GqbEx19HsfvvBXD72GsNkdWnw7IFlwF/M2VpBnC2JtmN5lokTEyic85EjR4qSj1MkNU7q2W+sDXGc9AlWOagn7Dc2CTQZcYXWL8af6dd23+qyySYRe5oOU6fk+m57e24wj+Xre/kQeCOJDPclzvL6ZOn28jlj3LyVE/zSMBFjsWnnWzlnO6GxrtgivfJ92JyTcV6yTI0zLCZZhP75lWPd0m9MdBd9deyAdX/7lZydF8z6bNm5mLrLMU9x1MpR80gnokFzfNwiimjv6PSzeds34/AK+6Z7k8MyfHJ7d+cmnef8JM9nyxlp5uYH4DMOPM5jzpTBkxQOnnzH4TN4mpywfNq18L4NuhaJjZ/Q80CWfe86UfmzwJhrKb9Pb5rml2HZbmBFg/5DH2EVgz15ln53/W6P32Yg0bdYirb+laarra7YpMvyhN/NgePUw9QzT+7gXnifswSkuK/Zd+tXpkOaflwzOYXu63r2BP7moVxk+JU7chPur9wx0b2xptMRMc5P2R897k4ly8+H8orv3d3l85OWfGvioA3a8W7O6U695rP94v6EEeWSlt03yf/8zkOT3aMvtLm/3XAodYl51y+PubVrDubF7tx+3H3w10d8dH82uvenZ6nuV43TNUdq4BjALpk9K9m7zR2i4jpLcOyr7diRnBBOIgwiYT7sf12SLP+FB0/iBogHzfj+2XxPW3I+G3kqOzgCOM/Lk0j2ww9/7fsEDnfBgvl+opabvE1O9kFf9/v1RLxbk0NXHLxasvTL/VYYR9FhgeHsW/0qpgxlT4AlXdtDnX/DGK8v+6FhxBjvj7Lnu/7WfT1sw2l94yeTi45Q08BMmJRbHB0/qbiI06JcInSLjNF1ohvpJwGHVk3pdTCKfeefJR9L6H3RknHuX/7Hs9M9zZ4srlWN0yWK5RUbZvccWGJJjWXleLAjCuDQFYnolGVjf9ApOHjSV0MUigosusDZE+0iO4xA4leawjpsPy52vhap2N6i2RJG9N6OM0vbo0YXP/vsy8Zavjdn7qXJ612X5tvPDjhdd90831dI7NfTZtOnne8jY5b1C50HoM1YYI77g61ejBo5Or/1YKskafzjaJY8tm0Sb1nYd3Pm+VWWM5Gxybf+NX5871dP0nTQtWwIrH88F/WNvbbO/fju/b2USIt2RyeO6r6t0/J5JzaMcE0zRrqJ9YNfWkbYxPqc0yUaLSbZPvS+X3f10N20eGZ9u/sXK3IRsMmb+6cT3L/+8RTX2XHavfBMp99DnrVgtF9Wr4ZUNU531MjcazzJol8SnVyfP7k8dcqUgst/DGQcaiHq9a9n7PukYF7e+d29OzmUdWb/1Rrfvtv+KwerOBTFflq4zGf7amlLkZYvt/ycOymLfFt2NKdse3XxIJvXIalbaWgI0CZw5lQ7B9foJzhgkrWXObW+tgd4X5y2Zz8+bHtb8qVfIY/JGnLspDT12ME5Iu60ZH2O15rCFO/9c1aAPhnvQ7N8Toq3K9Lq0rVsCBDl2rIwESCfOKWdBh6TvHJjUXGc/2y+35S8G/w3iUNHD3SbnjjyQsn2obmPjrz6E6efr2x3ty9r7BHtEkVPb8p9Pv/Qua75/xx1Lz3Y7iY0jujloGN5lfC9Kg9SMYjZu7lEvQxkDGibNm1x25JXc0Kn5aPdZEAi2SCW1nD2BzDY27Py/OS7X3pM9gBJLD2SeM3DEnuEJE6+WmIAt+sM3hxqQUcrh87vvPOBz04E738mgz+Dc5oO3DcdfGalsyZAGxF92sqIRZZ2QMn6gU2K0irkVTISf4zFVjJ27PiN39/HmZoDtxPH5th9mTOnlu0UM/XRf+1ENE7cTsXzChCJPPZHOKxu9qpJ9lqc//2MDvTdQlG6L6SUKQGLcpdvPN9t7P5cr8831+fOorA/WopUn0TMf/Bgbl/5+zP3esdr6cMPjrsf/unH7rt1e/wl24cupPuS1ZP9q09Eu32luzfk3vnFQYf19VWmnO8VnqaUs9ZF6MZrQOzz4lBxZLnXJUb5iJaPLdnaMt+FyXuwHKgqlHCMV1011//Bii2b/94PmHY6evaln8svY8+e/bnkvdoWf5ALJ0856qA+mwgQmdphHN6lZOC1Q168V8ygSlSS+0MZDT7KIiELGaEOFr1wyMcG8EI26HrxBHBe8StCTLx4L5btCKJQXvMhCo63MMJacIxMtniVbPPmX+T7A85y/vyr81npQzhLtjmQywSM9qffWPvbigyTrulNuX1kDnKxr8w7t+S1cmF/CHXg3XXrk1ROeaXyJMDyqkW58xemL61yGvinyw7k90fNEpaii00/u/uA4xOm+D3f8N6KJPr8/W+6/OGmfzNztz/gNDb58B4u6R8l+7fhPvTSAu8Ef2t5g68XZxovMYf1sayMgybvn9+1L/UPaxRraznkq3inS5TBQJN2+vi66+f5P4jRWN/oBxrexeXP/DGosT+HM+SVHyIJG9j6ahQcOXJ279rj/+zktGRPj8EyXjLmD2AQpeD0yTc9OdA1O/mYU0RnyjJ4WrJDXh8kh3hYHiQvf5qScmGKdSBCTtOhLzt0r38C9I9wokQJ2p6DeLw+xIQLJxwe1CskdX6yHzz13Cm+37CsfGHyHi3tGEbItDf9hvY/euioO5E4ZWt/c+r0cfqrbVVQH6sf/GEMImSWmXkViXJxf07TgUg47ruFbND10hMgquQA0qV9vJ5Dnj9ZN9m9/Ytjfon288mfc7z4K+Pcwtv736fnBLTrTnfOl16XOx9yzY1j3eFPTrvrI6f/6P+4wG36o0Pu//30iDu677Q7sveU+/xNDe4r/3SiX9ZmwoAef3xv+tYINNF9aeJMTYXr/2Cs+79JmUVf7/3ncnHQO7edcNf84/Q/qFH61hl8jXUtLS3dTU1Ng5cwwJJEEAcOtrvJkxozjcwYpIg2+etCWUSI1M+S40D/hu8AcVdt9uPHT/hVjPr6ia4h+dRKYnk5CSocTlTp7AmcPHXKffzxPj8GMCYNRfpuXXL4w9Wl/pGIoZAvGWdPgFPVnO7+4damYdn7LqRha2trcm67RhPLul3JH37PwuGCnOXnQn8SskabRGb3QyB30KrL/xMGJREQgcokULNOl6W9q68uvPQx3M35hRsXDHcVkl9lBFjeXrDw+iqzSuaIQG0RqMrTy7XVhLJWBERABESgUgjI6VZKS0lPERABERCBiicgp1vxTSgDREAEREAEKoWAnG6ltJT0FAEREAERqHgCcroV34QyQAREQAREoFIIyOlWSktJTxEQAREQgYonIKdb8U0oA0RABERABCqFgJxupbSU9BQBERABEah4AnK6Fd+EMkAEREAERKBSCMjpVkpLSU8REAEREIGKJyCnW/FNKANEQAREQAQqhYCcbqW0lPQUAREQARGoeAJyuhXfhDJABERABERgIAQ+3n1yINmHNK+c7pDilDAREIFaJzDjO8k/cXdd7lBHd62jKFv7d2474XWbPvOckusop1ty5KpQBESgmglcMn+0N2/Txs5qNrNibevsOO12PH3U1btRbnpT6f+7rZxuxXYdKS4CIlCOBL61vCEZzke4F5Z3KNotwwb6n+vak3WI0+6bGydnop2cbibYVakIiEC1EqhvGOEWr270S8xr1xyoVjMr0q5/aD7uXrj7oI9yb1o8PhMbSu50R47MhfPHjh3PxGBVKgIiIAJG4Pjx3N7eqFGjhhQK0e551452Lz3Y7v77X8rxDincQQp74/Vj7oEr9vrS328+z02srxukpLMrVnKnO3r0KDdm9Gh39Ngx19Fx6Oy0V2kREAERGCQBHG5n5yE3oq7OjRs7ZpBS0osR7T646QI30Y10L6w46L5bt8c9v/GwlpvTcQ3rVZzt3Uva3I8XtPl6lm88310+Z2jbeyAG1LW0tHQ3NTUNpMxZ5z116pTbv/9TdzL5WZd0+BEjSu77z9oGCcieAP1I/Sf7dqhUDeg/pMmTGt348eOGzYx1aw66TXd/Fu3WJ45YqTQEjiV7t+zfki5aMs79+7+amsnhKbO2tbXVZeJ0UYAO35HMMru6ulx3t47Wl6YLqhYREAEjMDpZcZs4Ybwb6qXlNMJtrSfdtteOuZ//1SF3ZO8pd+xNjXlpnIb62thr69wVfzzeLfrqeDf/huyiW7MrU6c71HAlTwREQAREQATKmQBOV+u65dxC0k0EREAERKCqCMjpVlVzyhgREAEREIFyJiCnW86tI91EQAREQASqioCcblU1p4wRAREQAREoZwJyuuXcOtJNBERABESgqgjI6VZVc8oYERABERCBciYgp1vOrSMuV/BVAAAMSUlEQVTdREAEREAEqoqAnG5VNaeMEQEREAERKGcCcrrl3DrSTQREQAREoKoIyOlWVXPKGBEQAREQgXImIKdbzq0j3URABERABKqKgJxuVTWnjBEBERABEShnApk53Y6ODrdnzx7P5v333++XEXnjT7+FlGFQBGibYtpkUMLLsBC2YnMpU60x7o/tUPPYvHmze+211/qrVvdFoOQEMnO69957r7vvvvu8I126dGmfDwgP0I033tjrc8011zjkmPMuOb0hrLDUg35fqj/88MP9tklf5SvpHgMz/Y++WMpEv6XeWprc9MV3zZo1ngfP+tkm2vSuu+5yd9xxR8knU2eru8pXP4HM/pvyypUr/UPGw7Fw4UL/KZRsYJo5c6ZbsGCBz4aTam5udhs3bnRbtmxxGzZscFdccUUhEWV9HQ5MHF5++WXX0NCQua42iamGyUyxMEs96bH6Sl1vsTxKnW8oeTAOME5ceeWVZfE8lZql6itvApk4XaJWEg4Gh8pPotYVK1a45cuXFyTGg/T444/3uM8M+YknnvDOe9OmTRX5kDHg2KccnG7BBtANEagAAjxDzzzzTAVoKhVrkUAmTvf+++/3TsaW9JiZ3nLLLYOKVImYWU7aunWrX5q69dZbfTsiH4fMdR7CuXPnOvKaU+P+unXrfJRMsvtE05aQSx4iaq6jo8knD/eos6WlpeB9ZDzwwAP5upCzbNkyd/PNN3u9n3vuufwSGMu66Iee5CtGx7yyZ36Jy8yYMcPLC1cB+rPLZBpDVhPS7L/zzjv9dSZKsIbDY4895q9hl7FBBxiEbGO9+W5lCvEOyxCFw4sVkniihi7oTp3ko53oB1xLs6OQLuhTbNuiM5PGtBUb04G+ZvXHdaIb9dE2Zv/ixYt72RaWg+/69esdzxO/I5/+Qz+lf1n/tmth3437CRPa8PmgbNh3Q/us38IUe9CT+vi9GN7Wr/rigZ2hLL7Hz2jYB+jf6NzZ2elXvaxv0gdiWQPpB3E76bsInC2BTJwuDygDIw8pgxQDhg3WgzGIB44BgIHBHjD2c3goGYB4yBicuM8DSeI+UTb119fX+2VqPm+99ZYfuCyC5ncbTJgkIItBngEfmebQqYv7DNIMviTuc90cP3kZsPigB/WbMyB/qL/pSHnsC3WkbNrgThn0wg6zC/ksX7N0jR2hXQxipjdljI1XPkmsIJDIZ3qH9tmgyU/kmFO1OtCbsujA6kZfehfSi7L0jTjBknq5jzPhOwk90NsmGdhOm/Ed5292WN+L5fJ9IG1Lm1Gn1R/L4571RfJ0d3f7fhLnx/64Pz3yyCNetjmOWDb9B3uQTwrbyfpeeM1sDnXiWUSn+PkI+y780JefPKusKpFgiiz0RBdWoWLepmPI27ZTjAfl4xTqGPb/cCuJPHxHL5NhOnGdZOxivYrpB7FO+i4CQ0IgGUSTZ670ae3atd3JzLS7vb29Oxnkunfv3l1QidWrV3fPmjWr+5577knNE98nH/mRb8nyvPrqq74u7i9ZsiR/n2svvvii/273yRPq9eyzz/rvyODeokWLvP5WZt68ef66leE+35MBNV/Pbbfd5q9hvyXLF9ZlNoRl0Y+yt99+e75s/IvpZdeRid6mo90P64ID17GLZDqG9ZDf7DObKcOH9gs5WB12jZ+ULaS38YaD6UWZWK/YVtMzZGTczGaYvffee/mixtD6krWl6TbQtk0iqrztsX58Rw94kM8S+hg7Y279yvIYM7gVStanw35IPXEfsGvW5/p7PqjP+mRsn10Pn62QcX+8jUehZ8faLa3/oz+2xW3FNSuH7tafuG4Jvaw/ci3uB/mM+kUEhpEA/jaz08tEiyyzMttlecyipLOZSTQ2NvriFjEmD5lfsuNjiZk3dfHhd06R2n1m/SQ7QWlLZlaWiIpydp8o2iIWrrPMRmIWHSa7zjWLUJmd95XMhrAs+lAf8pnlpyX04B7La2aXLStiL4loIOSNHSSLDkwu7WOJ/ERNpNg+a0fuWR1ElXCyJWP0tnt5oWd+MZ6hXuQ322O9rDzLoSSWFUnYbUvhZrMxs35gOrAMmZbMtmLbllWNOGoN5VobGGPuYadF4pYXvlwLmXGvv35CnlBXa6OwPrtmsvp6PvpqW+t32Bv2DRibPYV4s0JCMvlhn8F2OyBpPKzNQzusTWMdqTtcOjcZ4U/0wv64H6Tl1TURGE4CmSwvD7VB9hCmDS6hc+IBNmfDUifLkAxyDNQk7rNEZoMTS7ppye7Hg619jx1inC9NZnytrzr6GojNLpjYwIXz6ssu049JSl+pkB2hAzfdGGTDwZFBtVB5qzPm3Z9eTGCQyxIz7WjO25b3kZtERf4+AzP9wwb/Qgyt7WJdh7Jt0Su2lYmDLecXw6qvdurvXuh84+cjbTIQy4vZhPcL8e5PRiwzrf+HecL2i8vGdfG9WL3SyuqaCAwlgYp3uuyFMagy8FsUSZTFYMJsutDeJ/nZK+RD9MM+G87Xolkg2wAdA2dgIm98P4wk4zID/W42YIc5NX63QTJ0dKFss4tr6MNeF84Xh2RlYr3NOcYyiYgs+keeRUh9DXImg5/xSfNCDGygj/UqhifRLnuaOCwGYuoNIyL6Bn3A9quxNY6UQr2Gum3RBx1ilrGt9Cf0t713dOJE/3AkJh/9PR9p9VrboiefuB/AtT/eVsb6ktUTf6cudKQP2DMc9v247jR97VoxevVVXvdEYCgJVJTT5cHEycYPE9/DJWoGXR5+HKkd0LJlO1uSZJDGKccze2ThaHBWPKz8JFLk4WdpimVx5FOe6ATniAzkm/MPHVUxjWUOFnnItuWy0AYGuXi5OJZtkwezi4HJIip+Z/BiMMMu9CeiooxF+vESndlHGeyzCUChiQz6xHXAznTn51NPPRWr7e2N9UJH9ELvvniG0S6Cw0NXNjBjoznw/v4IxlC3LfKwI41lLxDJBThjL/nDaC4t72CvoRMTsfj5oG76dyHetJGtLFCWfoaO6Eo7WLmQd3xIijwc0qIv4/ytb1n7mE3IpqzpSD22ElBIv0I8BtMPCsnSdRE4WwIV4XRthh0+zGY4D3v8qgaDCg6Ch9ROdpIfOeZkeYjjAZhy5lCIjDilyYDCh8TDS3l+MrgzKISDCvKffPLJPtskbYbOCUvqYjDiwwSCwS/NBvTjflqi/kJ22UCFXTAJJy/oFE5aTEfKhIyQH55wJl+aYwjrsHrIG7/aYzZwr5BexZxqt2gX/cKJA21FnbQfp1dJ2ARXszFuD74Ptm3T2sT6J33RWFo/DB0NfZj71qdsImLRXZrstGuxPeSJr8GA+vp6PtJkc43VC/pPuJyPfJssmtyQd2hnIR5cZ6JlutJurAbQduEzTD3W/2O7TGe7buNGX/2gkJ26LgLDRaAu6djdTU1NwyV/yOTGS4I8WDxUhR48KrblKRwDD545XFMKmTaopd0nn+WxgTKuL7xvDtvkI5tPeB1dKMO1UBbXGZzIz6Bo9/qzIQ3wQOyinlgX6jRmVj/1xPnQl3yx3THftDrS9A55D6SMlaONbKAN5cdthMMIbYm/x/ojM7YxrW0L2cR18qOHyQoZWzljje30R9hyLa7b8qf1pWKvmU7WhrGN/dlnTNPaqT/eYd38jn3W/+Mo1phYf4yf4b7azmQbr2L0srz6KQLDQaC1tdVVjNMdDgCSKQIiIAIiIAKlIoDTzeyVoVIZqXpEQAREQAREoFwIyOmWS0tIDxEQAREQgaonIKdb9U0sA0VABERABMqFgJxuubSE9BABERABEah6AnK6Vd/EMlAEREAERKBcCMjplktLSA8REAEREIGqJyCnW/VNLANFQAREQATKhYCcbrm0hPQQAREQARGoegJyulXfxDJQBERABESgXAjI6ZZLS0gPERABERCBqicgp1v1TSwDRUAEREAEyoWAnG65tIT0EAEREAERqHoCcrpV38QyUAREQAREoFwIyOmWS0tIDxEQAREQgaonIKdb9U0sA0VABERABMqFgJxuubSE9BABERABEah6AnK6Vd/EMlAEREAERKBcCMjplktLSA8REAEREIGqJyCnW/VNLANFQAREQATKhYCcbrm0hPQQAREQARGoegJyulXfxDJQBERABESgXAiMPHaqzn1vc3e56CM9REAEREAERKAqCdx/lXMjsey1d+uq0kAZJQIiIAIiIAJlQYB15cTp/n+fV5kuJQYsyAAAAABJRU5ErkJggg==;imageBorder=#B266FF;strokeWidth=2;" parent="9RFhBGHadp-DHh5qUiH--1" vertex="1">
          <mxGeometry x="3020" y="1670" width="466.03" height="170" as="geometry" />
        </mxCell>
        <mxCell id="lmGHlfPtInGPxrxWDnL5-66" style="edgeStyle=orthogonalEdgeStyle;rounded=0;orthogonalLoop=1;jettySize=auto;html=1;entryX=0;entryY=0.5;entryDx=0;entryDy=0;" parent="9RFhBGHadp-DHh5qUiH--1" source="lmGHlfPtInGPxrxWDnL5-67" target="lmGHlfPtInGPxrxWDnL5-78" edge="1">
          <mxGeometry relative="1" as="geometry">
            <mxPoint x="3961.9400000000005" y="1833.25" as="targetPoint" />
          </mxGeometry>
        </mxCell>
        <mxCell id="lmGHlfPtInGPxrxWDnL5-67" value="vv-bff-desconto" style="rounded=0;whiteSpace=wrap;html=1;verticalAlign=middle;fillColor=#fff2cc;strokeColor=#d6b656;" parent="9RFhBGHadp-DHh5qUiH--1" vertex="1">
          <mxGeometry x="3790" y="1593.75" width="155.81" height="95" as="geometry" />
        </mxCell>
        <mxCell id="lmGHlfPtInGPxrxWDnL5-68" value="&lt;span style=&quot;font-size: 12px&quot;&gt;persistir desconto&lt;/span&gt;" style="edgeStyle=orthogonalEdgeStyle;rounded=0;orthogonalLoop=1;jettySize=auto;html=1;entryX=0;entryY=0.5;entryDx=0;entryDy=0;fontSize=14;exitX=1;exitY=0.5;exitDx=0;exitDy=0;" parent="9RFhBGHadp-DHh5qUiH--1" source="lmGHlfPtInGPxrxWDnL5-77" target="lmGHlfPtInGPxrxWDnL5-82" edge="1">
          <mxGeometry relative="1" as="geometry" />
        </mxCell>
        <mxCell id="lmGHlfPtInGPxrxWDnL5-87" value="&lt;span style=&quot;font-size: 12px&quot;&gt;consultar resumo&lt;/span&gt;" style="edgeStyle=orthogonalEdgeStyle;rounded=0;orthogonalLoop=1;jettySize=auto;html=1;entryX=0;entryY=0.5;entryDx=0;entryDy=0;fontSize=14;" parent="9RFhBGHadp-DHh5qUiH--1" source="lmGHlfPtInGPxrxWDnL5-69" target="lmGHlfPtInGPxrxWDnL5-73" edge="1">
          <mxGeometry relative="1" as="geometry" />
        </mxCell>
        <mxCell id="lmGHlfPtInGPxrxWDnL5-69" value="" style="ellipse;whiteSpace=wrap;html=1;aspect=fixed;" parent="9RFhBGHadp-DHh5qUiH--1" vertex="1">
          <mxGeometry x="3498.05" y="2020" width="20" height="20" as="geometry" />
        </mxCell>
        <mxCell id="lmGHlfPtInGPxrxWDnL5-70" value="import&lt;br&gt;&lt;br&gt;remote component" style="edgeStyle=orthogonalEdgeStyle;rounded=0;orthogonalLoop=1;jettySize=auto;html=1;entryX=0.75;entryY=0;entryDx=0;entryDy=0;fontSize=12;startArrow=none;startFill=0;strokeWidth=1;fillColor=default;" parent="9RFhBGHadp-DHh5qUiH--1" source="lmGHlfPtInGPxrxWDnL5-71" target="lmGHlfPtInGPxrxWDnL5-65" edge="1">
          <mxGeometry relative="1" as="geometry" />
        </mxCell>
        <mxCell id="lmGHlfPtInGPxrxWDnL5-71" value="&lt;span&gt;Negociação&lt;/span&gt;" style="ellipse;shape=cloud;whiteSpace=wrap;html=1;fillColor=#dae8fc;strokeColor=#6c8ebf;" parent="9RFhBGHadp-DHh5qUiH--1" vertex="1">
          <mxGeometry x="3300" y="1400" width="128" height="84" as="geometry" />
        </mxCell>
        <mxCell id="lmGHlfPtInGPxrxWDnL5-72" value="v1.0 - Desconto/Negociação" style="text;html=1;strokeColor=none;fillColor=none;align=center;verticalAlign=middle;whiteSpace=wrap;rounded=0;fontSize=22;fontStyle=1" parent="9RFhBGHadp-DHh5qUiH--1" vertex="1">
          <mxGeometry x="3460" y="1430" width="321.95" height="30" as="geometry" />
        </mxCell>
        <mxCell id="lmGHlfPtInGPxrxWDnL5-73" value="vv-viamais-calculadora-pagamento-api" style="rounded=0;whiteSpace=wrap;html=1;verticalAlign=middle;" parent="9RFhBGHadp-DHh5qUiH--1" vertex="1">
          <mxGeometry x="3709.9999999999995" y="2000" width="242.9" height="60" as="geometry" />
        </mxCell>
        <mxCell id="lmGHlfPtInGPxrxWDnL5-75" value="" style="edgeStyle=orthogonalEdgeStyle;rounded=0;orthogonalLoop=1;jettySize=auto;html=1;fontSize=14;startArrow=none;startFill=0;strokeWidth=3;fillColor=#d5e8d4;strokeColor=#82b366;exitX=1;exitY=0.5;exitDx=0;exitDy=0;entryX=0;entryY=0.5;entryDx=0;entryDy=0;" parent="9RFhBGHadp-DHh5qUiH--1" source="lmGHlfPtInGPxrxWDnL5-86" target="lmGHlfPtInGPxrxWDnL5-69" edge="1">
          <mxGeometry relative="1" as="geometry">
            <mxPoint x="3370.0699999999997" y="2000" as="targetPoint" />
            <mxPoint x="3408.0499999999993" y="2030" as="sourcePoint" />
          </mxGeometry>
        </mxCell>
        <mxCell id="lmGHlfPtInGPxrxWDnL5-76" value="&lt;span style=&quot;font-size: 12px&quot;&gt;consultar alçada&lt;/span&gt;" style="edgeStyle=orthogonalEdgeStyle;rounded=0;orthogonalLoop=1;jettySize=auto;html=1;entryX=0;entryY=0.5;entryDx=0;entryDy=0;fontSize=14;startArrow=none;startFill=0;strokeWidth=1;fillColor=default;" parent="9RFhBGHadp-DHh5qUiH--1" source="lmGHlfPtInGPxrxWDnL5-77" target="lmGHlfPtInGPxrxWDnL5-67" edge="1">
          <mxGeometry relative="1" as="geometry" />
        </mxCell>
        <mxCell id="lmGHlfPtInGPxrxWDnL5-77" value="" style="ellipse;whiteSpace=wrap;html=1;aspect=fixed;" parent="9RFhBGHadp-DHh5qUiH--1" vertex="1">
          <mxGeometry x="3602.9500000000003" y="1745" width="20" height="20" as="geometry" />
        </mxCell>
        <mxCell id="lmGHlfPtInGPxrxWDnL5-78" value="vv-viamais-desconto-api" style="rounded=0;whiteSpace=wrap;html=1;verticalAlign=middle;" parent="9RFhBGHadp-DHh5qUiH--1" vertex="1">
          <mxGeometry x="4029.9900000000002" y="1611.25" width="155.81" height="60" as="geometry" />
        </mxCell>
        <mxCell id="lmGHlfPtInGPxrxWDnL5-79" value="Consultar informações do produto/preço" style="shape=note;whiteSpace=wrap;html=1;backgroundOutline=1;darkOpacity=0.05;size=14;fillColor=#f8cecc;strokeColor=#b85450;fontStyle=1" parent="9RFhBGHadp-DHh5qUiH--1" vertex="1">
          <mxGeometry x="3802.91" y="1499" width="130" height="100" as="geometry" />
        </mxCell>
        <mxCell id="lmGHlfPtInGPxrxWDnL5-80" value="3" style="ellipse;whiteSpace=wrap;html=1;fillColor=#fff2cc;strokeColor=#d6b656;fontStyle=1;fontSize=14;" parent="9RFhBGHadp-DHh5qUiH--1" vertex="1">
          <mxGeometry x="3600.98" y="1390" width="40" height="40" as="geometry" />
        </mxCell>
        <mxCell id="lmGHlfPtInGPxrxWDnL5-81" style="edgeStyle=orthogonalEdgeStyle;rounded=0;orthogonalLoop=1;jettySize=auto;html=1;entryX=0;entryY=0.5;entryDx=0;entryDy=0;fillColor=#d5e8d4;strokeColor=#82b366;" parent="9RFhBGHadp-DHh5qUiH--1" source="lmGHlfPtInGPxrxWDnL5-82" target="lmGHlfPtInGPxrxWDnL5-85" edge="1">
          <mxGeometry relative="1" as="geometry" />
        </mxCell>
        <mxCell id="lmGHlfPtInGPxrxWDnL5-82" value="vv-bff-negociacao" style="rounded=0;whiteSpace=wrap;html=1;verticalAlign=middle;fillColor=#d5e8d4;strokeColor=#82b366;" parent="9RFhBGHadp-DHh5qUiH--1" vertex="1">
          <mxGeometry x="3789.9999999999995" y="1827" width="155.81" height="60" as="geometry" />
        </mxCell>
        <mxCell id="lmGHlfPtInGPxrxWDnL5-83" value="" style="shape=cylinder3;whiteSpace=wrap;html=1;boundedLbl=1;backgroundOutline=1;size=15;fillColor=#d5e8d4;strokeColor=#82b366;" parent="9RFhBGHadp-DHh5qUiH--1" vertex="1">
          <mxGeometry x="4151.95" y="1810" width="60" height="80" as="geometry" />
        </mxCell>
        <mxCell id="lmGHlfPtInGPxrxWDnL5-84" style="edgeStyle=orthogonalEdgeStyle;rounded=0;orthogonalLoop=1;jettySize=auto;html=1;entryX=0.01;entryY=0.578;entryDx=0;entryDy=0;entryPerimeter=0;fillColor=#d5e8d4;strokeColor=#82b366;" parent="9RFhBGHadp-DHh5qUiH--1" source="lmGHlfPtInGPxrxWDnL5-85" target="lmGHlfPtInGPxrxWDnL5-83" edge="1">
          <mxGeometry relative="1" as="geometry" />
        </mxCell>
        <mxCell id="lmGHlfPtInGPxrxWDnL5-85" value="vv-negociacao" style="rounded=0;whiteSpace=wrap;html=1;verticalAlign=middle;fillColor=#d5e8d4;strokeColor=#82b366;" parent="9RFhBGHadp-DHh5qUiH--1" vertex="1">
          <mxGeometry x="3991.9499999999994" y="1827" width="120" height="60" as="geometry" />
        </mxCell>
        <mxCell id="lmGHlfPtInGPxrxWDnL5-86" value="Pagamento" style="rounded=0;whiteSpace=wrap;html=1;verticalAlign=middle;" parent="9RFhBGHadp-DHh5qUiH--1" vertex="1">
          <mxGeometry x="3142.01" y="2000" width="222.02" height="60" as="geometry" />
        </mxCell>
      </root>
    </mxGraphModel>
  </diagram>
</mxfile>
